<svg width="75" height="96" viewBox="0 0 75 96" fill="none" xmlns="http://www.w3.org/2000/svg">
<path d="M22.8723 29.272C20.1146 27.7937 24.3075 19.1723 30.349 16.8235C36.3931 14.4753 44.0587 18.5541 46.2835 25.5861C48.511 32.6187 52.7217 35.3418 52.7217 35.3418C52.7217 35.3418 30.9194 33.5859 22.8723 29.272Z" fill="#592F72"/>
<path d="M31.7357 33.0488C31.7357 33.0488 28.5756 25.944 34.5005 24.0168C40.4254 22.0897 38.2023 19.6676 44.4281 18.384C50.6559 17.1034 56.6269 24.7266 51.9639 33.9497C51.9666 33.9502 41.7159 35.8706 31.7357 33.0488Z" fill="#FFB5C3"/>
<path fill-rule="evenodd" clip-rule="evenodd" d="M39.4622 8.42816C39.5182 8.41675 39.5747 8.45045 39.5883 8.50344L39.4869 8.5241L39.3854 8.54476C39.3718 8.49178 39.4062 8.43957 39.4622 8.42816ZM39.4869 8.5241C39.3854 8.54476 39.3854 8.54474 39.3854 8.54476L39.3856 8.54561L39.3863 8.54842L39.3892 8.55992C39.3918 8.57017 39.3956 8.58558 39.4006 8.60601C39.4105 8.64687 39.4251 8.70781 39.4433 8.78773C39.4798 8.94758 39.5313 9.18338 39.5908 9.48639C39.7099 10.0924 39.8613 10.9673 39.9902 12.0411C40.2482 14.1892 40.4161 17.1318 40.0568 20.3118C40.0507 20.3655 40.0922 20.4149 40.1496 20.422C40.2069 20.4291 40.2583 20.3914 40.2644 20.3376C40.6258 17.1396 40.4568 14.182 40.1977 12.0242C40.0682 10.9452 39.916 10.0657 39.7961 9.4557C39.7362 9.15069 39.6843 8.91301 39.6474 8.75139C39.6289 8.67059 39.6142 8.60879 39.6041 8.5671C39.599 8.54626 39.5951 8.53044 39.5924 8.51978L39.5894 8.50769L39.5886 8.50458L39.5883 8.50344C39.5883 8.50338 39.5883 8.50344 39.4869 8.5241Z" fill="#592F72"/>
<path fill-rule="evenodd" clip-rule="evenodd" d="M36.2792 9.76385C36.3182 9.72491 36.3843 9.72391 36.4267 9.76161L36.3561 9.83212L36.2855 9.90262C36.243 9.86492 36.2402 9.80279 36.2792 9.76385ZM36.3561 9.83212C36.2855 9.90262 36.2855 9.9026 36.2855 9.90262L36.287 9.90394L36.2912 9.90763L36.3075 9.92196C36.3218 9.93453 36.343 9.95304 36.3706 9.97692C36.4259 10.0247 36.5069 10.094 36.61 10.1805C36.8162 10.3533 37.1112 10.5948 37.4666 10.8694C38.1768 11.4182 39.1308 12.1015 40.1011 12.6346C40.1514 12.6623 40.215 12.6469 40.2431 12.6003C40.2712 12.5537 40.2532 12.4935 40.2028 12.4658C39.2467 11.9405 38.3028 11.2648 37.5967 10.7191C37.2439 10.4465 36.9511 10.2069 36.7466 10.0355C36.6444 9.94981 36.5643 9.8812 36.5098 9.83408C36.4825 9.81052 36.4617 9.79233 36.4477 9.78007L36.4319 9.76619L36.428 9.76271L36.4267 9.76161L36.3561 9.83212Z" fill="#592F72"/>
<path fill-rule="evenodd" clip-rule="evenodd" d="M36.259 13.0076C36.259 13.0076 36.259 13.0076 36.259 13.0076L36.2602 13.0087L36.2644 13.0121C36.2681 13.0152 36.2737 13.0198 36.2812 13.0258C36.2961 13.0379 36.3184 13.0559 36.3475 13.0791C36.4059 13.1255 36.4918 13.1929 36.6017 13.2764C36.8217 13.4435 37.1376 13.675 37.5207 13.9322C38.2879 14.4472 39.3211 15.0626 40.3919 15.4715C40.4458 15.4921 40.4729 15.5494 40.4524 15.5996C40.432 15.6497 40.3717 15.6737 40.3178 15.6531C39.2248 15.2357 38.176 14.6102 37.4024 14.0909C37.0151 13.831 36.6958 13.5969 36.4731 13.4278C36.3618 13.3432 36.2746 13.2748 36.2151 13.2275C36.1853 13.2038 36.1625 13.1854 36.1471 13.1729C36.1394 13.1666 36.1335 13.1618 36.1295 13.1585L36.125 13.1548L36.1235 13.1536C36.1234 13.1535 36.1233 13.1534 36.1912 13.0805L36.1235 13.1536C36.0796 13.1173 36.0743 13.0551 36.1118 13.0148C36.1492 12.9746 36.2151 12.9714 36.259 13.0076Z" fill="#592F72"/>
<path fill-rule="evenodd" clip-rule="evenodd" d="M38.9633 14.8374C38.9857 14.8878 38.9608 14.9448 38.9076 14.9645C38.4142 15.1477 37.8113 15.3086 37.3339 15.4233C37.0948 15.4807 36.8862 15.5268 36.7374 15.5586C36.663 15.5744 36.6035 15.5867 36.5626 15.5951C36.5421 15.5992 36.5262 15.6024 36.5155 15.6045L36.5032 15.607L36.499 15.6078C36.499 15.6078 36.4989 15.6078 36.4767 15.5182L36.499 15.6078C36.4429 15.6188 36.3866 15.5846 36.3735 15.5316C36.3603 15.4785 36.3952 15.4266 36.4513 15.4156L36.4552 15.4148L36.4671 15.4125C36.4775 15.4104 36.4931 15.4073 36.5133 15.4032C36.5536 15.395 36.6125 15.3828 36.6861 15.3671C36.8335 15.3357 37.0402 15.29 37.2772 15.233C37.7521 15.1189 38.3452 14.9604 38.8265 14.7817C38.8796 14.762 38.9409 14.7869 38.9633 14.8374Z" fill="#592F72"/>
<path fill-rule="evenodd" clip-rule="evenodd" d="M38.8105 17.1834C38.8554 17.1505 38.9211 17.1586 38.9573 17.2017L40.3667 18.8754C40.403 18.9184 40.396 18.98 40.3512 19.013C40.3063 19.0459 40.2406 19.0377 40.2043 18.9947L38.7949 17.321C38.7587 17.2779 38.7657 17.2163 38.8105 17.1834Z" fill="#592F72"/>
<path fill-rule="evenodd" clip-rule="evenodd" d="M42.4391 15.6952C42.4817 15.7327 42.4848 15.7948 42.446 15.8339L42.3688 15.7659L42.2916 15.698C42.3304 15.6589 42.3965 15.6576 42.4391 15.6952ZM42.2916 15.698L42.3688 15.7659C42.446 15.8339 42.446 15.8339 42.446 15.8339L42.4425 15.8375L42.4324 15.8476C42.4235 15.8564 42.4104 15.8694 42.3935 15.8862C42.3597 15.9196 42.3104 15.968 42.2488 16.0276C42.1255 16.1469 41.9523 16.3116 41.7526 16.4932C41.3545 16.8553 40.8463 17.289 40.4172 17.5631C40.3701 17.5932 40.305 17.581 40.2717 17.536C40.2385 17.4909 40.2497 17.4299 40.2968 17.3998C40.7105 17.1356 41.2082 16.7116 41.6053 16.3504C41.8032 16.1705 41.9749 16.0072 42.0972 15.889C42.1583 15.8298 42.207 15.782 42.2404 15.749C42.2571 15.7325 42.2699 15.7197 42.2786 15.711L42.2884 15.7012L42.2916 15.698Z" fill="#592F72"/>
<path fill-rule="evenodd" clip-rule="evenodd" d="M41.5999 13.4449C41.6447 13.4801 41.6517 13.542 41.6155 13.5832L41.5343 13.5195L41.4531 13.4558C41.4893 13.4146 41.5551 13.4097 41.5999 13.4449ZM41.4531 13.4558L41.5343 13.5195L41.6155 13.5832L41.6075 13.5923L41.5845 13.6183C41.5645 13.6409 41.5353 13.6738 41.4987 13.7149C41.4256 13.797 41.3226 13.9118 41.2035 14.0428C40.9656 14.3044 40.6622 14.6316 40.4027 14.8908C40.3637 14.9298 40.2976 14.9308 40.2551 14.8931C40.2127 14.8554 40.2098 14.7932 40.2488 14.7543C40.505 14.4984 40.8059 14.1741 41.0433 13.913C41.1619 13.7826 41.2644 13.6682 41.3372 13.5865C41.3736 13.5457 41.4026 13.513 41.4225 13.4905L41.4453 13.4647L41.4531 13.4558Z" fill="#592F72"/>
<path fill-rule="evenodd" clip-rule="evenodd" d="M43.1453 10.4546C43.1909 10.4889 43.1992 10.5507 43.1639 10.5927L43.0814 10.5306C43.1639 10.5927 43.164 10.5926 43.1639 10.5927L43.1629 10.594L43.1599 10.5975L43.1484 10.6109C43.1383 10.6227 43.1234 10.6399 43.1039 10.6622C43.065 10.7067 43.0076 10.7711 42.934 10.8513C42.7867 11.0118 42.5738 11.2355 42.3111 11.4891C41.7864 11.9958 41.0599 12.6247 40.2578 13.1067C40.2098 13.1355 40.145 13.1217 40.113 13.0758C40.0811 13.0299 40.0941 12.9693 40.1421 12.9405C40.9258 12.4695 41.6401 11.852 42.1596 11.3503C42.4191 11.0998 42.6292 10.879 42.7744 10.7209C42.847 10.6418 42.9033 10.5785 42.9413 10.535C42.9604 10.5133 42.9748 10.4965 42.9845 10.4853L42.9954 10.4725L42.9981 10.4694L42.9988 10.4685" fill="#592F72"/>
<path fill-rule="evenodd" clip-rule="evenodd" d="M41.1374 10.7044C41.191 10.7256 41.2174 10.7832 41.1963 10.8331L41.0992 10.7948C41.1963 10.8331 41.1963 10.8331 41.1963 10.8331L41.1962 10.8334L41.1959 10.834L41.195 10.8362L41.1914 10.8444C41.1883 10.8516 41.1837 10.8619 41.1777 10.8752C41.1657 10.9017 41.148 10.94 41.1248 10.9874C41.0785 11.082 41.0105 11.2134 40.9232 11.3609C40.7497 11.654 40.4961 12.0174 40.1815 12.279C40.1389 12.3144 40.0728 12.3099 40.034 12.2689C39.9952 12.2279 39.9982 12.1659 40.0408 12.1305C40.3303 11.8898 40.5707 11.5482 40.7401 11.262C40.8244 11.1197 40.8901 10.9928 40.9347 10.9016C40.957 10.856 40.9739 10.8194 40.9853 10.7943C40.9909 10.7818 40.9952 10.7722 40.998 10.7658L41.0011 10.7586L41.0018 10.7569L41.002 10.7565" fill="#592F72"/>
<path fill-rule="evenodd" clip-rule="evenodd" d="M41.2567 12.2182C41.2567 12.2182 41.2567 12.2182 41.2567 12.2182L41.2573 12.2184L41.2595 12.2192L41.2684 12.2222C41.2763 12.2248 41.2882 12.2288 41.3039 12.2339C41.3353 12.2443 41.3818 12.2593 41.4418 12.2782C41.5619 12.3159 41.7362 12.3687 41.9521 12.429C42.3842 12.5497 42.9825 12.7003 43.6476 12.8197C43.7045 12.8299 43.743 12.8813 43.7336 12.9346C43.7243 12.9878 43.6706 13.0227 43.6137 13.0124C42.9398 12.8914 42.3344 12.7391 41.8975 12.6171C41.679 12.556 41.5025 12.5025 41.3804 12.4642C41.3194 12.445 41.272 12.4296 41.2397 12.419C41.2236 12.4137 41.2112 12.4096 41.2029 12.4068L41.1933 12.4036L41.1908 12.4028L41.1899 12.4025C41.1899 12.4025 41.1899 12.4025 41.2233 12.3103L41.1899 12.4025C41.1353 12.3838 41.1059 12.3274 41.1244 12.2765C41.1428 12.2256 41.202 12.1995 41.2567 12.2182Z" fill="#592F72"/>
<path d="M37.1505 9.45932C36.9219 9.04175 36.3789 8.86886 35.9406 9.07276C35.5022 9.27666 35.3326 9.78274 35.5612 10.2003C35.7897 10.6179 36.3328 10.7908 36.7711 10.5869C37.21 10.3805 37.3791 9.8769 37.1505 9.45932Z" fill="#605575"/>
<path fill-rule="evenodd" clip-rule="evenodd" d="M35.8915 8.98522C36.3807 8.75764 36.9869 8.95043 37.2423 9.41691C37.4975 9.88323 37.3085 10.4453 36.819 10.6755L36.8186 10.6757C36.3293 10.9033 35.7231 10.7105 35.4678 10.244C35.2127 9.77795 35.4018 9.21301 35.8915 8.98522ZM37.0571 9.50303C36.8553 9.13436 36.3754 8.98138 35.988 9.1616C35.601 9.34162 35.4509 9.78883 35.6529 10.1579C35.8547 10.5265 36.3345 10.6795 36.7219 10.4994C37.1099 10.3168 37.259 9.87181 37.0571 9.50303Z" fill="#605575"/>
<path d="M36.8851 13.2604C37.0333 12.8203 36.7707 12.341 36.2984 12.1899C35.8261 12.0389 35.323 12.2732 35.1747 12.7133C35.0264 13.1535 35.2891 13.6327 35.7614 13.7838C36.2337 13.9349 36.7368 13.7006 36.8851 13.2604Z" fill="#FFF9EF"/>
<path fill-rule="evenodd" clip-rule="evenodd" d="M35.2741 12.7464C35.1431 13.1353 35.3752 13.5587 35.7925 13.6922C36.2098 13.8257 36.6543 13.6186 36.7853 13.2298C36.9163 12.8409 36.6842 12.4174 36.2669 12.284C35.8496 12.1505 35.4052 12.3575 35.2741 12.7464ZM35.7299 13.8778C35.2026 13.7092 34.9094 13.1741 35.0749 12.6827C35.2405 12.1913 35.8022 11.9296 36.3295 12.0983C36.8568 12.267 37.1501 12.8021 36.9845 13.2935C36.819 13.7849 36.2573 14.0465 35.7299 13.8778Z" fill="#FFF9EF"/>
<path d="M43.8785 10.1593C43.6499 9.7417 43.1069 9.56881 42.6685 9.77271C42.2302 9.97661 42.0606 10.4827 42.2891 10.9003C42.5177 11.3178 43.0608 11.4907 43.4991 11.2868C43.9374 11.0829 44.1066 10.5793 43.8785 10.1593Z" fill="#605575"/>
<path fill-rule="evenodd" clip-rule="evenodd" d="M42.6181 9.68517C43.1073 9.45759 43.7136 9.65038 43.9689 10.1169L43.9691 10.1172C44.2233 10.5854 44.035 11.1478 43.5452 11.3757C43.056 11.6033 42.4498 11.4105 42.1944 10.944C41.9393 10.4779 42.1284 9.91296 42.6181 9.68517ZM43.7837 10.2028C43.5818 9.83428 43.102 9.68135 42.7146 9.86155C42.3276 10.0416 42.1775 10.4888 42.3796 10.8579C42.5814 11.2265 43.0612 11.3795 43.4487 11.1993C43.8355 11.0194 43.9854 10.5747 43.7837 10.2028Z" fill="#605575"/>
<path d="M41.8949 10.4241C41.6663 10.0066 41.1232 9.83367 40.6849 10.0376C40.2466 10.2415 40.0769 10.7476 40.3055 11.1651C40.5341 11.5827 41.0771 11.7556 41.5155 11.5517C41.9538 11.3478 42.1234 10.8417 41.8949 10.4241Z" fill="#FFF9EF"/>
<path fill-rule="evenodd" clip-rule="evenodd" d="M40.6358 9.95002C41.125 9.72244 41.7312 9.91523 41.9866 10.3817C42.2417 10.8478 42.0526 11.4127 41.5629 11.6405C41.0736 11.8681 40.4674 11.6753 40.2121 11.2088C39.957 10.7427 40.1461 10.1778 40.6358 9.95002ZM41.8014 10.4678C41.5996 10.0992 41.1197 9.94618 40.7323 10.1264C40.3453 10.3064 40.1952 10.7536 40.3972 11.1227C40.599 11.4914 41.0789 11.6444 41.4663 11.4641C41.8533 11.2841 42.0035 10.8369 41.8014 10.4678Z" fill="#FFF9EF"/>
<path d="M44.4244 12.5429C44.1959 12.1253 43.6528 11.9524 43.2145 12.1563C42.7761 12.3602 42.6065 12.8663 42.8351 13.2839C43.0637 13.7015 43.6067 13.8744 44.0451 13.6705C44.4834 13.4666 44.6525 12.963 44.4244 12.5429Z" fill="#FFF9EF"/>
<path fill-rule="evenodd" clip-rule="evenodd" d="M43.1653 12.0688C43.6546 11.8412 44.2608 12.034 44.5161 12.5005L44.5163 12.5008C44.7705 12.969 44.5822 13.5314 44.0924 13.7593C43.6032 13.9869 42.997 13.7941 42.7416 13.3276C42.4865 12.8615 42.6756 12.2966 43.1653 12.0688ZM44.3309 12.5865C44.129 12.2179 43.6492 12.065 43.2619 12.2452C42.8749 12.4252 42.7247 12.8724 42.9268 13.2415C43.1286 13.6102 43.6085 13.7631 43.9959 13.5829C44.3827 13.403 44.5327 12.9583 44.3309 12.5865Z" fill="#FFF9EF"/>
<path d="M37.2708 15.14C37.0422 14.7224 36.4992 14.5496 36.0609 14.7535C35.6225 14.9574 35.4529 15.4634 35.6815 15.881C35.91 16.2986 36.4531 16.4715 36.8914 16.2676C37.3303 16.0612 37.4994 15.5576 37.2708 15.14Z" fill="#605575"/>
<path fill-rule="evenodd" clip-rule="evenodd" d="M36.0117 14.6659C36.5009 14.4383 37.1071 14.6311 37.3625 15.0976C37.6177 15.5639 37.4287 16.126 36.9392 16.3562L36.9388 16.3564C36.4496 16.584 35.8433 16.3912 35.588 15.9247C35.3329 15.4586 35.522 14.8937 36.0117 14.6659ZM37.1773 15.1837C36.9755 14.8151 36.4957 14.6621 36.1082 14.8423C35.7212 15.0223 35.5711 15.4695 35.7731 15.8386C35.9749 16.2072 36.4547 16.3602 36.8421 16.1801C37.2301 15.9975 37.3792 15.5525 37.1773 15.1837Z" fill="#605575"/>
<path d="M40.4734 8.00267C40.2448 7.5851 39.7017 7.41221 39.2634 7.61611C38.8251 7.82001 38.6554 8.32609 38.884 8.74367C39.1126 9.16125 39.6556 9.33413 40.094 9.13023C40.5323 8.92633 40.7014 8.42272 40.4734 8.00267Z" fill="#605575"/>
<path fill-rule="evenodd" clip-rule="evenodd" d="M39.2143 7.53126C39.7035 7.30367 40.3097 7.49646 40.5651 7.96295L40.5652 7.96324C40.8195 8.43151 40.6312 8.99391 40.1414 9.22175C39.6521 9.44934 39.0459 9.25655 38.7906 8.79007C38.5354 8.32399 38.7246 7.75904 39.2143 7.53126ZM40.3798 8.04893C40.178 7.68036 39.6982 7.52744 39.3108 7.70763C38.9238 7.88765 38.7737 8.33487 38.9757 8.70394C39.1775 9.07261 39.6574 9.2256 40.0448 9.04538C40.4316 8.86545 40.5816 8.42073 40.3798 8.04893Z" fill="#605575"/>
<path d="M42.3299 13.1537C42.1013 12.7361 41.5583 12.5632 41.1199 12.7671C40.6816 12.971 40.512 13.4771 40.7406 13.8947C40.9691 14.3122 41.5122 14.4851 41.9505 14.2812C42.3894 14.0749 42.5585 13.5713 42.3299 13.1537Z" fill="#605575"/>
<path fill-rule="evenodd" clip-rule="evenodd" d="M41.0709 12.6769C41.5601 12.4493 42.1663 12.6421 42.4217 13.1085C42.6769 13.5749 42.4879 14.137 41.9984 14.3672L41.998 14.3674C41.5088 14.5949 40.9026 14.4021 40.6472 13.9357C40.3921 13.4696 40.5812 12.9046 41.0709 12.6769ZM42.2365 13.1947C42.0347 12.826 41.5549 12.673 41.1674 12.8532C40.7804 13.0333 40.6303 13.4805 40.8323 13.8495C41.0341 14.2182 41.5139 14.3711 41.9013 14.1911C42.2893 14.0085 42.4384 13.5634 42.2365 13.1947Z" fill="#605575"/>
<path d="M40.1472 10.6722C39.8623 10.153 39.1901 9.9382 38.645 10.1924C38.1 10.4466 37.8892 11.073 38.1742 11.5922C38.4591 12.1114 39.1313 12.3262 39.6763 12.072C40.2187 11.8173 40.4294 11.1909 40.1472 10.6722Z" fill="#605575"/>
<path fill-rule="evenodd" clip-rule="evenodd" d="M38.5958 10.1049C39.1919 9.82687 39.9272 10.0618 40.2388 10.6297L40.239 10.63C40.5476 11.1972 40.3172 11.8821 39.724 12.1607L39.7237 12.1608C39.1276 12.4388 38.3923 12.2039 38.0807 11.636C37.7691 11.0681 37.9997 10.3829 38.5958 10.1049ZM40.0537 10.7159C39.7954 10.2454 39.1864 10.0509 38.6925 10.2812C38.1986 10.5115 38.0076 11.0792 38.2658 11.5497C38.524 12.0202 39.133 12.2148 39.6269 11.9846C40.1183 11.7537 40.3094 11.186 40.0537 10.7159Z" fill="#605575"/>
<path d="M40.0169 13.6065C39.7159 13.0582 39.0024 12.8299 38.4269 13.0984C37.8514 13.367 37.6278 14.0294 37.9283 14.5801C38.2293 15.1284 38.9427 15.3567 39.5182 15.0882C40.0964 14.8202 40.3205 14.1553 40.0169 13.6065Z" fill="#FFF9EF"/>
<path fill-rule="evenodd" clip-rule="evenodd" d="M38.3777 13.0109C39.0044 12.7185 39.7808 12.9671 40.1086 13.5638C40.4391 14.1615 40.195 14.8853 39.5657 15.177C38.9391 15.4694 38.1626 15.2208 37.835 14.6239L37.8348 14.6237C37.5079 14.0244 37.7511 13.3033 38.3777 13.0109ZM39.9236 13.6503C39.6493 13.1506 38.9988 12.9425 38.4745 13.1872C37.9502 13.4319 37.7461 14.0355 38.02 14.5377C38.2944 15.0373 38.9448 15.2454 39.4691 15.0007L39.4693 15.0006C39.9962 14.7563 40.2003 14.1505 39.9238 13.6506L39.9236 13.6503Z" fill="#FFF9EF"/>
<path d="M39.9196 16.7792C39.6186 16.231 38.9051 16.0026 38.3296 16.2712C37.7541 16.5397 37.5304 17.2021 37.8309 17.7529C38.1319 18.3011 38.8454 18.5295 39.4209 18.261C39.9996 17.9905 40.2206 17.3275 39.9196 16.7792Z" fill="#FFF9EF"/>
<path fill-rule="evenodd" clip-rule="evenodd" d="M38.2818 16.1837C38.9085 15.8912 39.685 16.1399 40.0127 16.7367C40.3404 17.3336 40.0997 18.0554 39.47 18.3497L39.4699 18.3497C38.8432 18.6422 38.0667 18.3935 37.739 17.7967L37.7389 17.7965C37.4119 17.1972 37.6552 16.4761 38.2818 16.1837ZM39.8277 16.8231C39.5533 16.3234 38.9029 16.1153 38.3786 16.3599C37.8542 16.6046 37.6502 17.2083 37.9241 17.7105C38.1985 18.2101 38.8489 18.4181 39.3731 18.1735C39.9007 17.9268 40.1019 17.3227 39.8277 16.8231Z" fill="#FFF9EF"/>
<path d="M43.4126 15.2739C43.1116 14.7257 42.4008 14.4979 41.8226 14.7659C41.2471 15.0344 41.0235 15.6968 41.324 16.2476C41.625 16.7958 42.3385 17.0242 42.914 16.7557C43.49 16.4846 43.7136 15.8222 43.4126 15.2739Z" fill="#605575"/>
<path fill-rule="evenodd" clip-rule="evenodd" d="M41.7723 14.681C42.4014 14.3893 43.1753 14.6372 43.503 15.2341C43.8309 15.8313 43.587 16.5522 42.9605 16.847L42.9602 16.8471C42.3335 17.1396 41.557 16.8909 41.2293 16.2941L41.2292 16.2939C40.9022 15.6946 41.1455 14.9735 41.7721 14.6811L41.7723 14.681L41.7723 14.681ZM41.8687 14.8574C41.3445 15.1021 41.1405 15.7057 41.4144 16.2079C41.6887 16.7074 42.339 16.9155 42.8633 16.6709C43.3887 16.4236 43.5921 15.8197 43.318 15.3205C43.0437 14.8209 42.3959 14.6131 41.8687 14.8574Z" fill="#605575"/>
<path fill-rule="evenodd" clip-rule="evenodd" d="M48.8554 10.1603C48.8926 10.1199 48.8871 10.0579 48.843 10.0218L48.8554 10.1603ZM48.8554 10.1603L48.8549 10.1609L48.8531 10.1629L48.8455 10.1712C48.8388 10.1787 48.8287 10.19 48.8156 10.2049C48.7893 10.2349 48.7506 10.2797 48.7017 10.3383C48.6038 10.4557 48.4649 10.6287 48.3017 10.8503C47.9751 11.2937 47.5516 11.9309 47.1639 12.706C46.3877 14.2578 45.7604 16.3517 46.3289 18.5453C46.3427 18.5983 46.3084 18.6506 46.2524 18.6621C46.1964 18.6736 46.1399 18.64 46.1261 18.587C45.5417 16.3319 46.1884 14.1902 46.9745 12.6187C47.368 11.832 47.7977 11.1856 48.129 10.7357C48.2947 10.5108 48.436 10.3347 48.5361 10.2148C48.5861 10.1548 48.6258 10.1088 48.6531 10.0776C48.6668 10.0621 48.6774 10.0502 48.6846 10.0422L48.6929 10.033L48.6951 10.0306L48.6958 10.0298C48.6959 10.0298 48.6959 10.0297 48.7756 10.095L48.6958 10.0298C48.7331 9.98936 48.799 9.98571 48.843 10.0218" fill="#592F72"/>
<path d="M48.8866 8.30419L49.8773 7.25791L49.6618 8.35203L50.6692 7.92462L50.3313 8.91646L51.461 8.59132L50.4702 9.6376C50.6422 10.211 50.5175 10.8473 50.072 11.315C49.373 12.0527 48.1538 12.102 47.3529 11.4257C46.5493 10.7489 46.4646 9.60106 47.1632 8.86583C47.6065 8.39513 48.2619 8.20731 48.8866 8.30419Z" fill="#605575"/>
<path fill-rule="evenodd" clip-rule="evenodd" d="M49.9248 7.1699C49.9672 7.19015 49.9907 7.2342 49.9821 7.27748L49.8037 8.18324L50.6263 7.83423C50.6638 7.8183 50.7085 7.82511 50.7398 7.85156C50.7712 7.87801 50.7834 7.91905 50.7708 7.95601L50.495 8.76583L51.4302 8.49666C51.4748 8.48381 51.5239 8.50086 51.55 8.53829C51.5761 8.57572 51.5728 8.62429 51.5419 8.65689L50.5876 9.66467C50.746 10.2546 50.6094 10.9013 50.1529 11.3806C49.4161 12.1581 48.1309 12.2102 47.2865 11.4972M48.8464 8.19858L49.8007 7.19084C49.8316 7.15823 49.8824 7.14966 49.9248 7.1699M49.7076 7.58822L48.9675 8.36976C48.9444 8.3942 48.9093 8.40568 48.8744 8.40026C48.2827 8.30849 47.6631 8.48649 47.2443 8.93121L47.244 8.93151C46.5835 9.62672 46.6635 10.7124 47.4236 11.3526L47.4237 11.3527C48.1809 11.9922 49.3342 11.9457 49.9954 11.2479L49.9956 11.2477C50.4165 10.8058 50.5348 10.2042 50.372 9.66114C50.3623 9.62903 50.3705 9.59495 50.3936 9.57052L51.1339 8.78871L50.3664 9.00962C50.3292 9.02034 50.2881 9.01034 50.2602 8.98374C50.2322 8.95714 50.2221 8.91843 50.234 8.88356L50.4989 8.10575L49.709 8.44091C49.6735 8.45594 49.6316 8.45079 49.6005 8.42759C49.5693 8.40439 49.5541 8.36705 49.5613 8.33095L49.7076 7.58822Z" fill="#605575"/>
<path d="M44.4718 23.4814C47.7205 24.146 50.8577 22.2224 51.479 19.1851C52.1003 16.1478 49.9704 13.1468 46.7217 12.4823C43.473 11.8177 40.3358 13.7413 39.7145 16.7786C39.0932 19.8159 41.2231 22.8169 44.4718 23.4814Z" fill="#B994DA"/>
<path fill-rule="evenodd" clip-rule="evenodd" d="M46.7039 12.5761C43.5119 11.9231 40.4293 13.8131 39.8188 16.7975C39.2084 19.7819 41.3011 22.7305 44.4932 23.3835C47.6853 24.0364 50.7678 22.1464 51.3783 19.1621C51.9888 16.1777 49.896 13.229 46.7039 12.5761ZM39.6137 16.7555C40.2459 13.6653 43.4378 11.7082 46.7432 12.3843C50.0485 13.0605 52.2155 16.1137 51.5834 19.204C50.9513 22.2943 47.7593 24.2513 44.454 23.5752C41.1487 22.8991 38.9816 19.8458 39.6137 16.7555Z" fill="#592F72"/>
<path fill-rule="evenodd" clip-rule="evenodd" d="M46.0734 12.2869C46.131 12.2869 46.1789 12.3309 46.1804 12.3851C46.2994 16.6767 45.7689 19.9733 44.5752 23.5128C43.7317 26.0078 43.4178 28.6947 43.3152 30.7601C43.2639 31.7923 43.2654 32.6682 43.2798 33.2859C43.2869 33.5947 43.2973 33.8389 43.3059 34.0057C43.3102 34.0891 43.314 34.1532 43.3168 34.1963C43.3181 34.2179 43.3193 34.2342 43.32 34.2451L43.3209 34.2574L43.3212 34.2611C43.3212 34.2611 43.3212 34.2613 43.217 34.2657C43.1129 34.2701 43.1129 34.27 43.1129 34.27L43.1128 34.2689L43.1126 34.2656L43.1117 34.2528C43.1109 34.2416 43.1097 34.2249 43.1083 34.2029C43.1055 34.1591 43.1017 34.0942 43.0973 34.01C43.0887 33.8416 43.0782 33.5956 43.071 33.285C43.0566 32.6637 43.055 31.7832 43.1066 30.7457C43.2096 28.6718 43.525 25.9663 44.3761 23.449C45.5627 19.9303 46.09 16.6553 45.9717 12.385C45.9702 12.3308 46.0157 12.2869 46.0734 12.2869ZM43.2244 34.3637C43.1669 34.3661 43.117 34.3241 43.1129 34.27L43.217 34.2657L43.3212 34.2613C43.3253 34.3155 43.282 34.3613 43.2244 34.3637Z" fill="#592F72"/>
<path fill-rule="evenodd" clip-rule="evenodd" d="M40.5422 14.6636C40.5644 14.6141 40.6256 14.592 40.6788 14.6142L45.97 16.8219C46.0232 16.8441 46.0483 16.9022 46.0261 16.9517C46.0039 17.0011 45.9427 17.0232 45.8895 17.001L40.5983 14.7933C40.5451 14.7711 40.52 14.713 40.5422 14.6636Z" fill="#592F72"/>
<path fill-rule="evenodd" clip-rule="evenodd" d="M50.267 14.4252C50.2891 14.4758 50.2638 14.5326 50.2105 14.552L46.0468 16.0694C45.9935 16.0888 45.9324 16.0636 45.9104 16.013C45.8883 15.9624 45.9136 15.9056 45.9669 15.8862L50.1306 14.3688C50.1839 14.3494 50.2449 14.3746 50.267 14.4252Z" fill="#592F72"/>
<path fill-rule="evenodd" clip-rule="evenodd" d="M39.6185 16.7482C39.6353 16.6968 39.6936 16.669 39.7488 16.6862L45.7309 18.5459C45.7861 18.5631 45.8172 18.6187 45.8004 18.6701C45.7836 18.7215 45.7253 18.7493 45.6701 18.7321L39.688 16.8724C39.6328 16.8552 39.6017 16.7997 39.6185 16.7482Z" fill="#592F72"/>
<path fill-rule="evenodd" clip-rule="evenodd" d="M39.5221 18.1686C39.538 18.1169 39.5958 18.0882 39.6512 18.1045L45.489 19.8214C45.5444 19.8377 45.5765 19.8929 45.5606 19.9445C45.5447 19.9962 45.4869 20.0249 45.4315 20.0086L39.5937 18.2917C39.5383 18.2754 39.5062 18.2203 39.5221 18.1686Z" fill="#592F72"/>
<path fill-rule="evenodd" clip-rule="evenodd" d="M51.483 19.5781C51.4931 19.6317 51.4553 19.6817 51.3985 19.6897L45.3585 20.5504C45.3017 20.5585 45.2475 20.5216 45.2374 20.468C45.2273 20.4144 45.2651 20.3644 45.3219 20.3563L51.3619 19.4957C51.4187 19.4876 51.4729 19.5245 51.483 19.5781Z" fill="#592F72"/>
<path d="M40.876 22.0281C39.8346 21.0734 37.7953 23.3679 36.7673 24.677C35.9475 25.7222 34.5739 26.5665 34.0368 26.8764C34.0339 26.608 34.0288 26.3365 34.0264 26.0657C34.0114 24.981 33.9954 23.8473 34.0209 22.6319C34.8916 22.4958 37.9633 21.9138 38.9142 20.3753C39.7081 19.093 37.9953 18.5392 36.2348 20.4401C35.6797 21.0398 34.5427 21.4948 34.0519 21.6725C34.0764 21.0544 34.1139 20.4131 34.1708 19.7449C34.4267 19.3286 34.8872 18.7739 35.6743 18.3864C37.0983 17.6862 39.4213 16.1193 38.0534 15.3734C36.8569 14.7192 35.203 17.0281 34.3494 18.0098C34.41 17.5251 34.482 17.0249 34.5619 16.5133C34.6076 16.3707 34.9637 15.2358 35.4475 14.1631C35.9634 13.0145 36.9068 10.6916 35.2518 10.7033C33.7098 10.7149 34.296 15.1739 34.1226 16.3178L34.1252 16.3184C34.0968 16.498 34.0683 16.6776 34.0403 16.8547C33.7095 15.8059 32.8896 13.5935 31.965 13.9529C31.0167 14.3203 31.7435 15.8029 32.4415 16.659C32.9325 17.2615 33.5108 18.124 33.7741 19.0045C33.6527 20.2441 33.5913 21.3929 33.5656 22.4744C33.0285 20.9662 31.6014 17.3189 30.5295 17.7254C29.6069 18.0748 30.1511 19.7905 30.8983 21.2412C31.4955 22.4011 32.9768 23.6157 33.5511 24.444C33.5539 24.9956 33.5624 25.533 33.5677 26.0594C33.5716 26.4439 33.5766 26.8235 33.5821 27.2006C32.2937 26.0125 31.3997 23.2468 30.234 22.7379C28.9995 22.2022 28.5452 23.3324 30.0037 25.0085C31.1854 26.3678 32.9577 27.4256 33.5848 28.0895C33.5822 29.5027 33.5351 30.9043 33.3426 32.3842C33.3277 32.4971 33.4105 32.6041 33.5295 32.6285C33.5348 32.6296 33.54 32.6306 33.5453 32.6317C33.6711 32.6497 33.787 32.5679 33.8028 32.4501C33.9988 30.9399 34.0478 29.5156 34.0497 28.079C34.9436 27.5331 36.3201 26.9572 37.6343 26.3093C39.0845 25.5887 41.8898 22.9565 40.876 22.0281Z" fill="#FFF0D9"/>
<path d="M46.9945 17.4684C48.2614 17.0246 49.1839 19.7859 49.5961 21.3122C49.9226 22.5301 50.8046 23.7792 51.1603 24.2486C51.2633 24.0147 51.3662 23.7808 51.4723 23.545C51.8908 22.6031 52.3258 21.6208 52.7569 20.5502C52.0489 20.1067 49.5831 18.4538 49.324 16.7578C49.1092 15.3439 50.8101 15.4987 51.6394 17.8134C51.9003 18.5441 52.7241 19.3641 53.0876 19.7011C53.2964 19.1515 53.5019 18.5781 53.7023 17.9753C53.6338 17.5158 53.4374 16.8602 52.8944 16.2289C51.9105 15.0877 50.4697 12.8539 51.9419 12.7122C53.2318 12.5872 53.8143 15.2197 54.1937 16.3943C54.3206 15.949 54.4458 15.4853 54.5655 15.0077C54.5806 14.8665 54.6893 13.7428 54.6698 12.6264C54.6469 11.432 54.69 9.05364 56.129 9.6802C57.4695 10.2634 55.299 13.9397 55.0209 15.003L55.0183 15.0024C54.976 15.1689 54.9358 15.3383 54.8914 15.5018C55.5709 14.7112 57.1106 13.0819 57.7826 13.7421C58.4737 14.4165 57.2864 15.4406 56.3576 15.9279C55.7031 16.273 54.8777 16.8072 54.3217 17.4788C53.9671 18.6063 53.5921 19.6318 53.2122 20.5867C54.2419 19.4711 56.8475 16.8187 57.6327 17.5716C58.3067 18.2219 57.1936 19.5161 56.0002 20.5029C55.0457 21.2914 53.3028 21.8001 52.4904 22.3112C52.282 22.7913 52.0761 23.2591 51.8728 23.7145C51.7248 24.0473 51.58 24.3782 51.4357 24.7066C53.0014 24.1488 54.8151 22.0682 56.0205 22.0599C57.2976 22.0507 57.2727 23.2096 55.3772 24.1275C53.8391 24.8738 51.8987 25.1361 51.1033 25.4833C50.5782 26.7175 50.0985 27.9584 49.7149 29.3221C49.6852 29.4267 49.5733 29.4888 49.4623 29.4661C49.457 29.465 49.4517 29.4639 49.4464 29.4628C49.329 29.4311 49.2588 29.3163 49.2895 29.2067C49.6818 27.814 50.1682 26.5538 50.7032 25.2984C50.128 24.4881 49.1378 23.4717 48.2327 22.4162C47.2336 21.241 45.7629 17.9015 46.9945 17.4684Z" fill="#6ECBD2"/>
<path d="M60.5555 24.9309C57.8586 25.4041 55.1658 25.6284 53.5024 26.1792C53.5024 26.1792 54.5798 21.3703 59.3843 18.9822C64.1889 16.5942 69.5884 17.5854 69.5884 17.5854C69.5884 17.5854 67.9406 23.6347 60.5555 24.9309Z" fill="#592F72"/>
<path fill-rule="evenodd" clip-rule="evenodd" d="M62.6593 20.054C62.6801 20.105 62.6535 20.1612 62.5997 20.1794C55.2906 22.6623 52.5662 26.8193 51.6611 30.3464C51.2078 32.1128 51.21 33.7249 51.3256 34.8956C51.3834 35.4809 51.4695 35.9553 51.541 36.283C51.5767 36.4468 51.6088 36.5739 51.6319 36.6597C51.6434 36.7027 51.6527 36.7353 51.659 36.757C51.6622 36.7678 51.6647 36.776 51.6663 36.7813L51.6681 36.7873L51.6686 36.7889C51.6686 36.789 51.6686 36.789 51.663 36.7904L51.6686 36.7889C51.6851 36.8413 51.6536 36.8951 51.5983 36.9092C51.5431 36.9233 51.4849 36.8923 51.4685 36.8399L51.5685 36.8145C51.4685 36.8399 51.4685 36.8398 51.4684 36.8397L51.4682 36.8392L51.4677 36.8374L51.4656 36.8305C51.4638 36.8245 51.4611 36.8158 51.4578 36.8043C51.4511 36.7813 51.4414 36.7473 51.4295 36.703C51.4057 36.6145 51.3729 36.4845 51.3365 36.3175C51.2636 35.9837 51.1763 35.502 51.1177 34.9087C51.0005 33.7222 50.9982 32.0877 51.4581 30.2956C52.3792 26.7059 55.1515 22.4991 62.5242 19.9946C62.5779 19.9764 62.6384 20.0029 62.6593 20.054Z" fill="#592F72"/>
<path fill-rule="evenodd" clip-rule="evenodd" d="M69.6892 17.6049C69.6796 17.6581 69.6257 17.6928 69.5689 17.6823L69.5682 17.6822L69.5655 17.6817L69.5543 17.6797C69.5443 17.678 69.5292 17.6754 69.5092 17.6722C69.4692 17.6656 69.4096 17.6562 69.3319 17.6451C69.1764 17.6229 68.9485 17.5937 68.6597 17.5661C68.0821 17.5108 67.2615 17.4618 66.2916 17.487C64.3507 17.5375 61.8167 17.885 59.4328 19.0699C57.053 20.2527 55.595 22.0358 54.7315 23.5255C54.2998 24.2703 54.0172 24.9408 53.8426 25.4248C53.7554 25.6667 53.6951 25.8619 53.6568 25.9962C53.6536 26.0075 53.6506 26.0183 53.6477 26.0286C54.4622 25.7807 55.4892 25.6005 56.62 25.4297C57.0027 25.3719 57.3973 25.3151 57.8003 25.2571C58.6835 25.1301 59.6067 24.9973 60.5316 24.835C60.5879 24.8251 60.6434 24.8603 60.6554 24.9136C60.6675 24.9669 60.6315 25.0181 60.5751 25.028C59.6469 25.1909 58.7179 25.3245 57.833 25.4518C57.431 25.5096 57.038 25.5661 56.6584 25.6235C55.4398 25.8076 54.3592 26.0003 53.5372 26.2725C53.5016 26.2843 53.4614 26.2767 53.4324 26.2527C53.4034 26.2287 53.3903 26.192 53.3981 26.1572L53.5003 26.1798C53.3981 26.1572 53.3981 26.1572 53.3981 26.1572L53.3982 26.1568L53.3983 26.156L53.399 26.1531L53.4016 26.1421C53.4039 26.1325 53.4073 26.1184 53.4119 26.1001C53.4212 26.0635 53.4354 26.0098 53.455 25.9408C53.4944 25.8028 53.5559 25.6036 53.6447 25.3574C53.8223 24.8651 54.1093 24.1842 54.5475 23.4282C55.4238 21.9165 56.9067 20.1011 59.3315 18.8958C61.7521 17.6927 64.3202 17.3418 66.2803 17.2908C67.2608 17.2653 68.0904 17.3149 68.6754 17.3708C68.9679 17.3988 69.1993 17.4284 69.3579 17.4511C69.4372 17.4624 69.4983 17.472 69.5398 17.4788C69.5605 17.4822 69.5763 17.4849 69.587 17.4868L69.5992 17.4889L69.6024 17.4895L69.6035 17.4897C69.6036 17.4897 69.6037 17.4897 69.5863 17.586L69.6035 17.4897C69.6604 17.5001 69.6988 17.5517 69.6892 17.6049Z" fill="#592F72"/>
<path d="M50.9793 34.2797C53.7158 32.6019 54.4281 29.1198 52.5703 26.5022C50.7124 23.8846 46.988 23.1228 44.2516 24.8005C41.5151 26.4783 40.8028 29.9604 42.6606 32.578C44.5184 35.1956 48.2429 35.9575 50.9793 34.2797Z" fill="#FFF0D9"/>
<path fill-rule="evenodd" clip-rule="evenodd" d="M44.3093 24.8804C41.6205 26.529 40.9206 29.9504 42.7461 32.5223C44.5715 35.0943 48.231 35.8428 50.9198 34.1943C53.6085 32.5458 54.3084 29.1244 52.483 26.5524C50.6575 23.9804 46.998 23.2319 44.3093 24.8804ZM42.5733 32.6282C40.6831 29.965 41.4078 26.4222 44.192 24.7152C46.9762 23.0081 50.7655 23.7833 52.6557 26.4465C54.5459 29.1097 53.8212 32.6525 51.0371 34.3595C48.2529 36.0666 44.4635 35.2914 42.5733 32.6282Z" fill="#592F72"/>
<path fill-rule="evenodd" clip-rule="evenodd" d="M49.4153 24.1109C49.4683 24.1335 49.4929 24.1918 49.4702 24.241C47.6845 28.1219 46.8835 31.341 46.593 35.043C46.3873 37.6923 45.6149 40.3043 44.8953 42.252C44.5353 43.2264 44.1881 44.0355 43.9309 44.6013C43.8022 44.8842 43.696 45.1062 43.6219 45.2577C43.5849 45.3335 43.5559 45.3916 43.5361 45.4308C43.5261 45.4505 43.5186 45.4654 43.5134 45.4754L43.5076 45.4868L43.506 45.4897L43.5055 45.4907C43.5055 45.4908 43.5055 45.4908 43.4114 45.4459C43.3174 45.401 43.3174 45.401 43.3174 45.4009L43.3178 45.4001L43.3192 45.3974L43.3248 45.3865C43.3298 45.3768 43.3372 45.3622 43.347 45.3429C43.3664 45.3043 43.3951 45.2469 43.4318 45.1719C43.5052 45.0218 43.6106 44.8013 43.7385 44.5201C43.9943 43.9577 44.3396 43.1528 44.6978 42.1833C45.4145 40.2435 46.1808 37.6492 46.3848 35.0235C46.6769 31.2995 47.4836 28.0593 49.2782 24.1591C49.3009 24.1099 49.3622 24.0883 49.4153 24.1109ZM43.4114 45.4459L43.3174 45.4009C43.2924 45.4491 43.3142 45.5083 43.3661 45.5331C43.4181 45.5579 43.4805 45.5389 43.5055 45.4907L43.4114 45.4459Z" fill="#592F72"/>
<path fill-rule="evenodd" clip-rule="evenodd" d="M53.5701 28.4751C53.5711 28.5293 53.5252 28.5729 53.4676 28.5724L47.7371 28.5255C47.6794 28.5251 47.6319 28.4808 47.6308 28.4266C47.6298 28.3724 47.6757 28.3288 47.7334 28.3293L53.4639 28.3761C53.5215 28.3766 53.5691 28.4209 53.5701 28.4751Z" fill="#592F72"/>
<path fill-rule="evenodd" clip-rule="evenodd" d="M44.7179 24.434C44.7581 24.3961 44.8242 24.3969 44.8655 24.4356L48.099 27.4662C48.1403 27.5049 48.1413 27.5671 48.1011 27.605C48.061 27.6428 47.9949 27.6421 47.9535 27.6033L44.7201 24.5728C44.6787 24.534 44.6777 24.4719 44.7179 24.434Z" fill="#592F72"/>
<path fill-rule="evenodd" clip-rule="evenodd" d="M53.6009 30.7562C53.5962 30.8101 53.5457 30.849 53.4883 30.8431L47.2537 30.2038C47.1963 30.1979 47.1535 30.1495 47.1583 30.0956C47.163 30.0417 47.2135 30.0028 47.2709 30.0087L53.5055 30.648C53.5629 30.6539 53.6057 30.7023 53.6009 30.7562Z" fill="#592F72"/>
<path fill-rule="evenodd" clip-rule="evenodd" d="M53.1289 32.1015C53.1233 32.1552 53.0721 32.1933 53.0147 32.1866L46.9717 31.4732C46.9143 31.4664 46.8724 31.4173 46.8781 31.3635C46.8838 31.3098 46.9349 31.2717 46.9923 31.2784L53.0354 31.9918C53.0927 31.9986 53.1346 32.0477 53.1289 32.1015Z" fill="#592F72"/>
<path fill-rule="evenodd" clip-rule="evenodd" d="M41.5759 28.6988C41.6062 28.6535 41.6706 28.6408 41.7196 28.6705L46.937 31.8314C46.9861 31.8611 47.0013 31.9219 46.9709 31.9672C46.9406 32.0126 46.8763 32.0252 46.8272 31.9955L41.6098 28.8347C41.5608 28.805 41.5456 28.7441 41.5759 28.6988Z" fill="#592F72"/>
<path fill-rule="evenodd" clip-rule="evenodd" d="M32.3817 10.1118C32.4389 10.1199 32.4794 10.17 32.4723 10.2236L32.3687 10.2088C32.4723 10.2236 32.4723 10.2235 32.4723 10.2236L32.4721 10.2248L32.4717 10.228L32.47 10.24C32.4684 10.2505 32.4661 10.2659 32.4629 10.2861C32.4566 10.3264 32.4467 10.3854 32.4327 10.4611C32.4046 10.6125 32.3598 10.8306 32.2928 11.0986C32.1587 11.6346 31.9355 12.371 31.5787 13.1736C30.8658 14.777 29.6146 16.6548 27.4639 17.7159C27.4134 17.7408 27.3499 17.722 27.322 17.6739C27.2942 17.6257 27.3126 17.5665 27.363 17.5416C29.4553 16.5093 30.6818 14.6771 31.3857 13.0939C31.7373 12.3031 31.9573 11.5771 32.0894 11.0489C32.1555 10.7849 32.1995 10.5705 32.2269 10.4225C32.2407 10.3484 32.2502 10.291 32.2564 10.2522C32.2594 10.2328 32.2617 10.2181 32.2631 10.2083L32.2646 10.1974L32.265 10.1948L32.2651 10.1942C32.2722 10.1406 32.3245 10.1036 32.3817 10.1118Z" fill="#592F72"/>
<path d="M33.6947 8.94907L33.861 7.54359L33.1474 8.41995L32.8201 7.40791L32.265 8.30382L31.7765 7.2717L31.6102 8.67718C31.0462 8.93005 30.6338 9.43797 30.5597 10.0692C30.4425 11.0598 31.2054 11.9755 32.2627 12.112C33.32 12.2484 34.2743 11.5552 34.3916 10.5646C34.4651 9.93586 34.1827 9.33731 33.6947 8.94907Z" fill="#FFF9EF"/>
<path fill-rule="evenodd" clip-rule="evenodd" d="M33.9013 7.45397C33.945 7.47134 33.9718 7.51379 33.9666 7.55762L33.8064 8.91124C34.2935 9.32064 34.5726 9.9344 34.4972 10.5785L34.4972 10.5786C34.3736 11.623 33.3676 12.3537 32.2531 12.2099C31.1384 12.066 30.3342 11.1007 30.4578 10.0564L30.5616 10.0698L30.4578 10.0565C30.4578 10.0565 30.4578 10.0565 30.4578 10.0564C30.5337 9.40989 30.9464 8.88617 31.5144 8.61259L31.5083 8.66444L31.612 8.67782L31.5651 8.58903C31.5481 8.59667 31.5312 8.60452 31.5144 8.61259L31.6746 7.25895C31.6798 7.21513 31.7156 7.18075 31.7621 7.17503C31.8086 7.1693 31.8542 7.19364 31.8736 7.23445L32.2781 8.08912L32.1763 8.25341L32.2668 8.30446L32.362 8.26657L32.2781 8.08912L32.7314 7.35751C32.752 7.3241 32.7922 7.30597 32.8336 7.31135C32.8749 7.31674 32.9096 7.34461 32.9217 7.3823L33.1889 8.20836L33.0657 8.35965L33.1492 8.42059L33.2491 8.39433L33.1889 8.20836L33.7793 7.48329C33.8076 7.44861 33.8575 7.4366 33.9013 7.45397ZM33.717 7.88691L33.2328 8.48153C33.2092 8.51048 33.17 8.5241 33.1313 8.51678C33.0926 8.50946 33.0609 8.48243 33.0494 8.44685L32.7927 7.653L32.3574 8.35551C32.3379 8.38701 32.3009 8.4051 32.2617 8.40232C32.2225 8.39955 32.1877 8.37638 32.1716 8.34236L31.84 7.64166L31.7158 8.69121C31.7119 8.7241 31.6905 8.75247 31.659 8.76661C31.125 9.00599 30.7354 9.48637 30.6654 10.0831L30.6654 10.0832C30.5544 11.0202 31.2761 11.8864 32.2761 12.0154C33.2761 12.1445 34.1787 11.4888 34.2897 10.552C34.3592 9.95764 34.0923 9.39149 33.6303 9.02392C33.603 9.00219 33.5889 8.96923 33.5928 8.93633L33.717 7.88691Z" fill="#FFF9EF"/>
<path d="M38.4776 28.7754C38.4776 28.7754 43.1735 27.7402 45.5389 23.5554C46.9375 21.0809 46.9309 17.7602 46.729 15.3137C46.729 15.3137 41.8942 17.3917 39.5953 20.9284C37.2942 24.462 38.4776 28.7754 38.4776 28.7754Z" fill="#6ECBD2"/>
<path fill-rule="evenodd" clip-rule="evenodd" d="M43.4597 20.4554C43.5141 20.4748 43.5425 20.5316 43.5233 20.5822C43.1352 21.6028 42.4762 22.747 41.688 23.9935C41.2968 24.6121 40.873 25.2572 40.4336 25.926L40.4227 25.9426C39.9792 26.6174 39.5201 27.3165 39.0619 28.038C37.2284 30.9251 35.4168 34.1629 34.7113 37.612C34.7005 37.665 34.6458 37.6985 34.5891 37.6869C34.5325 37.6754 34.4954 37.623 34.5062 37.5701C35.2189 34.0861 37.0463 30.8244 38.8819 27.9341C39.3409 27.2112 39.8009 26.511 40.2442 25.8363L40.2547 25.8204C40.6944 25.1511 41.1175 24.5071 41.5078 23.8899C42.2952 22.6447 42.9455 21.5138 43.3265 20.5118C43.3457 20.4612 43.4054 20.436 43.4597 20.4554Z" fill="#592F72"/>
<path fill-rule="evenodd" clip-rule="evenodd" d="M46.7788 15.2279C46.8088 15.2448 46.8283 15.2742 46.8309 15.3066C47.0329 17.7543 47.0427 21.1002 45.6292 23.6011C44.4349 25.714 42.6531 27.0305 41.1723 27.8183C40.4317 28.2124 39.7655 28.4747 39.284 28.6386C39.0432 28.7205 38.8485 28.7779 38.7136 28.8149C38.6461 28.8334 38.5936 28.8468 38.5577 28.8557C38.5398 28.8601 38.526 28.8633 38.5167 28.8655L38.5059 28.868L38.503 28.8686L38.5022 28.8688L38.502 28.8689C38.5019 28.8689 38.5019 28.8689 38.4755 28.7733C38.3744 28.7955 38.3744 28.7954 38.3744 28.7953L38.3742 28.7944L38.3735 28.7918L38.3708 28.7819C38.3686 28.7733 38.3653 28.7606 38.3612 28.744C38.3529 28.7108 38.3411 28.662 38.327 28.5988C38.2988 28.4723 38.2612 28.2882 38.2234 28.0565C38.1477 27.5931 38.0712 26.9386 38.067 26.1728C38.0587 24.6424 38.3398 22.6609 39.5037 20.8735C40.6638 19.0888 42.4605 17.6761 43.9616 16.7112C44.713 16.2283 45.3922 15.8564 45.8838 15.6051C46.1296 15.4794 46.3285 15.3839 46.4663 15.3197C46.5351 15.2876 46.5887 15.2633 46.6251 15.247C46.6434 15.2389 46.6573 15.2327 46.6668 15.2286L46.6775 15.2239L46.6803 15.2227L46.6813 15.2222C46.6813 15.2222 46.6814 15.2222 46.7268 15.3116L46.6813 15.2222C46.7123 15.2089 46.7489 15.211 46.7788 15.2279ZM46.6345 15.4629C46.613 15.4728 46.5891 15.4838 46.563 15.496C46.4273 15.5592 46.2306 15.6537 45.9872 15.7781C45.5004 16.027 44.8272 16.3956 44.0826 16.8742C42.5916 17.8325 40.8214 19.2272 39.6826 20.9791C38.5454 22.7254 38.2676 24.6673 38.2758 26.177C38.2799 26.9313 38.3554 27.576 38.4297 28.0318C38.4669 28.2596 38.5038 28.4401 38.5313 28.5634C38.5389 28.5976 38.5459 28.6274 38.5518 28.6526C38.5795 28.6455 38.6124 28.6368 38.6502 28.6264C38.7814 28.5904 38.972 28.5343 39.2084 28.4538C39.6812 28.2928 40.3368 28.0348 41.0659 27.6469C42.5243 26.8709 44.2731 25.5774 45.4443 23.5055C46.8005 21.1059 46.8242 17.8921 46.6345 15.4629ZM38.4755 28.7733L38.3744 28.7953C38.3814 28.8207 38.3988 28.8428 38.4227 28.8566C38.4466 28.8704 38.4752 28.8748 38.502 28.8689L38.4755 28.7733Z" fill="#592F72"/>
<path d="M28.991 23.2077C28.991 23.2077 25.0789 20.4117 24.5468 15.6341C24.2322 12.8092 25.5422 9.75782 26.6886 7.58714C26.6886 7.58714 30.319 11.3968 31.0472 15.5526C31.7753 19.7085 28.991 23.2077 28.991 23.2077Z" fill="#592F72"/>
<path fill-rule="evenodd" clip-rule="evenodd" d="M27.6761 13.6034C27.7337 13.6069 27.7786 13.6535 27.7764 13.7076C27.7334 14.7787 27.8873 16.0741 28.1225 17.5285C28.2391 18.2494 28.3753 19.0078 28.517 19.796L28.5203 19.8147C28.6631 20.6093 28.8111 21.4339 28.9494 22.279C29.5025 25.6579 29.9024 29.3752 29.1897 32.8592C29.1789 32.9121 29.1242 32.9457 29.0676 32.9341C29.0109 32.9225 28.9738 32.8702 28.9846 32.8173C29.6902 29.3681 29.2956 25.679 28.7431 22.3038C28.605 21.4604 28.4572 20.6372 28.3144 19.8424L28.3109 19.8228C28.1694 19.0353 28.0329 18.2755 27.9161 17.553C27.6807 16.0971 27.5239 14.786 27.5678 13.695C27.57 13.6409 27.6184 13.5999 27.6761 13.6034Z" fill="#592F72"/>
<path fill-rule="evenodd" clip-rule="evenodd" d="M26.7324 7.49813C26.7842 7.52326 26.8056 7.58255 26.7802 7.63058C25.6344 9.80017 24.3372 12.8297 24.6484 15.6244C24.9119 17.9898 26.0123 19.8661 27.0489 21.1525C27.567 21.7955 28.0686 22.2903 28.4403 22.624C28.6261 22.7908 28.7794 22.9173 28.8858 23.0019C28.9166 23.0263 28.9434 23.0472 28.9661 23.0646C28.9814 23.0438 28.9995 23.0192 29.02 22.9907C29.0936 22.8882 29.1984 22.7368 29.3221 22.5419C29.5695 22.1522 29.8921 21.5892 30.1922 20.8972C30.7928 19.5124 31.3005 17.6175 30.942 15.564C30.9326 15.5103 30.9711 15.4608 31.028 15.4534C31.0849 15.446 31.1386 15.4835 31.148 15.5372C31.515 17.639 30.9947 19.5716 30.3858 20.9754C30.0812 21.6779 29.7537 22.2495 29.5022 22.6458C29.3764 22.8439 29.2695 22.9984 29.1939 23.1035C29.1561 23.1561 29.1261 23.1964 29.1055 23.2236C29.0951 23.2373 29.0872 23.2476 29.0817 23.2547L29.0754 23.2627L29.0737 23.2648L29.0731 23.2656C29.0731 23.2656 29.0731 23.2657 28.9888 23.2056C28.9271 23.2832 28.927 23.2831 28.927 23.2831L28.9268 23.2829L28.9237 23.2807L28.9148 23.2742C28.907 23.2685 28.8956 23.2601 28.8809 23.249C28.8514 23.2269 28.8083 23.1939 28.7536 23.1504C28.644 23.0634 28.4875 22.9341 28.2982 22.7642C27.9197 22.4244 27.41 21.9215 26.8836 21.2684C25.8312 19.9623 24.7094 18.0518 24.4408 15.6397C24.1229 12.7847 25.4457 9.71138 26.5927 7.53961C26.6181 7.49158 26.6806 7.47301 26.7324 7.49813ZM28.9888 23.2056L28.927 23.2831C28.9493 23.299 28.9773 23.3062 29.0047 23.303C29.0321 23.2997 29.0568 23.2862 29.0731 23.2656L28.9888 23.2056Z" fill="#592F72"/>
<path d="M55.8409 31.6137C55.8409 31.6137 56.9837 28.5049 61.7613 27.9449C64.9668 27.5705 67.8252 28.9741 69.3628 29.9402C69.3628 29.9402 67.2239 29.894 65.1966 31.8871C63.4901 33.5647 58.6269 34.9467 55.8409 31.6137Z" fill="#6ECBD2"/>
<path fill-rule="evenodd" clip-rule="evenodd" d="M63.4893 30.6107C63.5469 30.6127 63.5932 30.6582 63.5925 30.7124C63.5919 30.7666 63.5447 30.8088 63.487 30.8068L63.4879 30.7308C63.487 30.8068 63.4871 30.8068 63.487 30.8068L63.4853 30.8068L63.48 30.8066L63.4586 30.8059C63.4396 30.8054 63.4112 30.8047 63.374 30.8039C63.2997 30.8024 63.1903 30.8008 63.0501 30.8002C62.7699 30.7992 62.367 30.8025 61.8776 30.8204C60.8986 30.8561 59.5744 30.9498 58.1924 31.1811C56.8097 31.4126 55.3738 31.7813 54.1686 32.3648C52.9632 32.9485 51.9976 33.7427 51.5389 34.8213C51.5177 34.8712 51.457 34.8944 51.4034 34.8731C51.3498 34.8519 51.3235 34.7942 51.3447 34.7444C51.828 33.608 52.8392 32.7854 54.0691 32.1898C55.2993 31.5942 56.7572 31.2211 58.1506 30.9879C59.5447 30.7545 60.8788 30.6602 61.864 30.6243C62.3568 30.6063 62.7626 30.6029 63.0455 30.604C63.1869 30.6045 63.2976 30.6062 63.3731 30.6077C63.4108 30.6085 63.4397 30.6092 63.4593 30.6098L63.4815 30.6104L63.4872 30.6106L63.4893 30.6107C63.4894 30.6107 63.4893 30.6107 63.4883 30.6967L63.4893 30.6107Z" fill="#592F72"/>
<path fill-rule="evenodd" clip-rule="evenodd" d="M69.0468 29.8606C67.4684 28.9139 64.7746 27.6932 61.7802 28.0429C59.4156 28.3201 57.9562 29.2267 57.0883 30.0596C56.6537 30.4765 56.3666 30.8758 56.1884 31.1701C56.0994 31.3172 56.0376 31.438 55.9982 31.5214C55.9786 31.5631 55.9645 31.5955 55.9555 31.6171C55.951 31.628 55.9478 31.6361 55.9457 31.6414L55.9435 31.6472L55.943 31.6484L55.9429 31.6486L55.9429 31.6486C55.9242 31.6994 55.8649 31.7252 55.8104 31.7063C55.7558 31.6874 55.7267 31.6309 55.7454 31.5801L55.8442 31.6144C55.7454 31.5801 55.7454 31.5801 55.7454 31.58L55.7455 31.5798L55.7458 31.5791L55.7466 31.577L55.7495 31.5694C55.752 31.5629 55.7558 31.5535 55.7608 31.5415C55.7709 31.5173 55.786 31.4823 55.807 31.438C55.8488 31.3492 55.9136 31.2227 56.0063 31.0696C56.1917 30.7635 56.4888 30.3506 56.9372 29.9203C57.8351 29.0588 59.3359 28.131 61.749 27.8481L61.749 27.8481C64.9922 27.4694 67.8774 28.889 69.4225 29.8597C69.4614 29.8841 69.4792 29.9293 69.4663 29.9708C69.4533 30.0121 69.4128 30.0399 69.3665 30.0389L69.3665 30.0389L69.3664 30.0389L69.3664 30.0389L69.3657 30.0389L69.3619 30.0389C69.3584 30.0388 69.3528 30.0388 69.3453 30.0389C69.3303 30.039 69.3076 30.0395 69.2776 30.0408C69.2177 30.0433 69.1289 30.0491 69.0156 30.0622C68.789 30.0883 68.4647 30.1437 68.0774 30.2604C67.3033 30.4938 66.2769 30.9728 65.2762 31.9565C65.2369 31.9952 65.1708 31.9957 65.1287 31.9577C65.0865 31.9198 65.0842 31.8576 65.1235 31.819C66.1501 30.8097 67.2067 30.3152 68.0089 30.0734C68.4098 29.9525 68.7469 29.8948 68.9847 29.8673C69.0063 29.8648 69.0269 29.8626 69.0468 29.8606Z" fill="#592F72"/>
<path d="M17.0902 14.1099C15.7217 14.5793 14.647 15.6856 14.3502 17.1365C13.8911 19.3809 15.4648 21.5981 17.8653 22.0891C20.2658 22.5801 22.5837 21.159 23.0428 18.9147C23.5019 16.6704 21.9282 14.4531 19.5277 13.9621C18.6796 13.786 17.8399 13.8512 17.0902 14.1099Z" fill="#FFB5C3"/>
<path fill-rule="evenodd" clip-rule="evenodd" d="M17.054 14.0209C17.8216 13.7561 18.6813 13.6894 19.5494 13.8696C22.0064 14.3723 23.6171 16.6418 23.1472 18.939C22.6773 21.2362 20.3047 22.6909 17.8476 22.1883C15.3904 21.6857 13.7796 19.4162 14.2496 17.1189C14.5534 15.6337 15.6536 14.5013 17.054 14.0209ZM17.0921 14.1132L17.0921 14.1132L17.0921 14.1132C17.8621 13.953 18.6816 13.8893 19.5097 14.0613L17.1303 14.2054C14.7444 15.7443 15.7935 14.664 17.1302 14.2055C15.5429 21.5171 14.0064 19.3522 14.4547 17.1609C22.4939 21.0884 20.2307 22.476 17.8868 21.9966C21.8539 14.5408 23.3904 16.7057 22.9421 18.897L19.51 14.0613" fill="#592F72"/>
<path fill-rule="evenodd" clip-rule="evenodd" d="M15.9059 14.7747C15.8845 14.7239 15.8237 14.6979 15.7702 14.7166L15.9059 14.7747ZM15.8089 14.8087C15.712 14.8427 15.712 14.8427 15.712 14.8428L15.7121 14.843L15.7124 14.8437L15.7135 14.8464L15.7179 14.8564C15.7217 14.8653 15.7274 14.8782 15.7349 14.8952C15.7501 14.9292 15.7729 14.9792 15.8036 15.044C15.8649 15.1734 15.958 15.3618 16.0851 15.5987C16.3395 16.0724 16.7304 16.7401 17.2776 17.5183C18.3719 19.0745 20.0923 21.074 22.5971 22.8465C25.0566 24.587 25.8964 27.0873 26.1191 29.1633C26.2304 30.2008 26.1871 31.1294 26.116 31.7986C26.0804 32.1331 26.0379 32.4026 26.0043 32.588C25.9876 32.6807 25.9731 32.7524 25.9628 32.8008C25.9576 32.825 25.9535 32.8433 25.9508 32.8555L25.9476 32.8691L25.9468 32.8724L25.9467 32.8732C25.934 32.9257 25.9692 32.9792 26.0255 32.9926C26.0817 33.0059 26.1376 32.9741 26.1503 32.9216L26.0485 32.8975C26.1503 32.9216 26.1503 32.9217 26.1503 32.9216L26.1504 32.9211L26.1507 32.9201L26.1516 32.9162L26.155 32.9013C26.158 32.8883 26.1622 32.8692 26.1676 32.8441C26.1782 32.7941 26.1931 32.7205 26.2102 32.6259C26.2445 32.4365 26.2876 32.1627 26.3237 31.8233C26.3959 31.1446 26.4399 30.2025 26.3269 29.1488C26.1009 27.0425 25.2457 24.4783 22.7199 22.6909C20.2393 20.9355 18.535 18.9549 17.4508 17.4131C16.9088 16.6423 16.5221 15.9815 16.2711 15.514C16.1455 15.2802 16.054 15.0948 15.9939 14.9681C15.9639 14.9047 15.9418 14.8561 15.9272 14.8234C15.9199 14.8071 15.9145 14.7947 15.911 14.7866L15.907 14.7775L15.9061 14.7753L15.9059 14.7747M15.7702 14.7166C15.7166 14.7354 15.6906 14.7919 15.712 14.8428L15.7702 14.7166ZM15.712 14.8428L15.8089 14.8087L15.712 14.8428Z" fill="#592F72"/>
<path fill-rule="evenodd" clip-rule="evenodd" d="M17.5078 17.4987C17.5257 17.5506 17.4957 17.6053 17.4409 17.6207L14.3338 18.4968C14.279 18.5122 14.2201 18.4826 14.2022 18.4307C14.1843 18.3787 14.2142 18.3241 14.269 18.3086L17.3761 17.4326C17.4309 17.4171 17.4899 17.4467 17.5078 17.4987Z" fill="#592F72"/>
<path fill-rule="evenodd" clip-rule="evenodd" d="M20.9475 14.3867C20.9969 14.4159 21.0129 14.4766 20.9832 14.5223L18.3036 18.6403C18.2739 18.686 18.2098 18.6994 18.1604 18.6702C18.111 18.6411 18.095 18.5804 18.1247 18.5347L20.8043 14.4167C20.834 14.371 20.8981 14.3576 20.9475 14.3867Z" fill="#592F72"/>
<path fill-rule="evenodd" clip-rule="evenodd" d="M22.5861 15.9584C22.634 15.9897 22.6469 16.051 22.6149 16.0952L19.658 20.1823C19.626 20.2265 19.5612 20.2371 19.5132 20.2058C19.4653 20.1745 19.4524 20.1133 19.4844 20.069L22.4413 15.9819C22.4733 15.9377 22.5381 15.9272 22.5861 15.9584Z" fill="#592F72"/>
<path fill-rule="evenodd" clip-rule="evenodd" d="M19.1961 19.5824C19.2217 19.6316 19.2007 19.6899 19.1491 19.7128L15.8388 21.1782C15.7872 21.201 15.7245 21.1797 15.6989 21.1306C15.6732 21.0814 15.6942 21.0231 15.7458 21.0002L19.0561 19.5348C19.1077 19.512 19.1704 19.5333 19.1961 19.5824Z" fill="#592F72"/>
<path d="M21.9365 18.8094C21.9365 18.8094 21.9041 15.2517 23.1152 13.9492C24.3264 12.6467 25.241 14.1677 24.4704 15.7535C23.7019 17.3422 21.9365 18.8094 21.9365 18.8094Z" fill="#6ECBD2"/>
<path d="M21.9392 18.8059C21.9392 18.8059 20.2443 17.1407 18.5637 16.4699C17.0663 15.8726 15.5418 17.1316 17.6687 18.3675C19.1675 19.2407 21.9392 18.8059 21.9392 18.8059Z" fill="#6ECBD2"/>
<path d="M24.4578 21.825C24.4578 21.825 22.9539 20.9096 20.8301 21.0185C18.7062 21.1274 18.6307 21.9412 19.5242 22.5282C20.415 23.1148 22.7593 22.9248 24.4578 21.825Z" fill="#6ECBD2"/>
<path d="M24.4571 21.8295C24.4571 21.8295 24.5863 20.3494 25.1399 18.8146C25.865 16.805 27.766 17.0445 27.4507 18.8418C27.1111 20.7578 24.4571 21.8295 24.4571 21.8295Z" fill="#6ECBD2"/>
<path d="M27.1761 25.7449C27.1761 25.7449 27.304 23.8809 28.5627 22.5212C29.8218 21.159 31.2826 22.2587 30.0233 23.85C28.9159 25.251 27.1761 25.7449 27.1761 25.7449Z" fill="#6ECBD2"/>
<path d="M27.1761 25.7518C27.1761 25.7518 25.7963 26.9091 23.4072 26.4436C21.036 25.9843 21.722 24.6233 23.3959 24.6541C25.0718 24.6879 27.1761 25.7518 27.1761 25.7518Z" fill="#6ECBD2"/>
<path d="M19.9874 14.0401C19.9874 14.0401 18.79 11.9359 18.5539 10.1417C18.2284 7.69312 20.4836 7.22481 21.0301 9.13146C21.5766 11.0381 19.9874 14.0401 19.9874 14.0401Z" fill="#6ECBD2"/>
<path fill-rule="evenodd" clip-rule="evenodd" d="M23.9567 13.5546C23.7513 13.5679 23.4897 13.6961 23.1951 14.0129C22.9059 14.3239 22.686 14.7758 22.5205 15.287C22.3555 15.7967 22.2469 16.3578 22.1757 16.8808C22.1045 17.4034 22.0709 17.886 22.0551 18.2379C22.0491 18.3726 22.0456 18.488 22.0437 18.5792C22.0758 18.5505 22.1117 18.5181 22.151 18.4822C22.3272 18.321 22.5702 18.0896 22.8371 17.8088C23.3719 17.2461 23.9976 16.4904 24.3756 15.7089C24.7524 14.9336 24.7063 14.1947 24.449 13.8177C24.3236 13.634 24.1541 13.5418 23.9567 13.5546ZM21.937 18.8075C21.8326 18.8057 21.8326 18.8057 21.8326 18.8056L21.8325 18.8029L21.8325 18.795C21.8325 18.788 21.8325 18.7778 21.8325 18.7644C21.8325 18.7377 21.8328 18.6984 21.8335 18.6481C21.835 18.5475 21.8385 18.4025 21.8465 18.2245C21.8625 17.8687 21.8965 17.3804 21.9686 16.8508C22.0406 16.3215 22.1511 15.749 22.3206 15.2253C22.4897 14.7031 22.7199 14.2218 23.0363 13.8816C23.3472 13.5472 23.6542 13.3771 23.9369 13.3588C24.2275 13.34 24.4655 13.4829 24.6239 13.7148C24.934 14.1692 24.9598 14.9838 24.566 15.7941C24.1756 16.6014 23.5343 17.3737 22.9944 17.9417C22.7238 18.2264 22.4775 18.461 22.2986 18.6246C22.2092 18.7064 22.1366 18.7705 22.0862 18.8142C22.0611 18.8361 22.0414 18.8529 22.0281 18.8642C22.0214 18.8699 22.0162 18.8742 22.0127 18.8772L22.0087 18.8805L22.0077 18.8814L22.0074 18.8816C22.0074 18.8817 22.0073 18.8817 21.937 18.8075ZM21.937 18.8075L22.0074 18.8816C21.9769 18.9069 21.9329 18.9128 21.8952 18.8963C21.8574 18.8799 21.8329 18.8443 21.8326 18.8056L21.937 18.8075Z" fill="#592F72"/>
<path fill-rule="evenodd" clip-rule="evenodd" d="M16.6696 16.6757C17.0083 16.2338 17.8217 16.0724 18.6001 16.3829C19.4552 16.7242 20.3088 17.3158 20.9453 17.8181C21.2644 18.0699 21.5305 18.3006 21.717 18.4683C21.8103 18.5523 21.8837 18.6205 21.9338 18.6679C21.9589 18.6915 21.9782 18.71 21.9913 18.7226C21.9978 18.7289 22.0028 18.7337 22.0062 18.737L22.0101 18.7408L22.0111 18.7418L22.0114 18.7421C22.0114 18.7421 22.0115 18.7422 21.937 18.809C21.9568 18.9059 21.9567 18.9059 21.9567 18.9059L21.9561 18.906L21.9544 18.9062L21.9481 18.9072C21.9426 18.908 21.9345 18.9092 21.9239 18.9107C21.9028 18.9138 21.8717 18.9181 21.8318 18.9232C21.7521 18.9336 21.6367 18.9473 21.4938 18.961C21.2079 18.9883 20.811 19.0156 20.3665 19.0154C19.483 19.015 18.3897 18.906 17.6133 18.4538M21.937 18.809L21.9567 18.9059C21.9944 18.8999 22.0252 18.8749 22.0366 18.8407C22.0481 18.8065 22.0383 18.7685 22.0114 18.7421L21.937 18.809ZM21.7176 18.7388C21.6491 18.747 21.5648 18.7563 21.4672 18.7657C21.1865 18.7926 20.7968 18.8194 20.3611 18.8191C19.4841 18.8187 18.4422 18.7085 17.7198 18.2876C17.1979 17.9844 16.9144 17.6877 16.7938 17.4311C16.6755 17.1794 16.7109 16.9617 16.8401 16.7931C17.1063 16.4459 17.8038 16.2764 18.5229 16.5632C19.3484 16.8928 20.1825 17.4691 20.8136 17.9671C21.1283 18.2154 21.3909 18.443 21.5747 18.6084C21.6296 18.6578 21.6775 18.7016 21.7176 18.7388ZM16.6696 16.6757C16.4964 16.9017 16.4559 17.1931 16.6032 17.5064L16.6696 16.6757ZM16.6032 17.5064C16.7481 17.8149 17.0717 18.1391 17.6133 18.4538L16.6032 17.5064Z" fill="#592F72"/>
<path fill-rule="evenodd" clip-rule="evenodd" d="M24.5121 21.7436C24.5122 21.7436 24.5122 21.7437 24.4571 21.8256L24.5121 21.7436C24.5418 21.7616 24.5603 21.7922 24.5615 21.825C24.5626 21.8578 24.5462 21.8885 24.5179 21.9069C23.6539 22.4663 22.6275 22.7935 21.7036 22.9069C21.2414 22.9637 20.8023 22.9672 20.4199 22.9183C20.0389 22.8696 19.7069 22.768 19.4651 22.6088C19.2331 22.4563 19.055 22.2836 18.9587 22.1026C18.8607 21.9183 18.8476 21.7232 18.9534 21.5451C19.0563 21.3722 19.2623 21.2309 19.5654 21.1262C19.87 21.021 20.284 20.9487 20.8209 20.9212C21.9 20.8658 22.8211 21.0707 23.4724 21.2892C23.7982 21.3985 24.0569 21.5114 24.2347 21.5972C24.3236 21.6402 24.3923 21.6764 24.4391 21.7021C24.4626 21.7149 24.4805 21.7251 24.4927 21.7322C24.4989 21.7357 24.5036 21.7385 24.5068 21.7404L24.5106 21.7427L24.5117 21.7433L24.5121 21.7436ZM24.2601 21.8297C23.4548 22.3183 22.5185 22.6083 21.6712 22.7123C21.2237 22.7672 20.8035 22.7699 20.4427 22.7238C20.0805 22.6776 19.7854 22.583 19.5818 22.449C19.3671 22.3079 19.2195 22.1587 19.145 22.0186C19.0723 21.8819 19.0695 21.7566 19.1363 21.6443C19.2062 21.5268 19.3615 21.4075 19.6419 21.3107C19.9209 21.2143 20.3128 21.1441 20.8378 21.1171C21.8826 21.0636 22.7753 21.2619 23.4069 21.4739C23.7226 21.5798 23.9726 21.689 24.1432 21.7713C24.1877 21.7928 24.2267 21.8125 24.2601 21.8297Z" fill="#592F72"/>
<path fill-rule="evenodd" clip-rule="evenodd" d="M26.683 17.4937C26.2253 17.4648 25.5971 17.8557 25.2407 18.8435C24.9662 19.6047 24.7966 20.3531 24.6957 20.9117C24.6453 21.1909 24.612 21.4223 24.5914 21.5837C24.5879 21.6115 24.5847 21.6373 24.5819 21.6609C24.6478 21.6302 24.731 21.5902 24.8271 21.5409C25.0779 21.4122 25.4157 21.2209 25.7636 20.9708C26.4629 20.4682 27.1862 19.7402 27.3496 18.8185C27.4259 18.3836 27.3656 18.0562 27.2357 17.8381C27.1075 17.6228 26.9087 17.508 26.683 17.4937ZM24.4589 21.8247C24.5023 21.915 24.5023 21.915 24.5023 21.915L24.503 21.9148L24.5046 21.9141L24.5108 21.9115C24.5161 21.9093 24.5239 21.9061 24.534 21.9018C24.5541 21.8932 24.5835 21.8804 24.6208 21.8636C24.6955 21.8299 24.802 21.7798 24.9308 21.7137C25.1882 21.5817 25.5351 21.3853 25.8932 21.1279C26.6058 20.6157 27.3794 19.8499 27.5556 18.8556C27.6369 18.3919 27.5778 18.0153 27.4173 17.7457C27.2551 17.4734 26.9925 17.317 26.6916 17.2979C26.0963 17.2602 25.4115 17.7543 25.0428 18.7761C24.7637 19.5499 24.5919 20.3089 24.4898 20.8739C24.4387 21.1566 24.405 21.3912 24.3841 21.5553C24.3736 21.6373 24.3664 21.7018 24.3617 21.7458C24.3593 21.7679 24.3577 21.7848 24.3565 21.7963L24.3553 21.8094L24.355 21.8128L24.3549 21.814C24.3549 21.814 24.3549 21.8141 24.4589 21.8247ZM24.4589 21.8247L24.3549 21.814C24.3519 21.8486 24.3686 21.8827 24.3989 21.9035C24.4292 21.9243 24.4686 21.9286 24.5023 21.915L24.4589 21.8247Z" fill="#592F72"/>
<path fill-rule="evenodd" clip-rule="evenodd" d="M30.1696 22.1526C29.8719 21.905 29.2584 21.9222 28.6425 22.5885C28.0264 23.254 27.6852 24.0454 27.4982 24.6735C27.4049 24.987 27.3503 25.2586 27.3192 25.4514C27.3098 25.5093 27.3026 25.5601 27.2971 25.6028C27.3338 25.5899 27.3765 25.5745 27.4243 25.5565C27.6016 25.4895 27.8498 25.3856 28.1322 25.2385C28.6979 24.9439 29.3968 24.4782 29.9392 23.792C30.5584 23.0094 30.4704 22.4026 30.1696 22.1526ZM27.1763 25.7467C27.0721 25.7378 27.0721 25.7378 27.0721 25.7377L27.0722 25.7373L27.0723 25.736L27.0726 25.7315C27.0729 25.7276 27.0734 25.722 27.074 25.7147C27.0753 25.7001 27.0774 25.6787 27.0804 25.6512C27.0865 25.5962 27.0966 25.5166 27.1127 25.417C27.1449 25.2178 27.201 24.9384 27.297 24.616C27.4887 23.9722 27.8408 23.1517 28.4833 22.4575M27.1763 25.7467L27.2089 25.8407C27.176 25.8501 27.1398 25.8433 27.1124 25.8227C27.085 25.8021 27.0699 25.7702 27.0721 25.7377L27.1763 25.7467ZM30.1079 23.9117C30.7479 23.103 30.7352 22.3642 30.3056 22.0071C29.8731 21.6475 29.1266 21.7616 28.4833 22.4575M30.1079 23.9117C29.543 24.6265 28.8182 25.1081 28.2371 25.4108C27.9462 25.5623 27.6902 25.6694 27.5066 25.7388C27.4148 25.7735 27.341 25.7988 27.2898 25.8155C27.2642 25.8239 27.2443 25.8301 27.2306 25.8343C27.2238 25.8363 27.2185 25.8379 27.2149 25.839L27.2106 25.8402L27.2095 25.8406L27.2089 25.8407C27.2089 25.8407 27.2089 25.8407 27.1763 25.7467" fill="#592F72"/>
<path fill-rule="evenodd" clip-rule="evenodd" d="M25.878 25.3048C25.1458 25.0359 24.2148 24.7667 23.3957 24.7501C22.9918 24.7427 22.6528 24.8194 22.4079 24.9411C22.161 25.0637 22.0203 25.2257 21.9862 25.3847C21.9535 25.5374 22.0136 25.7148 22.2348 25.8893C22.4586 26.0659 22.841 26.2323 23.4249 26.3454C24.5972 26.5738 25.5194 26.4039 26.1473 26.1784C26.4616 26.0655 26.7025 25.9386 26.8642 25.8405C26.9097 25.8128 26.949 25.7874 26.9818 25.7653C26.9272 25.7395 26.8584 25.7077 26.7774 25.6713C26.5558 25.5719 26.2428 25.4389 25.878 25.3048ZM27.1754 25.7498C27.246 25.8237 27.246 25.8238 27.2459 25.8238L27.2454 25.8242L27.2444 25.8251L27.2407 25.8281C27.2376 25.8306 27.2331 25.8342 27.2273 25.8387C27.2157 25.8478 27.1987 25.8608 27.1765 25.8769C27.1321 25.9091 27.0666 25.954 26.9807 26.0062C26.809 26.1104 26.5556 26.2437 26.2263 26.362C25.5671 26.5987 24.6047 26.7746 23.3879 26.5376C22.7862 26.421 22.3651 26.245 22.103 26.0382C21.8382 25.8293 21.7298 25.5823 21.7815 25.3411C21.8318 25.1064 22.0282 24.9053 22.3066 24.767C22.587 24.6278 22.9614 24.5459 23.3944 24.5539C24.2512 24.5712 25.2106 24.8508 25.9495 25.1223C26.3202 25.2585 26.638 25.3935 26.8633 25.4946C26.976 25.5452 27.0656 25.5873 27.1271 25.6168C27.1579 25.6316 27.1817 25.6432 27.1979 25.6511C27.206 25.6551 27.2121 25.6582 27.2163 25.6603L27.2211 25.6627L27.2228 25.6635C27.2228 25.6635 27.2229 25.6636 27.1754 25.7498ZM27.1754 25.7498L27.2228 25.6635C27.2532 25.6789 27.2742 25.7072 27.2788 25.7391C27.2834 25.771 27.2711 25.8027 27.2459 25.8238L27.1754 25.7498Z" fill="#592F72"/>
<path fill-rule="evenodd" clip-rule="evenodd" d="M19.499 8.09715C18.9732 8.26148 18.4965 8.93129 18.6562 10.1326C18.7725 11.0166 19.1267 11.9816 19.4543 12.729C19.6178 13.1019 19.7739 13.4192 19.8891 13.6431C19.9238 13.7104 19.9547 13.7693 19.9811 13.8187C20.0207 13.7374 20.0716 13.6301 20.1296 13.5015C20.2692 13.1923 20.4494 12.7605 20.6127 12.2698C20.9411 11.2828 21.1929 10.0791 20.9281 9.15522C20.7964 8.6957 20.565 8.39032 20.3074 8.22115C20.0509 8.05274 19.7626 8.0148 19.499 8.09715ZM19.9862 14.0407C20.0799 14.0863 20.0799 14.0862 20.0799 14.0862L20.0802 14.0856L20.0812 14.0838L20.0847 14.0771C20.0878 14.0711 20.0923 14.0624 20.0982 14.051C20.1099 14.0282 20.1269 13.9946 20.1483 13.9512C20.1911 13.8646 20.2515 13.7389 20.3222 13.5822C20.4636 13.2689 20.6464 12.831 20.8121 12.3329C21.1417 11.3423 21.4112 10.0916 21.1296 9.10886C20.9881 8.61505 20.7326 8.26397 20.4239 8.06122C20.114 7.85771 19.7564 7.80826 19.4285 7.91073C18.7715 8.11603 18.2832 8.90464 18.449 10.1518C18.5688 11.0621 18.9314 12.0464 19.2616 12.7996C19.427 13.177 19.5849 13.498 19.7016 13.7247C19.76 13.8381 19.808 13.928 19.8415 13.9896C19.8583 14.0204 19.8715 14.0442 19.8804 14.0603L19.8907 14.0787L19.8934 14.0835L19.8943 14.0851C19.8943 14.0851 19.8944 14.0852 19.9862 14.0407ZM19.9862 14.0407L19.8943 14.0851C19.9129 14.1178 19.9492 14.1386 19.9883 14.1388C20.0273 14.1391 20.0627 14.1187 20.0799 14.0862L19.9862 14.0407Z" fill="#592F72"/>
<path fill-rule="evenodd" clip-rule="evenodd" d="M19.7499 9.93319C19.8075 9.93679 19.8524 9.98355 19.8501 10.0376L19.7458 10.0311L19.6414 10.0246C19.6437 9.97051 19.6923 9.92958 19.7499 9.93319ZM20.0933 14.0287C20.419 15.6544 21.0225 17.6194 22.5019 19.3666C22.7536 19.664 23.0029 19.9559 23.2486 20.2434C26.2291 23.7322 28.6715 26.5911 28.4297 31.1252C28.4268 31.1792 28.3778 31.2197 28.3202 31.2156C28.2626 31.2114 28.2183 31.1643 28.2212 31.1102C28.4588 26.6546 26.068 23.8549 23.0797 20.3553C22.8367 20.0707 22.5897 19.7815 22.3398 19.4864C20.8288 17.7017 20.2166 15.6995 19.8882 14.0601C19.715 13.1942 19.6536 12.1845 19.6352 11.3939C19.626 10.998 19.6275 10.656 19.6314 10.4129C19.6333 10.2913 19.6358 10.1944 19.6378 10.1278C19.6389 10.0945 19.6398 10.0688 19.6404 10.0513L19.6412 10.0315L19.6414 10.0264L19.6414 10.0246C19.6414 10.0246 19.6414 10.0246 19.7458 10.0311L19.8501 10.0376L19.85 10.0392L19.8498 10.044L19.8491 10.0633C19.8484 10.0804 19.8476 10.1057 19.8466 10.1386C19.8446 10.2043 19.8421 10.3003 19.8402 10.421C19.8363 10.6622 19.8348 11.0018 19.8439 11.3948C19.8623 12.1818 19.9234 13.1788 20.0933 14.0287Z" fill="#592F72"/>
<path fill-rule="evenodd" clip-rule="evenodd" d="M18.3523 17.4435L18.353 17.4439L18.3557 17.4452L18.367 17.4505C18.377 17.4552 18.3922 17.4623 18.4125 17.4716C18.4529 17.4902 18.5135 17.5175 18.5935 17.5524C18.7536 17.6222 18.9912 17.722 19.3004 17.8416C19.9189 18.0809 20.8236 18.3994 21.9667 18.7153C22.0224 18.7307 22.0554 18.7853 22.0405 18.8373C22.0256 18.8892 21.9684 18.9189 21.9127 18.9035C20.7617 18.5854 19.8499 18.2644 19.2253 18.0228C18.9131 17.902 18.6726 17.801 18.5098 17.7301C18.4285 17.6946 18.3666 17.6667 18.3249 17.6475C18.304 17.6379 18.2882 17.6306 18.2775 17.6255L18.2654 17.6198L18.2622 17.6183L18.2611 17.6178C18.2611 17.6178 18.261 17.6177 18.3066 17.5306L18.2611 17.6178C18.2093 17.5928 18.1875 17.5335 18.2127 17.4854C18.2379 17.4373 18.3004 17.4185 18.3523 17.4435Z" fill="#592F72"/>
<path fill-rule="evenodd" clip-rule="evenodd" d="M23.4377 15.1869C23.4932 15.2031 23.5254 15.2582 23.5096 15.3099L23.4092 15.2806C23.5096 15.3099 23.5096 15.3099 23.5096 15.3099L23.5077 15.3161L23.5022 15.3339C23.4973 15.3495 23.4901 15.3725 23.4807 15.4023C23.4617 15.4619 23.4338 15.5486 23.3976 15.6571C23.3252 15.8741 23.22 16.1788 23.0882 16.5297C22.8251 17.2306 22.4551 18.1193 22.0295 18.8621C22.0024 18.9093 21.9392 18.9259 21.8883 18.8993C21.8374 18.8726 21.818 18.8127 21.845 18.7656C22.2633 18.0355 22.6293 17.1576 22.8911 16.46C23.0219 16.1117 23.1264 15.8092 23.1982 15.5939C23.2341 15.4863 23.2618 15.4004 23.2805 15.3416C23.2898 15.3122 23.2969 15.2895 23.3017 15.2742L23.307 15.2569L23.3084 15.2526L23.3088 15.2513C23.3245 15.1996 23.3823 15.1707 23.4377 15.1869Z" fill="#592F72"/>
<path fill-rule="evenodd" clip-rule="evenodd" d="M24.5611 21.8098C24.5727 21.8632 24.5362 21.9141 24.4798 21.9236C23.5541 22.0784 22.6116 22.0681 21.9023 22.0196C21.5473 21.9953 21.2497 21.9614 21.0407 21.9335C20.9362 21.9195 20.8537 21.9071 20.7972 21.8981C20.769 21.8936 20.7472 21.89 20.7324 21.8874L20.7155 21.8845L20.7111 21.8837L20.7099 21.8835L20.7096 21.8834C20.7095 21.8834 20.7094 21.8834 20.7266 21.7871L20.7096 21.8834C20.6527 21.8731 20.6141 21.8216 20.6236 21.7684C20.6331 21.7152 20.6869 21.6804 20.7437 21.6907C20.7438 21.6907 20.7437 21.6907 20.7437 21.6907L20.744 21.6908L20.7449 21.6909L20.7487 21.6916L20.7644 21.6943C20.7784 21.6967 20.7994 21.7002 20.8268 21.7046C20.8815 21.7133 20.9621 21.7255 21.0647 21.7392C21.2698 21.7665 21.5625 21.7999 21.912 21.8238C22.6118 21.8717 23.5355 21.8813 24.4379 21.7303C24.4944 21.7208 24.5496 21.7564 24.5611 21.8098Z" fill="#592F72"/>
<path fill-rule="evenodd" clip-rule="evenodd" d="M26.2536 18.8094C26.3092 18.8253 26.3417 18.8802 26.3263 18.932L26.2257 18.9033C26.3263 18.932 26.3263 18.932 26.3263 18.932L26.3262 18.9325L26.3258 18.9337L26.3244 18.9383C26.3232 18.9423 26.3214 18.9481 26.319 18.9557C26.3143 18.9709 26.3072 18.9932 26.2978 19.0217C26.2791 19.0788 26.251 19.1611 26.2137 19.2627C26.1391 19.4658 26.0273 19.7464 25.8783 20.0567C25.5815 20.6744 25.1318 21.4211 24.5256 21.903C24.4822 21.9375 24.4162 21.9317 24.3783 21.8899C24.3404 21.8481 24.3449 21.7862 24.3884 21.7517C24.9597 21.2976 25.3944 20.5823 25.6876 19.972C25.8335 19.6682 25.9431 19.3933 26.0162 19.1943C26.0527 19.0949 26.08 19.0146 26.0982 18.9593C26.1073 18.9317 26.1141 18.9103 26.1186 18.8959C26.1208 18.8887 26.1225 18.8833 26.1236 18.8797L26.1248 18.8757L26.1251 18.8748L26.1251 18.8746" fill="#592F72"/>
<path fill-rule="evenodd" clip-rule="evenodd" d="M27.2775 25.7306C27.2896 25.7839 27.2538 25.8352 27.1975 25.8452C26.5091 25.9678 25.623 25.9319 24.9159 25.8673C24.5609 25.8349 24.2484 25.7949 24.0246 25.7631C23.9127 25.7471 23.8228 25.7332 23.7609 25.7233C23.7299 25.7183 23.7059 25.7143 23.6895 25.7116L23.6709 25.7084L23.666 25.7075L23.6644 25.7073C23.6644 25.7073 23.6643 25.7072 23.6809 25.6108L23.6974 25.5143L23.6988 25.5146L23.7032 25.5153L23.7211 25.5184C23.7369 25.521 23.7603 25.5249 23.7907 25.5298C23.8515 25.5396 23.94 25.5533 24.0505 25.569C24.2716 25.6005 24.5802 25.64 24.9306 25.672C25.6342 25.7363 26.4955 25.7695 27.1534 25.6524C27.2098 25.6423 27.2653 25.6774 27.2775 25.7306ZM23.5778 25.5927C23.5869 25.5394 23.6405 25.5043 23.6974 25.5143L23.6809 25.6108L23.6644 25.7073C23.6075 25.6973 23.5686 25.6459 23.5778 25.5927Z" fill="#592F72"/>
<path fill-rule="evenodd" clip-rule="evenodd" d="M29.029 23.4013C29.0818 23.4244 29.1058 23.4829 29.0826 23.5319L28.987 23.4901C29.0826 23.5319 29.0826 23.5319 29.0826 23.5319L29.0824 23.5323L29.0819 23.5333L29.0802 23.5369L29.0735 23.5508C29.0676 23.5628 29.0589 23.5804 29.0475 23.6029C29.0247 23.648 28.9911 23.7129 28.9474 23.7929C28.86 23.9527 28.7324 24.173 28.5709 24.4152C28.2495 24.897 27.7877 25.4751 27.2359 25.8302C27.1889 25.8604 27.1237 25.8484 27.0903 25.8034C27.0569 25.7585 27.0679 25.6975 27.1148 25.6673C27.632 25.3345 28.076 24.7832 28.3932 24.3078C28.5509 24.0712 28.6758 23.8558 28.7611 23.6996C28.8038 23.6216 28.8365 23.5584 28.8585 23.5149C28.8695 23.4931 28.8778 23.4763 28.8833 23.465L28.8895 23.4523L28.891 23.4491L28.8913 23.4484" fill="#592F72"/>
<path fill-rule="evenodd" clip-rule="evenodd" d="M45.581 29.0336C45.6386 29.0323 45.6876 29.0752 45.6905 29.1294L45.5863 29.1318C45.6905 29.1294 45.6905 29.1293 45.6905 29.1294L45.6906 29.1298L45.6906 29.1306L45.6908 29.1338L45.6913 29.146C45.6918 29.1567 45.6924 29.1723 45.693 29.1928C45.6942 29.2337 45.6955 29.2937 45.6957 29.3709C45.6963 29.5253 45.6928 29.7484 45.6768 30.0246C45.6447 30.5768 45.5624 31.342 45.3613 32.1945C44.9596 33.8975 44.0811 35.9598 42.1693 37.361C42.1244 37.3939 42.0587 37.3856 42.0225 37.3426C41.9863 37.2995 41.9934 37.2379 42.0382 37.205C43.898 35.842 44.7607 33.8287 45.1574 32.1472C45.3555 31.3073 45.4367 30.553 45.4683 30.0087C45.4841 29.7367 45.4875 29.5174 45.4869 29.3664C45.4867 29.2909 45.4854 29.2324 45.4842 29.1931C45.4837 29.1734 45.4831 29.1585 45.4827 29.1486L45.4822 29.1375L45.482 29.1348L45.482 29.1342C45.4791 29.08 45.5234 29.0349 45.581 29.0336Z" fill="#592F72"/>
<path d="M46.6522 27.6621L46.554 26.2437L46.0165 27.2282L45.5077 26.282L45.1312 27.2608L44.4615 26.3204L44.5597 27.7388C44.0545 28.0809 43.742 28.6531 43.7856 29.2877C43.8537 30.288 44.7711 31.0679 45.8337 31.0303C46.8963 30.9927 47.7021 30.1507 47.634 29.1505C47.5913 28.5108 47.2017 27.965 46.6522 27.6621Z" fill="#FFF9EF"/>
<path fill-rule="evenodd" clip-rule="evenodd" d="M46.5767 26.1514C46.6228 26.1614 46.6569 26.199 46.66 26.2432L46.7546 27.6093C47.3072 27.9334 47.6963 28.495 47.74 29.1501C47.8118 30.2044 46.9625 31.0921 45.8422 31.1317C44.7222 31.1713 43.7551 30.3493 43.6833 29.2948M46.5767 26.1514C46.5306 26.1414 46.4839 26.1615 46.4626 26.2004L46.5767 26.1514ZM46.4626 26.2004L46.0178 27.0153L46.4626 26.2004ZM46.0178 27.0153L45.6025 26.243C45.5835 26.2077 45.5443 26.1858 45.5028 26.1873C45.4613 26.1888 45.4253 26.2134 45.4113 26.2499L45.1039 27.049L44.5496 26.2706C44.5231 26.2334 44.4739 26.2168 44.4293 26.2301C44.3848 26.2434 44.3561 26.2833 44.3592 26.3275L44.4538 27.6936C43.9485 28.057 43.6385 28.6445 43.6833 29.2948M46.4765 26.6096L46.1115 27.2781C46.0938 27.3106 46.0579 27.3305 46.0186 27.3296C45.9794 27.3288 45.9434 27.3072 45.9255 27.2739L45.5266 26.5322L45.2314 27.2997C45.2181 27.3341 45.1853 27.3581 45.1463 27.3618C45.1073 27.3655 45.0689 27.3483 45.0468 27.3173L44.5924 26.6792L44.6657 27.7383C44.668 27.7715 44.6523 27.8031 44.624 27.8223C44.1457 28.1463 43.8504 28.6875 43.8917 29.2873L43.8917 29.2874C43.9561 30.2334 44.8237 30.9711 45.8289 30.9356C46.8339 30.9001 47.596 30.1036 47.5316 29.1575L47.5316 29.1574C47.4913 28.5527 47.1231 28.0365 46.603 27.7497C46.5721 27.7327 46.5521 27.7024 46.5498 27.6692L46.4765 26.6096Z" fill="#FFF9EF"/>
<path fill-rule="evenodd" clip-rule="evenodd" d="M30.7024 27.9478C30.7591 27.9594 30.7962 28.0117 30.7854 28.0646L29.9056 32.3654C29.8948 32.4184 29.8401 32.4519 29.7835 32.4403C29.7268 32.4287 29.6897 32.3764 29.7005 32.3235L30.5803 28.0227C30.5911 27.9697 30.6458 27.9362 30.7024 27.9478Z" fill="#592F72"/>
<path d="M32.1118 26.2988L32.3954 24.9122L31.608 25.7322L31.3644 24.7013L30.7355 25.5538L30.3333 24.4904L30.0497 25.877C29.4668 26.0874 29.0087 26.5628 28.8813 27.1857C28.6811 28.1645 29.3679 29.129 30.4122 29.3426C31.4591 29.5568 32.4674 28.9364 32.6671 27.9601C32.7972 27.3378 32.5652 26.7212 32.1118 26.2988Z" fill="#FFF9EF"/>
<path fill-rule="evenodd" clip-rule="evenodd" d="M30.3274 24.3943C30.3743 24.392 30.4179 24.4196 30.4338 24.4616L30.7668 25.342L31.2803 24.6459C31.3037 24.6141 31.3453 24.599 31.3862 24.6074C31.427 24.6157 31.4594 24.646 31.4684 24.6844L31.6673 25.5262L32.3193 24.8473C32.3504 24.8149 32.4013 24.8067 32.4436 24.8272C32.4858 24.8477 32.509 24.8919 32.5002 24.9351L32.2269 26.2707C32.6777 26.7141 32.905 27.3456 32.7718 27.9832M29.9598 25.8069L30.233 24.4713C30.2418 24.4281 30.2805 24.3966 30.3274 24.3943M30.3663 24.8642L30.1544 25.8999C30.1478 25.9323 30.1241 25.9589 30.0915 25.9707C29.5394 26.17 29.1065 26.6198 28.986 27.2086C28.7967 28.1344 29.4463 29.0466 30.434 29.2487C31.4242 29.4512 32.3779 28.8645 32.5668 27.941L32.5668 27.9407C32.6898 27.3525 32.4708 26.7694 32.0415 26.3696C32.0161 26.3459 32.0048 26.3122 32.0114 26.2798L32.2233 25.244L31.6885 25.801C31.6625 25.828 31.6222 25.8387 31.5842 25.8286C31.5461 25.8184 31.5168 25.7893 31.5082 25.753L31.3172 24.9445L30.824 25.6131C30.8019 25.643 30.7635 25.6583 30.7245 25.6527C30.6856 25.6471 30.6527 25.6215 30.6394 25.5864L30.3663 24.8642Z" fill="#FFF9EF"/>
<path fill-rule="evenodd" clip-rule="evenodd" d="M53.8744 30.9589C53.8744 30.9589 53.8743 30.9589 53.8743 30.9589L53.8741 30.9589L53.8714 30.9595C53.8688 30.9601 53.8645 30.961 53.8586 30.9624C53.8469 30.9652 53.8287 30.9698 53.8048 30.9767C53.7569 30.9905 53.6857 31.0135 53.5954 31.0495C53.4149 31.1216 53.1578 31.2462 52.858 31.4552C52.2589 31.8726 51.4862 32.6288 50.8127 33.9814C50.7885 34.0299 50.7265 34.0498 50.6741 34.0258C50.6218 34.0018 50.599 33.9429 50.6232 33.8943C51.3101 32.5148 52.1037 31.7335 52.7308 31.2964C53.0442 31.078 53.3152 30.9461 53.5095 30.8686C53.6066 30.8298 53.6845 30.8046 53.7389 30.7889C53.766 30.7811 53.7873 30.7757 53.8022 30.7721C53.8096 30.7703 53.8155 30.769 53.8196 30.7681L53.8246 30.7671L53.8261 30.7668L53.8267 30.7667L53.8269 30.7666C53.8269 30.7666 53.827 30.7666 53.8506 30.8627L53.827 30.7666C53.8832 30.7557 53.9393 30.79 53.9523 30.8431C53.9654 30.8961 53.9305 30.9479 53.8745 30.9589C53.8745 30.9589 53.8745 30.9589 53.8745 30.9589C53.8745 30.9589 53.8744 30.9589 53.8744 30.9589Z" fill="#592F72"/>
<path d="M56.025 30.6588L57.2722 29.8941L56.085 29.9346L56.6847 29.0632L55.5869 29.2327L56.0941 28.2343L54.8469 28.9989C54.2663 28.7539 53.5751 28.7799 53.0146 29.1236C52.1328 29.6643 51.9037 30.784 52.5024 31.6275C53.1011 32.471 54.2987 32.716 55.1805 32.1753C55.7416 31.8291 56.0388 31.2513 56.025 30.6588Z" fill="#605575"/>
<path fill-rule="evenodd" clip-rule="evenodd" d="M56.161 28.1593C56.1968 28.1889 56.2077 28.2369 56.1876 28.2764L55.7678 29.1027L56.6642 28.9643C56.7052 28.958 56.7468 28.9753 56.7702 29.0082C56.7936 29.0412 56.7942 29.0835 56.7719 29.116L56.2823 29.8275L57.2647 29.794C57.3117 29.7924 57.3548 29.8206 57.3701 29.8628C57.3853 29.905 57.3688 29.9508 57.3299 29.9747L56.129 30.711C56.1248 31.3167 55.8126 31.9015 55.2385 32.2557L55.2382 32.2559C54.3087 32.8258 53.0462 32.5675 52.4151 31.6784C51.784 30.7893 52.0255 29.6089 52.955 29.039C53.529 28.687 54.2329 28.6511 54.8336 28.8859L56.0345 28.1496C56.0735 28.1257 56.1253 28.1297 56.161 28.1593ZM55.8359 28.5085L54.9047 29.0795C54.8754 29.0974 54.838 29.1 54.8054 29.0862C54.2561 28.8545 53.6025 28.8791 53.0723 29.2042C52.2382 29.7156 52.0216 30.7746 52.5879 31.5725C53.1541 32.3703 54.2867 32.602 55.1208 32.0907C55.6518 31.7631 55.9328 31.2166 55.9198 30.6563C55.919 30.623 55.9362 30.5921 55.9655 30.5741L56.8968 30.0031L56.0907 30.0306C56.0515 30.0319 56.0142 30.0124 55.9942 29.9802C55.9743 29.9479 55.975 29.9083 55.996 29.8777L56.4661 29.1946L55.6055 29.3275C55.5669 29.3334 55.5275 29.3184 55.5035 29.2886C55.4794 29.2589 55.4748 29.2194 55.4915 29.1864L55.8359 28.5085Z" fill="#605575"/>
<path d="M61.5564 75.9537C62.0028 63.6457 49.9568 61.4571 53.6368 49.2569C55.8684 41.8618 54.2451 35.7537 52.6204 32.0892C38.7607 32.3983 27.5188 29.0661 22.0292 26.6298C21.0974 28.6667 19.6065 33.0871 19.2869 35.6999C17.7739 48.0112 28.5046 47.7701 20.6048 61.4788C16.6947 68.2602 13.1396 81.3846 31.9037 88.9312C50.6678 96.4777 61.1126 88.2622 61.5564 75.9537Z" fill="#592F72"/>
<path d="M46.9576 51.37C47.8086 51.6805 48.8932 51.8045 50.0006 51.1169C53.1166 49.174 52.9292 44.1116 49.3066 43.2263C46.261 42.4823 47.1034 47.1972 44.7677 46.7528C43.3968 46.493 43.5253 41.4617 43.5253 41.4617C35.3048 39.5304 29.7502 31.9589 29.7502 31.9589C26.9406 35.7027 21.935 35.9766 21.935 35.9766C20.5528 39.2192 19.452 43.6448 20.4548 48.5315C22.5007 58.4986 33.3635 59.2271 33.3635 59.2271L30.5185 73.1354C29.9107 76.1064 31.9933 79.0406 35.171 79.6906C38.3488 80.3407 41.4162 78.46 42.0239 75.489L45.4909 58.5404C46.2624 54.7686 46.9576 51.37 46.9576 51.37Z" fill="#FFD3DB"/>
<path d="M32.4096 63.8931C39.2181 63.2746 40.1151 58.7817 40.1151 58.7817C40.1151 58.7817 36.7358 59.669 33.3642 59.2265L32.4096 63.8931Z" fill="#FFB5C3"/>
<path fill-rule="evenodd" clip-rule="evenodd" d="M48.2964 45.7476C48.3701 45.666 48.5017 45.6578 48.5904 45.7293L50.7259 47.4485C50.8147 47.52 50.8269 47.644 50.7532 47.7255C50.6795 47.807 50.5479 47.8152 50.4592 47.7438L48.3237 46.0246C48.235 45.9531 48.2228 45.8291 48.2964 45.7476Z" fill="#592F72"/>
<path fill-rule="evenodd" clip-rule="evenodd" d="M49.6636 46.5912C49.7507 46.6644 49.7599 46.7886 49.6842 46.8685L48.3526 48.2751C48.277 48.355 48.1451 48.3604 48.0581 48.2872C47.971 48.2139 47.9618 48.0898 48.0374 48.0098L49.3691 46.6032C49.4447 46.5233 49.5766 46.5179 49.6636 46.5912Z" fill="#592F72"/>
<path fill-rule="evenodd" clip-rule="evenodd" d="M21.8814 39.574C22.5992 38.8865 23.6677 38.5503 24.7665 38.775C25.8625 38.9992 26.7158 39.7285 27.1061 40.6427C27.1494 40.7442 27.0979 40.8574 26.991 40.8954C26.8841 40.9335 26.7624 40.8821 26.7191 40.7806C26.3794 39.985 25.6382 39.3529 24.688 39.1585C23.7353 38.9636 22.808 39.2543 22.1831 39.8527C22.1034 39.9291 21.9713 39.9285 21.8879 39.8516C21.8046 39.7746 21.8016 39.6503 21.8814 39.574Z" fill="#592F72"/>
<path fill-rule="evenodd" clip-rule="evenodd" d="M35.0156 42.2602C35.7335 41.5728 36.802 41.2365 37.9007 41.4613C38.9967 41.6855 39.85 42.4148 40.2403 43.329C40.2837 43.4305 40.2322 43.5436 40.1253 43.5817C40.0184 43.6197 39.8967 43.5683 39.8533 43.4668C39.5137 42.6712 38.7725 42.0391 37.8223 41.8447C36.8695 41.6499 35.9423 41.9406 35.3174 42.539C35.2377 42.6153 35.1055 42.6148 35.0222 42.5378C34.9389 42.4608 34.9359 42.3366 35.0156 42.2602Z" fill="#592F72"/>
<path fill-rule="evenodd" clip-rule="evenodd" d="M31.474 40.1404C31.5872 40.1636 31.6615 40.2682 31.6398 40.3741C31.6253 40.4451 31.611 40.518 31.5964 40.5921C31.5196 40.9831 31.4359 41.4087 31.2786 41.7824C31.0876 42.236 30.778 42.6401 30.2176 42.8456C29.7705 43.0095 29.5869 43.2963 29.6132 43.5192C29.6387 43.7346 29.8806 44.0407 30.6476 44.2075C30.7606 44.232 30.8334 44.3375 30.8102 44.4431C30.7871 44.5487 30.6767 44.6144 30.5637 44.5898C29.738 44.4102 29.2544 44.0283 29.1982 43.5523C29.1428 43.0839 29.5214 42.6758 30.057 42.4794C30.4792 42.3245 30.7246 42.0219 30.8897 41.6297C31.0311 41.294 31.1064 40.9124 31.1836 40.5208C31.1987 40.4442 31.2139 40.3673 31.2297 40.2902C31.2513 40.1843 31.3607 40.1172 31.474 40.1404Z" fill="#592F72"/>
<path fill-rule="evenodd" clip-rule="evenodd" d="M34.2755 50.5406C34.3199 50.6417 34.2696 50.7554 34.1632 50.7945C31.8327 51.6506 29.7645 51.2968 28.284 50.7305C27.5445 50.4478 26.9506 50.1117 26.541 49.8461C26.3361 49.7132 26.1769 49.5976 26.0682 49.5147C26.0139 49.4732 25.9722 49.4399 25.9436 49.4166C25.9294 49.4049 25.9184 49.3958 25.9108 49.3894L25.902 49.3819L25.8995 49.3798L25.8987 49.3791L25.8985 49.3789C25.8984 49.3788 25.8983 49.3787 26.0377 49.2361" fill="#592F72"/>
<path d="M39.287 55.7407C41.0668 56.1048 42.7856 55.051 43.126 53.3869C43.4664 51.7229 42.2995 50.0788 40.5196 49.7147C38.7398 49.3506 37.021 50.4044 36.6806 52.0685C36.3402 53.7325 37.5071 55.3767 39.287 55.7407Z" fill="#FFB5C3"/>
<path d="M20.4906 45.6136C20.3531 45.5855 20.2189 45.5683 20.0837 45.5561C20.1282 46.5232 20.2443 47.5177 20.4502 48.5307C20.6661 49.5894 20.986 50.5433 21.3779 51.4012C22.2415 51.0036 22.9002 50.2473 23.0974 49.2834C23.4372 47.6224 22.2698 45.9775 20.4906 45.6136Z" fill="#FFB5C3"/>
<path d="M26.0089 27.1963C26.5378 25.3759 25.1523 23.3929 22.9141 22.7671C20.676 22.1413 18.4328 23.1097 17.9038 24.9301C17.3748 26.7505 18.7604 28.7335 20.9985 29.3593C23.2367 29.9851 25.4799 29.0167 26.0089 27.1963Z" fill="#FFF0D9"/>
<path fill-rule="evenodd" clip-rule="evenodd" d="M18.0027 24.9569C17.493 26.714 18.8293 28.6511 21.025 29.266C23.2207 29.8808 25.3957 28.9269 25.9054 27.1699C26.4151 25.4129 25.0788 23.4758 22.8831 22.8609C20.6874 22.2461 18.5124 23.1999 18.0027 24.9569ZM20.9705 29.454C18.6904 28.8155 17.2546 26.7848 17.8012 24.9005C18.3478 23.0163 20.6575 22.0344 22.9376 22.6729C25.2178 23.3114 26.6535 25.3421 26.1069 27.2264C25.5603 29.1106 23.2506 30.0925 20.9705 29.454Z" fill="#592F72"/>
<path fill-rule="evenodd" clip-rule="evenodd" d="M17.8932 25.0226C17.8931 25.0226 17.8931 25.0226 17.9053 24.9254C17.9175 24.8283 17.9176 24.8283 17.9177 24.8283L17.9205 24.8287L17.9291 24.8299C17.9366 24.831 17.9477 24.8325 17.9623 24.8347C17.9916 24.8389 18.0348 24.8453 18.091 24.854C18.2036 24.8715 18.3683 24.8982 18.5775 24.9354C18.9961 25.0098 19.5931 25.1261 20.308 25.2937C21.7375 25.6289 23.6406 26.1698 25.5318 26.9929C29.3064 28.6358 33.0776 31.4241 32.8657 35.9773C32.8632 36.0314 32.8145 36.0722 32.7569 36.0684C32.6993 36.0646 32.6546 36.0177 32.6571 35.9636C32.863 31.5404 29.2061 28.8062 25.4482 27.1706C23.5732 26.3546 21.6839 25.8173 20.2626 25.4841C19.5521 25.3175 18.9591 25.2021 18.544 25.1283C18.3364 25.0914 18.1734 25.0649 18.0624 25.0477C18.0069 25.0391 17.9644 25.0328 17.9358 25.0286C17.9216 25.0266 17.9108 25.025 17.9036 25.024L17.8956 25.0229L17.8932 25.0226ZM17.8016 24.9114C17.8083 24.8578 17.8602 24.8206 17.9175 24.8283L17.9053 24.9254L17.8932 25.0226C17.8359 25.0148 17.7949 24.965 17.8016 24.9114Z" fill="#592F72"/>
<path fill-rule="evenodd" clip-rule="evenodd" d="M20.3479 22.6265C20.4 22.6048 20.4622 22.6274 20.4868 22.6771L22.0177 25.7765C22.0422 25.8262 22.0198 25.884 21.9676 25.9058C21.9154 25.9275 21.8532 25.9049 21.8287 25.8553L20.2978 22.7558C20.2733 22.7062 20.2957 22.6483 20.3479 22.6265Z" fill="#592F72"/>
<path fill-rule="evenodd" clip-rule="evenodd" d="M22.6173 22.6036C22.6721 22.5879 22.7311 22.6172 22.7493 22.6691L24.072 26.4496C24.0902 26.5015 24.0605 26.5562 24.0058 26.5719C23.9511 26.5876 23.892 26.5583 23.8739 26.5064L22.5511 22.7259C22.533 22.6741 22.5626 22.6193 22.6173 22.6036Z" fill="#592F72"/>
<path fill-rule="evenodd" clip-rule="evenodd" d="M24.5479 26.5926C24.5961 26.6236 24.6094 26.6847 24.5777 26.7292L22.5304 29.6014C22.4987 29.6459 22.434 29.6568 22.3858 29.6258C22.3376 29.5949 22.3243 29.5337 22.356 29.4892L24.4033 26.617C24.435 26.5725 24.4998 26.5616 24.5479 26.5926Z" fill="#592F72"/>
<path fill-rule="evenodd" clip-rule="evenodd" d="M22.532 25.8994C22.5785 25.9325 22.5886 25.9942 22.5545 26.037L20.1554 29.0536C20.1213 29.0965 20.056 29.1043 20.0095 29.0711C19.963 29.038 19.9529 28.9763 19.987 28.9335L22.3861 25.9169C22.4202 25.874 22.4855 25.8662 22.532 25.8994Z" fill="#592F72"/>
<path fill-rule="evenodd" clip-rule="evenodd" d="M20.4373 25.3666C20.4616 25.4164 20.439 25.4742 20.3867 25.4957L17.92 26.513C17.8678 26.5346 17.8057 26.5118 17.7813 26.462C17.757 26.4123 17.7797 26.3545 17.8319 26.333L20.2986 25.3156C20.3509 25.2941 20.413 25.3169 20.4373 25.3666Z" fill="#592F72"/>
<path fill-rule="evenodd" clip-rule="evenodd" d="M39.8316 23.4611C39.8805 23.4911 39.8954 23.552 39.8648 23.5972L39.7763 23.543L39.6877 23.4888C39.7183 23.4436 39.7827 23.4312 39.8316 23.4611ZM39.7763 23.543C39.6877 23.4888 39.6878 23.4887 39.6877 23.4888L39.6871 23.4897L39.6853 23.4924L39.6784 23.5027C39.6723 23.5118 39.6633 23.5254 39.6516 23.5433C39.6281 23.579 39.5935 23.6321 39.5491 23.7018C39.4603 23.8412 39.3319 24.047 39.1734 24.3135C38.8564 24.8463 38.4189 25.6216 37.9357 26.5924C36.9696 28.5337 35.8205 31.2586 35.0899 34.3914C35.0776 34.444 35.1133 34.4972 35.1697 34.5101C35.226 34.523 35.2816 34.4908 35.2939 34.4382C36.0204 31.3231 37.1635 28.612 38.1253 26.6794C38.6061 25.7132 39.0414 24.9421 39.3563 24.4127C39.5138 24.148 39.6411 23.9438 39.729 23.8059C39.7729 23.737 39.807 23.6846 39.83 23.6496C39.8415 23.6321 39.8503 23.6189 39.8561 23.6101L39.8627 23.6003L39.8643 23.5979L39.8648 23.5972C39.8648 23.5971 39.8648 23.5972 39.7763 23.543Z" fill="#592F72"/>
<path fill-rule="evenodd" clip-rule="evenodd" d="M42.2449 25.7562C42.2975 25.7353 42.3593 25.7589 42.383 25.8089C42.4066 25.8589 42.3831 25.9164 42.3305 25.9373L42.2937 25.8594C42.3305 25.9373 42.3305 25.9373 42.3305 25.9373L42.3287 25.9381L42.3235 25.9401L42.3034 25.948C42.2857 25.9549 42.2595 25.965 42.2255 25.978C42.1576 26.004 42.0582 26.0414 41.9322 26.0874C41.6803 26.1792 41.3219 26.3052 40.8955 26.4417C40.0435 26.7145 38.917 27.0305 37.8252 27.2002C37.7686 27.209 37.7138 27.1727 37.703 27.1193C37.6921 27.0658 37.7292 27.0153 37.7859 27.0065C38.8618 26.8393 39.9764 26.527 40.8235 26.2557C41.2467 26.1202 41.6025 25.9952 41.8522 25.9041C41.9771 25.8586 42.0755 25.8215 42.1425 25.7959C42.1761 25.7831 42.2018 25.7731 42.219 25.7664L42.2385 25.7588L42.2434 25.7568L42.2446 25.7564L42.2449 25.7562Z" fill="#592F72"/>
<path fill-rule="evenodd" clip-rule="evenodd" d="M41.3141 28.8699C41.3674 28.8508 41.4284 28.8763 41.4502 28.927C41.472 28.9777 41.4464 29.0344 41.3931 29.0535L41.3586 28.9733C41.393 29.0535 41.3931 29.0535 41.3931 29.0535L41.391 29.0542L41.3855 29.0562C41.3807 29.0579 41.3736 29.0604 41.3642 29.0637C41.3455 29.0702 41.3179 29.0797 41.282 29.0918C41.2102 29.1161 41.1052 29.1506 40.9722 29.1921C40.7061 29.2751 40.3274 29.3861 39.876 29.4981C38.9741 29.7219 37.7776 29.9511 36.6082 29.9681C36.5506 29.969 36.5019 29.9257 36.4995 29.8715C36.4971 29.8173 36.5418 29.7727 36.5994 29.7719C37.7451 29.7552 38.9234 29.5302 39.8177 29.3083C40.2643 29.1974 40.6389 29.0877 40.9017 29.0057C41.0331 28.9647 41.1365 28.9306 41.2069 28.9069C41.2421 28.895 41.269 28.8857 41.2871 28.8794C41.2961 28.8763 41.3029 28.8739 41.3075 28.8723L41.3125 28.8705L41.3137 28.8701L41.3141 28.8699Z" fill="#592F72"/>
<path fill-rule="evenodd" clip-rule="evenodd" d="M38.1579 29.6611C38.1959 29.6213 38.2618 29.6188 38.3052 29.6556C38.698 29.989 39.203 30.3415 39.6116 30.6116C39.8156 30.7464 39.9948 30.8602 40.1229 30.9403C40.187 30.9803 40.2383 31.0119 40.2735 31.0334C40.2911 31.0442 40.3047 31.0525 40.3139 31.058L40.3243 31.0643L40.3275 31.0662L40.3277 31.0663C40.3768 31.0959 40.3923 31.1567 40.3621 31.2021C40.332 31.2476 40.2677 31.2605 40.2186 31.2309L40.2731 31.1486C40.2186 31.2309 40.2186 31.2309 40.2186 31.2309L40.2148 31.2287L40.2041 31.2222C40.1947 31.2165 40.1808 31.208 40.1629 31.1971C40.1272 31.1752 40.0753 31.1433 40.0106 31.1029C39.8812 31.022 39.7004 30.9072 39.4946 30.7711C39.0837 30.4996 38.5703 30.1416 38.1675 29.7998C38.1242 29.763 38.1198 29.7009 38.1579 29.6611Z" fill="#592F72"/>
<path fill-rule="evenodd" clip-rule="evenodd" d="M37.5131 31.9271C37.5443 31.9735 37.5302 32.0338 37.4817 32.0619L35.5978 33.1521C35.5493 33.1802 35.4847 33.1654 35.4535 33.119C35.4224 33.0726 35.4365 33.0123 35.485 32.9842L37.3688 31.894C37.4174 31.8659 37.4819 31.8808 37.5131 31.9271Z" fill="#592F72"/>
<path fill-rule="evenodd" clip-rule="evenodd" d="M34.6022 29.2776C34.6548 29.2568 34.7165 29.2806 34.74 29.3307L34.6446 29.3683L34.5492 29.4058C34.5258 29.3557 34.5495 29.2983 34.6022 29.2776ZM34.6446 29.3683C34.5492 29.4058 34.5492 29.4058 34.5492 29.4058L34.5514 29.4103L34.5575 29.4233C34.5629 29.4346 34.5708 29.4513 34.5811 29.4729C34.6017 29.5159 34.6319 29.5782 34.6699 29.6554C34.7459 29.8098 34.8538 30.0239 34.9809 30.2632C35.2342 30.7401 35.5673 31.3225 35.8796 31.7285C35.9138 31.773 35.9791 31.7839 36.0255 31.7529C36.072 31.7219 36.0819 31.6608 36.0477 31.6163C35.7464 31.2247 35.4199 30.655 35.1672 30.1793C35.0412 29.9422 34.9343 29.7299 34.859 29.5768C34.8213 29.5003 34.7915 29.4387 34.7711 29.3962C34.761 29.375 34.7531 29.3586 34.7479 29.3475L34.7419 29.3349L34.74 29.3307L34.6446 29.3683Z" fill="#592F72"/>
<path fill-rule="evenodd" clip-rule="evenodd" d="M36.1445 27.4486C36.1985 27.4309 36.2587 27.4582 36.2788 27.5094L36.1811 27.5414L36.0833 27.5733C36.0631 27.522 36.0905 27.4662 36.1445 27.4486ZM36.1811 27.5414L36.0833 27.5733L36.0877 27.5846L36.1006 27.617C36.1118 27.6452 36.1282 27.6862 36.1488 27.7374C36.19 27.8398 36.2482 27.9833 36.3163 28.1474C36.4522 28.4753 36.6281 28.887 36.7862 29.2189C36.81 29.2688 36.8719 29.2922 36.9244 29.2712C36.9769 29.2501 37.0002 29.1926 36.9764 29.1426C36.8205 28.8154 36.6462 28.4074 36.5105 28.0804C36.4428 27.917 36.3848 27.7742 36.3438 27.6723C36.3233 27.6213 36.3071 27.5805 36.2959 27.5525L36.2832 27.5205L36.2788 27.5094L36.1811 27.5414Z" fill="#592F72"/>
<path fill-rule="evenodd" clip-rule="evenodd" d="M35.8213 24.1708L35.8218 24.172L35.8232 24.1759L35.8292 24.1916C35.8345 24.2055 35.8425 24.2262 35.8532 24.2532C35.8744 24.3071 35.9062 24.386 35.9481 24.4852C36.0317 24.6837 36.1555 24.9635 36.3158 25.2882C36.6367 25.9384 37.102 26.7647 37.6818 27.4777C37.7173 27.5213 37.7091 27.5828 37.6637 27.615C37.6182 27.6472 37.5526 27.6379 37.5171 27.5943C36.9239 26.8647 36.4509 26.0236 36.1268 25.3669C35.9645 25.0382 35.8391 24.7547 35.7542 24.5533C35.7118 24.4526 35.6794 24.3723 35.6576 24.3171C35.6467 24.2895 35.6385 24.2682 35.6329 24.2537L35.6266 24.2371L35.625 24.2328L35.6245 24.2313C35.6245 24.2313 35.6244 24.2312 35.7229 24.201L35.6245 24.2313C35.6053 24.1798 35.6338 24.1243 35.6882 24.1076C35.7425 24.091 35.8022 24.1193 35.8213 24.1708Z" fill="#592F72"/>
<path fill-rule="evenodd" clip-rule="evenodd" d="M37.4928 25.0272C37.5503 25.0257 37.5996 25.0683 37.6027 25.1225C37.6027 25.1225 37.6027 25.1225 37.6027 25.1225L37.6028 25.123L37.6029 25.1248L37.6034 25.1327C37.6039 25.1397 37.6047 25.1502 37.6058 25.1639C37.6081 25.1913 37.6118 25.2316 37.6175 25.2821C37.6289 25.3832 37.6483 25.5251 37.6799 25.688C37.7435 26.0155 37.8554 26.4198 38.0473 26.7467C38.0755 26.7947 38.0575 26.854 38.0072 26.8792C37.9569 26.9044 37.8933 26.886 37.8651 26.838C37.6567 26.483 37.5397 26.0538 37.4745 25.7183C37.4418 25.5496 37.4217 25.4026 37.4099 25.2977C37.404 25.2452 37.4001 25.2031 37.3976 25.174C37.3964 25.1595 37.3956 25.1482 37.3951 25.1404L37.3944 25.1315L37.3943 25.1291L37.3943 25.1284L37.3942 25.1282C37.3942 25.1282 37.3942 25.1281 37.4985 25.1253L37.3942 25.1282C37.3911 25.074 37.4352 25.0287 37.4928 25.0272Z" fill="#592F72"/>
<path fill-rule="evenodd" clip-rule="evenodd" d="M36.9806 26.5121C36.9809 26.5663 36.9345 26.6094 36.8768 26.6082L36.8762 26.5101C36.8768 26.6082 36.8768 26.6082 36.8768 26.6082L36.8758 26.6082L36.8732 26.6081L36.8632 26.6079C36.8543 26.6077 36.8414 26.6073 36.8244 26.6068C36.7905 26.6057 36.7407 26.6039 36.6768 26.601C36.5492 26.5953 36.3651 26.5852 36.1391 26.5678C35.6872 26.5329 35.0665 26.4688 34.3918 26.3515C34.3349 26.3416 34.296 26.2904 34.3051 26.2371C34.3141 26.1838 34.3676 26.1487 34.4245 26.1586C35.0904 26.2743 35.7037 26.3377 36.1507 26.3721C36.3741 26.3894 36.5557 26.3993 36.6813 26.405C36.7441 26.4078 36.7929 26.4096 36.8259 26.4106C36.8424 26.4111 36.8549 26.4115 36.8633 26.4117L36.8727 26.4119L36.875 26.412L36.8755 26.412" fill="#592F72"/>
<path d="M41.6592 25.2229C42.0157 24.907 42.5838 24.9305 42.9268 25.2736C43.2724 25.6173 43.2624 26.1509 42.9063 26.4643C42.5498 26.7802 41.9817 26.7567 41.6387 26.4136C41.2952 26.0729 41.3052 25.5393 41.6592 25.2229Z" fill="#605575"/>
<path fill-rule="evenodd" clip-rule="evenodd" d="M41.7338 25.2956C41.4206 25.5758 41.4126 26.0474 41.7154 26.3477L41.7157 26.348C42.0185 26.651 42.5203 26.6719 42.8355 26.3927L42.8357 26.3925C43.1501 26.1158 43.1591 25.6444 42.8537 25.3407L42.8534 25.3404C42.5507 25.0376 42.049 25.0166 41.7338 25.2956ZM43.0037 25.2079C42.6206 24.8247 41.9863 24.7987 41.5883 25.1513L41.5883 25.1513L41.588 25.1516C41.1935 25.5043 41.1816 26.0996 41.5655 26.4806C41.9486 26.8637 42.5828 26.8897 42.9807 26.5373C43.3783 26.1872 43.3893 25.5915 43.0037 25.2079Z" fill="#605575"/>
<path d="M40.9124 28.3069C41.269 27.9909 41.8371 28.0145 42.1801 28.3576C42.5257 28.7012 42.5157 29.2348 42.1596 29.5482C41.803 29.8642 41.2349 29.8406 40.8919 29.4975C40.5458 29.1563 40.5558 28.6228 40.9124 28.3069Z" fill="#FFF9EF"/>
<path fill-rule="evenodd" clip-rule="evenodd" d="M42.104 28.4244C41.8012 28.1215 41.2994 28.1005 40.9842 28.3797C40.6687 28.6592 40.6605 29.1305 40.9657 29.4314L40.9663 29.432C41.2691 29.7349 41.7709 29.7559 42.0861 29.4766L42.0863 29.4764C42.4007 29.1997 42.4097 28.7284 42.1042 28.4246L42.104 28.4244ZM42.2543 28.2919C41.8711 27.9087 41.2368 27.8827 40.8389 28.2352C40.4413 28.5875 40.4294 29.1831 40.8162 29.5646C41.1993 29.9476 41.8334 29.9736 42.2313 29.6212C42.6289 29.2711 42.6398 28.6754 42.2543 28.2919Z" fill="#FFF9EF"/>
<path d="M35.0974 23.577C35.4539 23.2611 36.022 23.2846 36.365 23.6278C36.7106 23.9714 36.7006 24.505 36.3445 24.8184C35.988 25.1344 35.4199 25.1108 35.0769 24.7677C34.7334 24.4271 34.7434 23.8935 35.0974 23.577Z" fill="#FFF9EF"/>
<path fill-rule="evenodd" clip-rule="evenodd" d="M35.1707 23.6471C34.8576 23.9273 34.8495 24.3989 35.1523 24.6992L35.1526 24.6995C35.4554 25.0024 35.9573 25.0234 36.2724 24.7441L36.2727 24.7439C36.587 24.4672 36.5961 23.9959 36.2906 23.6921L36.2904 23.6919C35.9876 23.389 35.4859 23.368 35.1707 23.6471ZM36.4406 23.5594C36.0575 23.1762 35.4232 23.1502 35.0252 23.5027L35.0252 23.5027L35.0249 23.503C34.6304 23.8557 34.6185 24.4511 35.0024 24.832C35.3855 25.2151 36.0197 25.2412 36.4176 24.8887C36.8153 24.5386 36.8262 23.9429 36.4406 23.5594Z" fill="#FFF9EF"/>
<path d="M36.9433 24.9045C37.3602 24.5365 38.0243 24.5616 38.4269 24.9633C38.8295 25.365 38.8203 25.9888 38.4035 26.3568C37.9867 26.7248 37.3226 26.6996 36.92 26.298C36.5174 25.8963 36.5265 25.2724 36.9433 24.9045Z" fill="#605575"/>
<path fill-rule="evenodd" clip-rule="evenodd" d="M38.3509 25.0302C37.9887 24.6688 37.3906 24.6459 37.015 24.9775C36.64 25.3086 36.6313 25.8703 36.9942 26.2323C37.3564 26.5938 37.9545 26.6167 38.3301 26.2851C38.7051 25.954 38.7138 25.3923 38.3509 25.0302ZM36.8699 24.8328C37.3279 24.4285 38.0582 24.4557 38.5011 24.8977C38.9435 25.339 38.9338 26.025 38.4752 26.4298C38.0172 26.8341 37.2869 26.8069 36.844 26.3649C36.4016 25.9236 36.4113 25.2376 36.8699 24.8328Z" fill="#605575"/>
<path d="M33.7859 25.6341C34.1425 25.3181 34.7106 25.3417 35.0536 25.6848C35.3992 26.0284 35.3892 26.562 35.0331 26.8755C34.6765 27.1914 34.1084 27.1679 33.7655 26.8247C33.4198 26.4811 33.4298 25.9475 33.7859 25.6341Z" fill="#FFF9EF"/>
<path fill-rule="evenodd" clip-rule="evenodd" d="M34.9761 25.7489C34.6733 25.446 34.1715 25.425 33.8563 25.7043L33.8561 25.7045C33.5417 25.9812 33.5327 26.4525 33.8382 26.7563L33.8384 26.7565C34.1412 27.0594 34.643 27.0804 34.9582 26.8011L34.9584 26.8009C35.2728 26.5242 35.2818 26.0529 34.9763 25.7491L34.9761 25.7489ZM35.1264 25.6164C34.7433 25.2333 34.1091 25.2072 33.7111 25.5596C33.3135 25.9098 33.3025 26.5054 33.6881 26.889C34.0712 27.2721 34.7054 27.2982 35.1034 26.9458C35.501 26.5956 35.512 26 35.1264 25.6164Z" fill="#FFF9EF"/>
<path d="M39.6469 30.5255C40.0034 30.2096 40.5715 30.2331 40.9145 30.5762C41.2601 30.9198 41.2501 31.4534 40.894 31.7669C40.5374 32.0828 39.9694 32.0593 39.6264 31.7161C39.2829 31.3755 39.2903 30.8414 39.6469 30.5255Z" fill="#FFF9EF"/>
<path fill-rule="evenodd" clip-rule="evenodd" d="M40.8399 30.6403C40.5371 30.3374 40.0353 30.3164 39.7201 30.5957C39.4049 30.8749 39.3986 31.3469 39.7019 31.6476L39.7022 31.6479C40.005 31.9508 40.5068 31.9718 40.822 31.6926L40.8222 31.6924C41.1366 31.4156 41.1456 30.9443 40.8401 30.6405L40.8399 30.6403ZM40.9902 30.5078C40.607 30.1246 39.9727 30.0986 39.5748 30.4512C39.1769 30.8037 39.1684 31.3999 39.5519 31.7804C39.9351 32.1636 40.5692 32.1896 40.9672 31.8372C41.3648 31.487 41.3758 30.8914 40.9902 30.5078Z" fill="#FFF9EF"/>
<path d="M39.0227 22.7179C39.3793 22.402 39.9474 22.4255 40.2903 22.7686C40.6359 23.1123 40.6259 23.6459 40.2699 23.9593C39.9133 24.2752 39.3452 24.2517 39.0022 23.9086C38.6592 23.5654 38.6666 23.0313 39.0227 22.7179Z" fill="#FFF9EF"/>
<path fill-rule="evenodd" clip-rule="evenodd" d="M40.2156 22.8327C39.9128 22.5298 39.411 22.5089 39.0958 22.7881L39.0956 22.7883C38.7816 23.0647 38.7744 23.5367 39.0779 23.8403C39.3807 24.1433 39.8825 24.1642 40.1977 23.885L40.1979 23.8848C40.5123 23.6081 40.5213 23.1367 40.2158 22.833L40.2156 22.8327ZM40.3659 22.7002C39.9828 22.3171 39.3486 22.291 38.9506 22.6435C38.5526 22.9939 38.5451 23.5901 38.9275 23.9727C39.3106 24.356 39.9449 24.3821 40.3429 24.0296C40.7405 23.6795 40.7515 23.0838 40.3659 22.7002Z" fill="#FFF9EF"/>
<path d="M35.5526 26.9203C35.9092 26.6044 36.4773 26.6279 36.8203 26.971C37.1659 27.3147 37.1559 27.8483 36.7998 28.1617C36.4432 28.4776 35.8751 28.4541 35.5322 28.111C35.1892 27.7679 35.1965 27.2337 35.5526 26.9203Z" fill="#FFF9EF"/>
<path fill-rule="evenodd" clip-rule="evenodd" d="M36.7456 27.0433C36.4428 26.7403 35.941 26.7194 35.6258 26.9986L35.6256 26.9988C35.3115 27.2753 35.3044 27.7473 35.6079 28.0509C35.9107 28.3538 36.4125 28.3747 36.7277 28.0955L36.7279 28.0953C37.0423 27.8186 37.0513 27.3473 36.7458 27.0435L36.7456 27.0433ZM36.8959 26.9108C36.5128 26.5276 35.8786 26.5016 35.4806 26.854C35.0826 27.2045 35.0751 27.8006 35.4575 28.1832C35.8406 28.5665 36.4749 28.5926 36.8729 28.2401C37.2705 27.89 37.2815 27.2943 36.8959 26.9108Z" fill="#FFF9EF"/>
<path d="M38.434 25.337C38.8749 24.9456 39.5797 24.9739 40.0079 25.3988C40.436 25.8237 40.4245 26.4858 39.9837 26.8771C39.5428 27.2685 38.838 27.2402 38.4098 26.8153C37.9817 26.3904 37.9932 25.7283 38.434 25.337Z" fill="#FFF9EF"/>
<path fill-rule="evenodd" clip-rule="evenodd" d="M39.9349 25.4632C39.5468 25.0781 38.9081 25.0526 38.5087 25.4071C38.109 25.7619 38.0988 26.3618 38.4866 26.7467C38.8748 27.1319 39.5135 27.1574 39.9129 26.8029C40.3125 26.4481 40.3228 25.8482 39.9349 25.4632ZM38.3632 25.2627C38.8456 24.8345 39.6165 24.8656 40.0847 25.3303C40.5532 25.7952 40.5404 26.5193 40.0583 26.9473C39.576 27.3755 38.805 27.3444 38.3369 26.8797C37.8684 26.4148 37.8811 25.6907 38.3632 25.2627Z" fill="#FFF9EF"/>
<path d="M37.5746 28.1382C38.0422 27.724 38.7882 27.753 39.2414 28.2036C39.6945 28.6542 39.6834 29.355 39.2158 29.7692C38.7482 30.1834 38.0022 30.1544 37.5491 29.7038C37.0959 29.2532 37.107 28.5524 37.5746 28.1382Z" fill="#605575"/>
<path fill-rule="evenodd" clip-rule="evenodd" d="M39.1683 28.2734C38.7553 27.8627 38.0754 27.8362 37.6491 28.2138C37.223 28.5913 37.2128 29.2299 37.6259 29.6407C38.0389 30.0514 38.7188 30.0779 39.145 29.7003C39.5711 29.3228 39.5814 28.6842 39.1683 28.2734ZM37.5038 28.0693C38.0127 27.6184 38.8248 27.6499 39.3182 28.1405C39.8114 28.631 39.7994 29.3939 39.2903 29.8448C38.7814 30.2957 37.9693 30.2642 37.4759 29.7736C36.9827 29.2831 36.9947 28.5203 37.5038 28.0693Z" fill="#605575"/>
<path d="M36.6044 31.1623C37.0719 30.7481 37.8179 30.7771 38.2711 31.2277C38.7243 31.6784 38.7132 32.3791 38.2456 32.7933C37.778 33.2076 37.032 33.1786 36.5788 32.7279C36.1256 32.2773 36.1368 31.5765 36.6044 31.1623Z" fill="#FFF9EF"/>
<path fill-rule="evenodd" clip-rule="evenodd" d="M38.1954 31.2921C37.7824 30.8814 37.1025 30.8549 36.6762 31.2325C36.2501 31.61 36.2399 32.2487 36.653 32.6595C37.066 33.0701 37.7459 33.0966 38.1722 32.719C38.5983 32.3415 38.6085 31.7029 38.1954 31.2921ZM36.5309 31.088C37.0399 30.6372 37.852 30.6687 38.3453 31.1593C38.8386 31.6497 38.8265 32.4126 38.3175 32.8635C37.8085 33.3144 36.9964 33.2829 36.5031 32.7923C36.0098 32.3018 36.0219 31.539 36.5309 31.088Z" fill="#FFF9EF"/>
<path d="M33.8234 28.5517C34.291 28.1375 35.037 28.1664 35.4902 28.6171C35.9434 29.0677 35.9323 29.7685 35.4647 30.1827C34.9971 30.5969 34.2511 30.5679 33.7979 30.1173C33.3452 29.6642 33.3564 28.9634 33.8234 28.5517Z" fill="#605575"/>
<path fill-rule="evenodd" clip-rule="evenodd" d="M35.4131 28.6842C35.0001 28.2735 34.3202 28.247 33.894 28.6246L33.8938 28.6247C33.4687 28.9995 33.4578 29.638 33.8708 30.0516C34.2838 30.4622 34.9637 30.4887 35.3899 30.1111C35.816 29.7336 35.8262 29.095 35.4131 28.6842ZM33.7487 28.48C34.2577 28.0292 35.0697 28.0607 35.563 28.5513C36.0563 29.0418 36.0443 29.8046 35.5352 30.2556C35.0263 30.7065 34.2142 30.675 33.7208 30.1844L33.7206 30.1841C33.2284 29.6915 33.2398 28.9287 33.7487 28.48Z" fill="#605575"/>
</svg>
