<svg width="81" height="54" viewBox="0 0 81 54" fill="none" xmlns="http://www.w3.org/2000/svg">
<path d="M25.8213 51.9742L19.5824 52.0488C17.6874 52.0715 16.1343 50.4027 16.1137 48.3216L15.7008 6.70009C15.6801 4.61901 17.1997 2.9135 19.0948 2.89083L25.3337 2.81619C27.2287 2.79352 28.7818 4.46227 28.8024 6.54335L29.2153 48.1649C29.236 50.246 27.7164 51.9515 25.8213 51.9742Z" fill="#B994DA"/>
<path d="M25.3343 2.81681L20.6552 2.87279C22.5502 2.85012 24.1033 4.51886 24.1239 6.59994L24.5368 48.2215C24.5575 50.3026 23.0379 52.0081 21.1428 52.0307L25.822 51.9747C27.717 51.9521 29.2366 50.2466 29.216 48.1655L28.8031 6.54396C28.7824 4.46288 27.2294 2.79414 25.3343 2.81681Z" fill="#9C71BC"/>
<path d="M13.9129 46.7202L8.92184 46.78C7.71586 46.7944 6.72758 45.7325 6.71444 44.4081L6.38139 10.8368C6.36826 9.51247 7.33524 8.42718 8.54121 8.41275L13.5323 8.35304C14.7383 8.33861 15.7266 9.40051 15.7397 10.7249L16.0728 44.2962C16.0859 45.6205 15.1189 46.7058 13.9129 46.7202Z" fill="#B994DA"/>
<path d="M13.5318 8.35334L8.85266 8.40932C10.0586 8.39489 11.0469 9.45679 11.0601 10.7811L11.3931 44.3525C11.4062 45.6768 10.4393 46.7621 9.23329 46.7765L13.9124 46.7205C15.1184 46.7061 16.0854 45.6208 16.0723 44.2965L15.7392 10.7252C15.7261 9.40081 14.7378 8.33891 13.5318 8.35334Z" fill="#9C71BC"/>
<path d="M6.61496 34.4734L3.49552 34.5107C2.63409 34.521 1.9282 33.7626 1.91881 32.8166L1.81686 22.5396C1.80747 21.5937 2.49815 20.8185 3.35959 20.8082L6.47903 20.7708L6.61496 34.4734Z" fill="#FFEED2"/>
<path d="M28.9637 22.9469L52.2035 22.6689L52.2909 31.4758L29.0511 31.7539L28.9637 22.9469Z" fill="#FFD3DB"/>
<path d="M47.5253 22.7253L52.2044 22.6693L52.2918 31.4763L47.6126 31.5323L47.5253 22.7253Z" fill="#FFB5C3"/>
<path d="M62.1616 51.5346L55.9227 51.6092C54.0277 51.6319 52.4746 49.9632 52.454 47.8821L52.041 6.26055C52.0204 4.17947 53.54 2.47396 55.435 2.45129L61.6739 2.37665C63.569 2.35398 65.122 4.02272 65.1427 6.1038L65.5556 47.7254C65.5762 49.8064 64.0567 51.5119 62.1616 51.5346Z" fill="#B994DA"/>
<path d="M61.6746 2.38097L56.9954 2.43695C58.8905 2.41428 60.4435 4.08303 60.4642 6.1641L60.8771 47.7857C60.8977 49.8667 59.3782 51.5722 57.4831 51.5949L62.1623 51.5389C64.0573 51.5163 65.5769 49.8108 65.5562 47.7297L65.1433 6.10812C65.1227 4.02705 63.5696 2.3583 61.6746 2.38097Z" fill="#9C71BC"/>
<path d="M72.7152 46.0148L67.7241 46.0745C66.5181 46.0889 65.5299 45.027 65.5167 43.7027L65.1837 10.1314C65.1705 8.80701 66.1375 7.72172 67.3435 7.70729L72.3346 7.64758C73.5406 7.63315 74.5289 8.69505 74.542 10.0194L74.875 43.5907C74.8882 44.915 73.9212 46.0003 72.7152 46.0148Z" fill="#B994DA"/>
<path d="M72.3341 7.64788L67.6549 7.70386C68.8609 7.68943 69.8492 8.75133 69.8623 10.0757L70.1954 43.647C70.2085 44.9713 69.2415 46.0566 68.0355 46.071L72.7147 46.0151C73.9207 46.0006 74.8877 44.9153 74.8745 43.591L74.5415 10.0197C74.5283 8.69535 73.54 7.63345 72.3341 7.64788Z" fill="#9C71BC"/>
<path d="M77.8965 33.6167L74.7771 33.6541L74.6411 19.9515L77.7606 19.9142C78.622 19.9039 79.3279 20.6623 79.3373 21.6083L79.4392 31.8853C79.4486 32.8313 78.7579 33.6064 77.8965 33.6167Z" fill="#FFEED2"/>
<path d="M77.7466 18.6325L75.7969 18.6558L75.7111 10.0061C75.691 7.97552 74.1702 6.3415 72.3212 6.36362L67.3301 6.42333C66.9768 6.42756 66.6369 6.49278 66.318 6.60845L66.3129 6.0929C66.2852 3.30682 64.1986 1.06477 61.6616 1.09512L55.4227 1.16976C52.8856 1.20011 50.844 3.49156 50.8716 6.27763L51.0217 21.4003L30.1214 21.6503L29.9714 6.52768C29.9438 3.7416 27.8571 1.49955 25.3201 1.5299L19.0812 1.60454C16.5442 1.63489 14.5025 3.92634 14.5302 6.71241L14.5353 7.22797C14.2141 7.11995 13.873 7.06288 13.5197 7.06711L8.52865 7.12682C6.6796 7.14894 5.19164 8.81895 5.21178 10.8495L5.22824 12.5087C5.23528 13.2182 5.76474 13.7871 6.41078 13.7793C7.05681 13.7716 7.57486 13.1902 7.56782 12.4807L7.55136 10.8215C7.54527 10.2076 7.99513 9.70274 8.55414 9.69605L13.5452 9.63634C14.1042 9.62965 14.564 10.1237 14.5701 10.7375L14.9031 44.3088C14.9092 44.9227 14.4594 45.4276 13.9004 45.4343L8.90927 45.494C8.35027 45.5007 7.8905 45.0067 7.88441 44.3928L7.62235 17.9775C7.61532 17.2681 7.08586 16.6992 6.43982 16.7069C5.79378 16.7146 5.27574 17.296 5.28277 18.0055L5.29759 19.4993L3.34794 19.5226C1.84297 19.5406 0.631775 20.9 0.648171 22.5527L0.750124 32.8296C0.76652 34.4823 2.0044 35.8124 3.50937 35.7944L5.45902 35.7711L5.54483 44.4208C5.56497 46.4514 7.08571 48.0854 8.93476 48.0632L13.9259 48.0035C14.2791 47.9993 14.619 47.9341 14.938 47.8184L14.9431 48.334C14.9707 51.12 17.0573 53.3621 19.5944 53.3317L25.8333 53.2571C28.3703 53.2268 30.4119 50.9353 30.3843 48.1492L30.2343 33.0266L31.9369 33.0062C32.5829 32.9985 33.101 32.417 33.0939 31.7076C33.0869 30.9981 32.5574 30.4292 31.9114 30.437L30.2088 30.4573L30.1469 24.2196L51.0471 23.9695L51.109 30.2073L36.9823 30.3763C36.3363 30.384 35.8183 30.9655 35.8253 31.6749C35.8323 32.3844 36.3618 32.9533 37.0078 32.9455L51.1345 32.7765L51.2845 47.8992C51.3122 50.6853 53.3988 52.9273 55.9358 52.897L62.1747 52.8223C64.7118 52.792 66.7534 50.5005 66.7258 47.7145L66.7207 47.1989C67.0418 47.3069 67.3829 47.364 67.7362 47.3598L72.7273 47.3001C74.5763 47.2779 76.0643 45.6079 76.0442 43.5774L76.0269 41.8426C76.0199 41.1332 75.4904 40.5643 74.8444 40.572C74.1984 40.5797 73.6803 41.1612 73.6874 41.8706L73.7046 43.6054C73.7107 44.2192 73.2608 44.7241 72.7018 44.7308L67.7107 44.7905C67.1517 44.7972 66.6919 44.3032 66.6858 43.6893L66.3528 10.118C66.3467 9.50415 66.7966 8.99925 67.3556 8.99256L72.3467 8.93285C72.9057 8.92616 73.3654 9.42018 73.3715 10.0341L73.6324 36.3259C73.6394 37.0353 74.1689 37.6042 74.8149 37.5965C75.4609 37.5888 75.979 37.0073 75.9719 36.2979L75.9583 34.9276L77.908 34.9043C79.413 34.8863 80.6242 33.5269 80.6078 31.8742L80.5058 21.5973C80.4894 19.9446 79.2515 18.6145 77.7466 18.6325ZM3.48388 33.2251C3.26895 33.2277 3.09204 33.0376 3.0897 32.8016L2.98775 22.5247C2.98541 22.2887 3.1585 22.0944 3.37343 22.0918L5.32308 22.0685L5.43353 33.2018L3.48388 33.2251ZM28.0447 48.1772C28.0583 49.5466 27.0548 50.673 25.8078 50.6879L19.5689 50.7625C18.3219 50.7774 17.2962 49.6754 17.2827 48.306L16.8697 6.68442C16.8562 5.31502 17.8597 4.18869 19.1067 4.17377L25.3456 4.09913C26.5926 4.08421 27.6182 5.18627 27.6318 6.55567L28.0447 48.1772ZM64.3862 47.7424C64.3998 49.1118 63.3962 50.2382 62.1492 50.2531L55.9104 50.3277C54.6634 50.3427 53.6377 49.2406 53.6241 47.8712L53.2112 6.24964C53.1976 4.88024 54.2012 3.75391 55.4482 3.73899L61.687 3.66435C62.934 3.64943 63.9597 4.75149 63.9733 6.12089L64.3862 47.7424ZM78.2682 31.9022C78.2705 32.1382 78.0974 32.3325 77.8825 32.3351L75.9329 32.3584L75.8224 21.225L77.7721 21.2017C77.987 21.1991 78.1639 21.3892 78.1662 21.6253L78.2682 31.9022Z" fill="#73468D"/>
</svg>
