<svg width="74" height="88" viewBox="0 0 74 88" fill="none" xmlns="http://www.w3.org/2000/svg">
<path d="M13.153 9.23313C11.4815 9.83207 10.7055 11.3357 10.5793 12.799C10.312 16.0115 10.2379 19.2633 10.7979 22.4775C11.8347 21.4466 12.8807 20.4223 13.3326 18.967C15.1873 19.5588 16.9753 19.4416 18.6872 18.4227C18.6924 15.102 18.6977 11.7812 18.7043 8.46832C16.836 8.54284 14.8656 7.93879 13.153 9.23313Z" fill="#592F72"/>
<path d="M13.886 59.1473C12.5149 59.702 11.9746 60.9297 11.4344 62.1574C11.0527 65.3656 11.0505 68.5644 11.5514 71.7646C11.9639 70.1299 13.1427 69.1229 14.4628 68.2289C16.0721 67.5518 17.7895 67.8679 19.4577 67.7149C19.3973 64.5756 19.3433 61.4272 19.2908 58.2865C17.4334 58.2377 15.5524 58.0067 13.886 59.1473Z" fill="#592F72"/>
<path d="M13.4172 22.2289C12.1457 22.9363 11.3074 23.9892 10.876 25.3761C10.5008 28.2026 10.5129 31.0183 10.948 33.8413C11.4581 32.0682 12.588 30.8268 14.2424 30.0365C15.762 29.6827 17.3018 29.5844 18.8485 29.7117C18.8052 26.95 18.7619 24.1883 18.72 21.4345C16.9235 21.456 15.086 21.2418 13.4172 22.2289Z" fill="#592F72"/>
<path d="M18.7133 8.46419C32.4675 8.23771 46.2231 8.01909 59.9732 7.76903C61.3639 7.74535 61.858 8.3475 61.8807 9.68768C62.1321 28.9556 62.415 48.218 62.6821 67.4831C62.0333 67.8553 61.312 67.8109 60.6002 67.8216C47.8295 68.0144 35.0614 68.2229 22.2893 68.4078C21.286 68.4207 20.2598 68.5347 19.3635 67.9054C18.8714 67.4082 18.742 66.7586 18.7256 66.1056C18.6672 63.4437 18.4867 60.7788 18.6871 58.1124C18.348 52.7221 18.429 47.3233 18.3407 41.9298C18.2761 37.8358 18.0514 33.7535 18.2626 29.6601C18.0711 26.9323 17.9755 24.1959 18.1478 21.4615C18.0211 20.4552 17.9745 19.4431 18.1065 18.4322C17.8264 15.8009 17.9258 13.1601 17.9045 10.5241C17.8989 9.74777 18.0867 9.0106 18.7133 8.46419Z" fill="#9C71BC"/>
<path d="M18.8574 29.7183C18.9589 69.4414 22.1053 53.711 11.1931 61.6852C11.1908 51.7585 10.269 42.3726 11.1857 32.2291C12.2378 29.6571 16.7132 27.93 18.8574 29.7183Z" fill="#FFF0D9" fill-opacity="0.6264"/>
<path d="M19.4605 67.7334C33.0573 67.5344 46.6606 67.3261 60.2574 67.127C61.0821 67.1129 61.927 66.9819 62.6726 67.4916C62.685 67.9348 62.7066 68.3845 62.7189 68.8277C62.31 69.6924 61.5651 69.8384 60.7216 69.7911C46.4093 70.0257 32.0929 70.2368 17.7857 70.4544C16.6366 70.4683 15.5043 70.4389 14.7834 71.5605C14.5613 72.1012 14.2445 72.6098 14.1292 73.2048C13.7485 75.255 15.1235 76.9101 17.1907 76.9062C17.8959 76.9048 18.6135 76.7878 19.3061 77.0396C20.137 77.7127 20.8928 77.0709 21.6795 76.8852C22.5784 76.7853 23.4859 76.781 24.3835 76.8594C25.1493 76.8798 25.7372 78.1134 26.646 77.1858C36.5017 76.8775 46.3608 76.8682 56.2172 76.6569C57.1287 76.4899 58.0516 76.6206 58.9677 76.5258C59.574 76.4687 60.2762 76.5893 60.6495 75.8927C60.7641 75.7594 60.9013 75.6626 61.0676 75.5931C61.9662 75.8171 62.2913 76.6592 62.8406 77.2518C63.0159 78.4439 62.5806 78.9246 61.3029 78.9448C46.4243 79.1405 31.5514 79.4161 16.67 79.5961C12.8434 79.6475 10.6038 76.1025 11.5634 71.7895C11.3449 69.5118 13.0579 68.6385 14.6031 67.6405C16.2305 67.114 17.8655 66.7239 19.4605 67.7334Z" fill="#9C71BC"/>
<path d="M10.8102 22.4986C11.5539 19.2274 14.8213 18.1074 18.698 18.436C18.977 20.3631 18.6017 21.1411 18.1483 21.4711C17.3422 22.0569 16.295 21.2596 14.8763 21.5877C13.5206 21.9049 12.6029 23.0608 11.9946 24.1303C11.6093 24.6185 11.1296 25.1231 10.8425 25.0112C10.425 24.8491 10.5731 23.5116 10.8102 22.4986Z" fill="#FFF0D9" fill-opacity="0.6264"/>
<path d="M61.035 69.2965C61.6 69.1414 62.1635 68.9784 62.7285 68.8233C62.7708 71.6257 62.8051 74.4294 62.8488 77.2396C61.9365 77.1232 61.118 76.8934 61.1648 75.7192C60.7107 75.5797 60.6029 75.1937 60.5252 74.7943C60.4752 74.4143 60.4238 74.0265 60.4618 73.6393C60.4447 73.2617 60.4118 72.8869 60.4446 72.5168C60.4196 72.1406 60.4038 71.7709 60.4288 71.4021C60.4202 71.1202 60.3867 70.8346 60.4267 70.5523C60.4506 70.038 60.5484 69.5756 61.035 69.2965Z" fill="#592F72"/>
<path d="M28.3765 43.8806C28.3202 40.02 28.2467 36.1542 28.2061 32.2909C28.1895 30.148 28.8126 29.4888 30.9228 29.4531C37.2273 29.3344 43.5424 29.23 49.8486 29.1677C52.4632 29.1413 53.0836 29.77 53.1355 32.4411C53.2584 39.5695 53.3578 46.702 53.4572 53.8344C53.4675 54.5452 53.3649 55.2594 53.3174 55.9641C53.2336 57.1123 52.577 57.672 51.4529 57.6897C44.4904 57.8016 37.5279 57.9136 30.5627 58.0098C28.9777 58.0349 28.5776 56.9953 28.5628 55.6538C28.4941 51.7224 28.436 47.8054 28.3765 43.8806Z" fill="#FFF0D9" fill-opacity="0.6264"/>
<path d="M40.5398 21.0658C36.9653 21.1218 33.396 21.1608 29.8256 21.2403C28.7751 21.2614 27.7848 21.0696 27.7577 19.8436C27.7323 18.6739 28.599 18.2962 29.7074 18.2812C36.8512 18.1863 44.0002 18.0742 51.1386 17.9479C52.2219 17.9291 53.0627 18.147 53.0628 19.4506C53.0553 20.8042 52.0972 20.8901 51.0782 20.9057C47.5666 20.9508 44.05 21.0129 40.5398 21.0658Z" fill="#FFF0D9" fill-opacity="0.6264"/>
<path d="M19.5511 72.4037C21.4221 71.5999 23.3942 72.0741 25.319 71.9979C26.0844 71.9698 25.9767 72.7011 26 73.2071C26.0788 74.6833 26.1169 76.1584 26.1786 77.6295C25.3615 79.0836 25.1455 77.1455 24.5545 77.3375C23.4574 76.719 22.371 76.4872 21.2938 77.3794C20.7083 77.2304 20.2452 79.5054 19.5583 77.4713C19.3262 77.1635 19.0641 76.8691 19.0494 76.4587C18.9994 76.0787 18.9665 75.7039 18.9966 75.3181C18.9795 74.9405 18.9558 74.5722 18.9873 74.1942C18.9623 73.818 18.9687 73.4363 19.058 73.0645C19.1309 72.7846 19.2749 72.5408 19.5511 72.4037Z" fill="#9C71BC"/>
<path d="M21.3045 77.3861C22.8542 75.7153 22.8542 75.7153 24.5652 77.3443C23.474 77.3644 22.3893 77.3753 21.3045 77.3861Z" fill="#FFEED2"/>
<path d="M61.0327 69.2894C46.2868 69.5024 31.5409 69.7154 16.7886 69.9377C15.5187 69.9565 14.4593 70.3921 14.0382 71.7449C12.4773 74.9804 14.0649 77.5297 17.6171 77.4856C18.2646 77.4781 18.912 77.4705 19.5608 77.4708C19.5501 77.084 19.5409 76.7051 19.5316 76.3261C19.5264 75.9708 19.5292 75.614 19.524 75.2586C19.5189 74.9033 19.5045 74.5414 19.4993 74.186C19.4941 73.8306 19.4955 73.466 19.4903 73.1107C19.5013 72.9873 19.5057 72.8732 19.5167 72.7498C20.6161 72.7769 21.7104 72.6348 22.8136 72.6369C25.1816 72.6372 25.1672 72.6479 25.3189 74.9615C25.3847 75.8974 25.0303 77.028 26.1746 77.6383C26.885 77.6198 27.6005 77.5842 28.3122 77.5735C37.771 77.4072 47.2311 77.2488 56.6898 77.0825C57.7602 77.0822 58.8329 77.0492 59.8944 77.0909C60.8744 77.1307 61.1772 76.6812 60.9975 75.7894L61.1467 75.7148C61.1073 75.3492 61.0693 74.9915 61.03 74.6259C61.0156 74.264 61.0077 73.8929 60.9933 73.5311C60.9974 73.1822 60.9936 72.8346 60.9977 72.4858C60.9911 72.1225 60.9754 71.7528 60.9688 71.3896C60.9606 71.1562 60.9432 70.9163 60.9349 70.6829C60.9749 70.2144 60.9992 69.7487 61.0327 69.2894Z" fill="#FFEED2"/>
</svg>
