<svg width="96" height="51" viewBox="0 0 96 51" fill="none" xmlns="http://www.w3.org/2000/svg">
<path d="M48.4417 1.57866C15.8725 2.15822 2.38474 25.3109 2.38474 25.3109C2.38474 25.3109 15.8725 48.4633 48.4417 49.0429C81.0109 48.4633 94.4987 25.3107 94.4987 25.3107C94.4987 25.3107 81.0109 2.15822 48.4417 1.57866Z" fill="#FFF0D9"/>
<path d="M88.7652 18.2178C89.1887 18.84 89.3959 19.1955 89.3959 19.1955C89.3959 19.1955 75.9082 42.3481 43.339 42.9277C22.724 42.5609 9.75651 33.1516 3.01254 26.2931C6.01227 30.6999 19.8992 48.5396 48.4388 49.0474C81.008 48.4679 94.4958 25.3152 94.4958 25.3152C94.4958 25.3152 92.6759 22.195 88.7652 18.2178Z" fill="#FFD593" fill-opacity="0.265"/>
<path d="M48.4385 49.0431C61.5454 49.0431 72.1707 38.4178 72.1707 25.3109C72.1707 12.2039 61.5454 1.57866 48.4385 1.57866C35.3315 1.57866 24.7063 12.2039 24.7063 25.3109C24.7063 38.4178 35.3315 49.0431 48.4385 49.0431Z" fill="#D4AAF3"/>
<path d="M48.4423 38.5609C41.131 38.5609 35.1829 32.6128 35.1829 25.3017C35.1829 17.9904 41.131 12.0423 48.4423 12.0423C55.7534 12.0423 61.7015 17.9904 61.7015 25.3017C61.7015 32.6128 55.7534 38.5609 48.4423 38.5609Z" fill="#592F72"/>
<path d="M56.3569 23.8117C52.8198 23.8117 49.9421 20.9341 49.9421 17.3971C49.9421 13.8599 52.8197 10.9823 56.3569 10.9823C59.8939 10.9823 62.7715 13.8599 62.7715 17.3971C62.7715 20.9341 59.8939 23.8117 56.3569 23.8117Z" fill="#FFF0D9"/>
<path d="M61.8825 5.74492C64.5132 9.56607 66.0545 14.1955 66.0545 19.1854C66.0545 32.2923 55.4293 42.9176 42.3223 42.9176C37.3324 42.9176 32.7031 41.3763 28.8818 38.7456C33.1611 44.9615 40.3251 49.0374 48.442 49.0374C61.5489 49.0374 72.1742 38.4122 72.1742 25.3051C72.1742 17.188 68.0982 10.024 61.8825 5.74492Z" fill="#9C71BC"/>
<path d="M95.6968 24.6068C95.5537 24.3612 92.1045 18.5215 84.5406 12.5656C80.1099 9.07699 75.1758 6.27243 69.875 4.2298C62.8824 1.53533 54.943 0.192544 48.4722 0.184575C48.4692 0.184575 48.4664 0.184389 48.4635 0.184389C48.4599 0.184389 48.4564 0.184389 48.4531 0.184389C48.4483 0.184389 48.4436 0.184204 48.4388 0.184204C48.434 0.184204 48.4294 0.184389 48.4246 0.184389C48.421 0.184389 48.4175 0.184389 48.4142 0.184389C48.4107 0.184389 48.4073 0.184575 48.4038 0.184575C37.9907 0.199031 26.5932 3.16113 16.9446 9.29866C16.2968 9.71067 16.1057 10.5697 16.5177 11.2177C16.9297 11.8652 17.7888 12.0563 18.4367 11.6445C23.1466 8.64849 28.2518 6.42052 33.7075 4.97005C27.4161 9.54016 23.3167 16.953 23.3167 25.3065C23.3167 33.6366 27.3931 41.0314 33.6548 45.6045C25.0122 43.2831 18.5452 39.3803 14.1558 35.9409C8.45137 31.4711 5.16269 26.9925 4.03193 25.3067C5.10691 23.7035 8.12758 19.5819 13.313 15.3465C13.9076 14.8609 13.9958 13.985 13.5102 13.3906C13.0244 12.796 12.1491 12.7076 11.5543 13.1934C4.52939 18.9317 1.3143 24.3781 1.18085 24.607C0.928974 25.0394 0.928974 25.5741 1.18085 26.0065C1.32393 26.2521 4.77292 32.0918 12.337 38.0477C16.7678 41.5363 21.7021 44.3409 27.0026 46.3835C33.9953 49.078 41.9347 50.4208 48.4055 50.4287C48.4084 50.4287 48.4112 50.4289 48.4142 50.4289C48.4223 50.4291 48.4307 50.4291 48.4388 50.4291C48.447 50.4291 48.4553 50.4291 48.4635 50.4289C48.4661 50.4289 48.4688 50.4287 48.4714 50.4287C51.139 50.4254 54.7862 50.0251 54.7862 50.0251C66.2926 48.7408 76.4932 44.5599 85.1044 37.598C85.7016 37.1154 85.7943 36.2402 85.3115 35.6432C84.829 35.0461 83.9538 34.9536 83.3567 35.4362C77.3986 40.2528 70.6331 43.6694 63.1661 45.6466C69.4599 41.0769 73.5611 33.6623 73.5611 25.307C73.5611 16.9769 69.4847 9.58205 63.223 5.00897C71.8654 7.33035 78.3325 11.2332 82.7219 14.6726C88.4268 19.1428 91.7155 23.6217 92.8461 25.3076C92.1268 26.3818 90.5384 28.5827 88.0241 31.1756C87.4896 31.7268 87.5031 32.6068 88.0543 33.141C88.6049 33.6755 89.4855 33.6621 90.0196 33.1108C93.8019 29.2105 95.6191 26.1392 95.6946 26.0102C95.9485 25.5771 95.9496 25.0405 95.6968 24.6068ZM70.781 25.3067C70.781 36.9497 61.6777 47.4079 48.4388 47.6486C35.2387 47.4092 26.0968 36.9827 26.0968 25.3067C26.0968 13.6862 35.1737 3.20524 48.4388 2.96467C61.6389 3.20394 70.781 13.6304 70.781 25.3067Z" fill="#592F72"/>
<path d="M48.4396 10.6626C40.3619 10.6626 33.7901 17.2344 33.7901 25.3121C33.7901 33.3897 40.3619 39.9613 48.4396 39.9613C56.5172 39.9613 63.0888 33.3897 63.0888 25.3121C63.0888 24.1796 62.9543 23.0505 62.6922 21.9452C63.6167 20.6626 64.1636 19.0908 64.1636 17.3925C64.1636 13.0889 60.6623 9.58783 56.3589 9.58783C54.6609 9.58783 53.089 10.1346 51.8064 11.0591C50.7014 10.7972 49.5723 10.6626 48.4396 10.6626ZM48.4396 37.1812C41.8948 37.1812 36.5702 31.8566 36.5702 25.3121C36.5702 18.7672 41.8948 13.4427 48.4396 13.4427C48.8267 13.4427 49.2135 13.462 49.5985 13.5C49.5981 13.5005 49.5977 13.5013 49.5976 13.5018C48.8855 14.7343 48.5543 16.0934 48.5543 17.3927C48.5543 20.3513 50.2092 22.9306 52.642 24.254C55.0777 25.5788 57.964 25.4726 60.2455 24.1565C60.2476 24.1554 60.2498 24.1542 60.2518 24.1531C60.2898 24.5383 60.3091 24.9251 60.3091 25.3121C60.3087 31.8566 54.9843 37.1812 48.4396 37.1812ZM60.1376 20.6986C60.1351 20.7014 60.1321 20.7038 60.1297 20.7066C57.0564 24.1984 51.3342 21.9884 51.3342 17.3927C51.3342 14.6483 53.5699 12.3679 56.3588 12.3679C60.6803 12.3679 62.9619 17.4748 60.1376 20.6986Z" fill="#592F72"/>
</svg>
