<svg width="63" height="63" viewBox="0 0 63 63" fill="none" xmlns="http://www.w3.org/2000/svg">
<g clip-path="url(#clip0_1_96)">
<path d="M35.3081 4.96194L35.3081 7.54059L28.6215 7.54059L28.6215 4.96194C28.6215 3.10438 30.1181 1.60129 31.9648 1.60129C33.8123 1.60129 35.3081 3.10317 35.3081 4.96194Z" fill="#592F72"/>
<path d="M55.3632 55.9127C55.3632 59.2858 52.644 62.0225 49.2848 62.0225L14.6422 62.0225C9.79394 62.0225 6.94223 56.607 9.5454 52.5837C10.1731 51.6117 11.0747 50.8188 12.1726 50.3291L23.6058 46.9684L40.3212 46.9684L51.7545 50.3291C53.9517 51.3106 55.3632 53.5028 55.3632 55.9127Z" fill="#E8BEB1"/>
<path d="M55.3222 55.1855C55.3222 57.1503 50.9671 59.0992 49.2875 59.0992C47.7565 59.0992 46.5077 57.8524 46.5077 56.3049L46.5077 54.4017L36.4503 55.1499C35.4241 55.2972 34.3778 55.1265 33.4507 54.6606C31.7718 53.8168 30.1416 53.857 28.7179 54.5726C27.6836 55.0925 26.5033 55.2435 25.3713 54.9997L17.4248 54.4017L17.4248 56.3049C17.4248 57.8439 16.1844 59.0992 14.645 59.0992C11.5343 59.0992 8.97137 58.2137 8.61026 55.1855C8.86219 53.0604 10.2118 51.2049 12.1753 50.3291L23.6086 46.9684L40.324 46.9684L51.7573 50.3291C53.7287 51.2099 55.0702 53.0662 55.3222 55.1855Z" fill="#FFF0D9"/>
<path d="M43.2679 25.8794C41.4913 35.4361 40.3245 32.0503 40.3245 46.9666L23.6091 46.9666C23.6091 31.9824 22.4619 35.5419 20.6656 25.8794L25.314 23.7563C27.1215 23.3447 27.598 23.4456 35.8845 23.4456C36.8139 23.4456 37.7337 23.5492 38.6304 23.7514C43.7312 26.0521 43.2048 25.7984 43.2679 25.8794Z" fill="#9C71BC"/>
<path d="M23.5568 41.9268L23.2381 36.8864C23.3945 38.1459 23.4987 39.7087 23.5568 41.9268Z" fill="#9C71BC"/>
<path d="M40.6964 36.8864L40.3777 41.9268C40.4359 39.7087 40.5401 38.1459 40.6964 36.8864Z" fill="#9C71BC"/>
<path d="M40.795 25.5301C40.3225 28.0716 39.7154 30.0584 39.2483 31.766C38.4698 34.5842 38.4208 36.1144 38.3148 40.1546C38.2517 42.5627 36.2929 44.4773 33.901 44.4773L30.0233 44.4773C27.6295 44.4773 25.6718 42.5599 25.6095 40.1546C25.4945 35.7149 25.3941 34.366 24.676 31.766C24.1642 29.8951 23.6024 28.0753 23.1293 25.5301L27.1168 23.7089C28.6583 23.3578 29.3077 23.4425 34.4615 23.4425C35.2587 23.4425 36.0477 23.5313 36.817 23.7047C41.1932 25.6785 40.7408 25.4605 40.795 25.5301Z" fill="#B994DA"/>
<path d="M25.6114 40.1576L25.3381 34.9757C25.4721 36.0561 25.5615 38.255 25.6114 40.1576Z" fill="#B994DA"/>
<path d="M38.5922 34.9757L38.3188 40.1576C38.3687 38.2548 38.4581 36.056 38.5922 34.9757Z" fill="#B994DA"/>
<path d="M52.0235 38.1913C52.0235 40.2425 50.3654 41.9235 48.3106 41.9235L33.637 41.9235C32.7175 41.9235 31.966 41.1744 31.966 40.2425L31.966 30.1618C32.321 30.1362 32.6434 30.1715 32.9354 30.2556C35.8437 31.1022 35.8437 36.8831 35.8437 36.8831L44.3844 36.8831C43.2657 35.4525 37.975 28.677 37.8456 28.5113C37.0979 27.7598 36.8349 26.7074 37.0567 25.7426L37.0567 25.7414C37.2501 24.8969 37.8127 24.152 38.6296 23.7475C40.246 24.1074 41.825 24.8073 43.2235 25.8194C51.3395 36.2397 52.0235 36.1391 52.0235 38.1913Z" fill="#FFB5C3"/>
<path d="M31.9648 30.1643L31.9648 40.2451C31.9648 41.1768 31.2134 41.926 30.2937 41.926L15.6202 41.926C12.5147 41.926 10.7837 38.2975 12.7204 35.8624C21.0426 25.4017 20.6481 25.8894 20.6915 25.8572C22.122 24.8125 23.7064 24.1194 25.3121 23.7548C27.1197 24.6636 27.5105 27.0811 26.0852 28.5138C25.9564 28.6788 20.6599 35.4618 19.5464 36.8856L28.0871 36.8856C28.0871 36.8856 28.0871 31.1047 30.9954 30.2581C31.2874 30.1741 31.6097 30.1387 31.9648 30.1643Z" fill="#FFB5C3"/>
<path d="M51.9909 37.7053C51.9473 38.0451 51.8564 38.3716 51.7256 38.6761C51.0736 39.2547 50.2181 39.6043 49.2802 39.6043L34.6066 39.6043C33.6871 39.6043 32.9355 38.8552 32.9355 37.9233L32.9355 30.2556C35.8438 31.1022 35.8438 36.8831 35.8438 36.8831L44.3845 36.8831L43.6187 35.9038L45.354 35.9038C45.354 35.0466 45.0731 34.2035 44.5312 33.5103C41.8922 30.1328 43.1766 31.7771 38.8152 26.1921C38.3136 25.688 38.0263 24.957 38.0263 24.7621C38.0966 24.4564 38.2153 24.1592 38.3838 23.8839C38.4637 23.8339 38.5461 23.7889 38.6297 23.7475C41.0182 24.2794 43.0586 25.6074 43.2673 25.8754L51.2105 35.8599C51.6566 36.4208 51.9168 37.0849 51.9909 37.7053Z" fill="#FFD0D9"/>
<path d="M30.9972 30.2581L30.9972 37.9259C30.9972 38.8576 30.2458 39.6068 29.3262 39.6068L14.6526 39.6068C13.7147 39.6068 12.8592 39.2572 12.2072 38.6786C12.0763 38.3741 11.9855 38.0477 11.9418 37.7078C12.0158 37.0892 12.2751 36.4246 12.7222 35.8624C21.0444 25.4017 20.65 25.8894 20.6934 25.8572C22.1239 24.8125 23.7083 24.1194 25.3139 23.7548C25.3939 23.795 25.4727 23.8389 25.5502 23.8876C25.7175 24.1629 25.8362 24.4589 25.9065 24.7646C25.7263 25.5532 26.136 24.8939 19.4016 33.5128C18.8684 34.1949 18.5788 35.0378 18.5788 35.9063L20.3141 35.9063L19.5482 36.8856L28.0889 36.8856C28.0889 36.8856 28.0889 31.1047 30.9972 30.2581Z" fill="#FFD0D9"/>
<path d="M38.6508 12.7564C38.6508 16.2347 37.5276 18.38 36.5496 20.6105C34.8976 24.3851 29.033 24.3846 27.3812 20.6105L26.5208 18.6482C25.3843 16.0456 25.1277 13.2719 25.3502 11.8648C25.8177 8.94667 28.5644 6.64659 31.9654 6.64659C35.6343 6.64659 38.6508 9.35777 38.6508 12.7564Z" fill="#FFB5C3"/>
<path d="M38.5795 11.8615C38.3254 14.5064 37.4936 16.1386 36.5486 18.2941C34.8965 22.0686 29.0319 22.0682 27.3801 18.2941C26.3953 16.0478 25.6108 14.5268 25.3492 11.8627C26.1313 6.98018 32.7601 4.84088 36.6928 8.43382C37.6852 9.34006 38.3662 10.5301 38.5795 11.8615Z" fill="#FFD0D9"/>
<path d="M38.6305 12.2948C32.002 9.52854 31.9244 17.1074 25.2923 13.3837C25.2838 13.1754 25.279 12.9659 25.279 12.7564C25.279 9.36118 28.2916 6.64659 31.9644 6.64659C35.437 6.64659 38.3696 9.08906 38.6305 12.2948Z" fill="#592F72"/>
<path d="M26.9496 57.822C23.2483 59.6822 22.8918 59.7226 22.3606 60.5602C22.0879 60.989 21.9352 61.4932 21.9352 62.0219L18.5919 62.0219L18.5919 55.722C28.3196 58.1655 21.7704 56.5205 26.9496 57.822Z" fill="#FFB5C3"/>
<path d="M45.3373 55.722L45.3373 62.0219L21.9364 62.0219C21.9364 61.0754 22.4267 60.2163 23.1894 59.7282C23.3498 59.625 23.1097 59.7525 26.9508 57.822C28.6472 56.6845 29.2147 56.141 30.4565 56.141C31.9317 56.141 33.1121 57.0749 33.532 58.3433L33.6362 58.6612L45.3373 55.722Z" fill="#FFB5C3"/>
<path d="M24.3188 57.1606C23.4191 57.6134 23.0346 57.7546 22.6029 58.2507C21.5664 59.4438 20.258 60.0389 18.5919 60.0389L18.5919 55.722L24.3188 57.1606Z" fill="#FFD0D9"/>
<path d="M45.34 55.722L45.34 60.0389L23.6611 60.0389C23.4308 60.0389 23.266 59.9024 23.1921 59.7282C23.2697 59.6783 23.3509 59.632 23.4345 59.5906C27.6624 57.4657 26.5118 58.1176 28.6379 56.6928C30.3682 55.5347 32.8428 56.2527 33.5347 58.3433L33.639 58.6612L45.34 55.722Z" fill="#FFD0D9"/>
<path d="M37.2137 8.96865C35.2214 10.6562 29.2333 10.9038 26.3815 9.3901C28.8916 5.92384 34.381 5.69643 37.2137 8.96865Z" fill="#6A3B85"/>
<path d="M35.3081 5.09818C33.3106 5.68773 30.5997 5.67287 28.6215 5.02266C28.6215 1.91147 32.26 0.518731 34.3302 2.5914C34.9744 3.2416 35.3081 4.05405 35.3081 5.09818Z" fill="#6A3B85"/>
<path d="M62.0186 61.0435L54.1195 61.0435C57.8307 57.5238 56.6843 51.4402 52.151 49.4146C52.0591 49.3734 52.7726 49.5882 41.2941 46.2142C41.2968 44.9453 41.3069 43.8429 41.3244 42.8797L48.3109 42.8797C52.2711 42.8797 54.3856 38.2663 51.9678 35.2331L50.1247 32.9163C49.7903 32.4961 49.1803 32.4278 48.7621 32.764C48.344 33.1002 48.276 33.7133 48.6104 34.1337L50.4542 36.4512C51.8701 38.2275 50.6301 40.9309 48.3109 40.9309C32.3241 40.9309 33.4352 41.0182 33.1428 40.7268C32.8471 40.4271 32.9357 40.9733 32.9357 31.2813C34.3931 32.0326 34.8715 35.2431 34.8745 36.865C34.8745 37.4031 35.3086 37.8394 35.844 37.8394L44.3847 37.8394C45.191 37.8394 45.6464 36.9024 45.1471 36.2631L40.4843 30.2936C40.1538 29.8704 39.5445 29.7963 39.1232 30.1287C38.702 30.461 38.6287 31.0735 38.9591 31.4968L40.4009 33.3428C40.1778 34.1837 39.9979 34.9734 39.8529 35.8905L36.7715 35.8905C36.5163 32.5726 35.2303 28.9858 31.9664 29.1683C28.7025 28.9852 27.417 32.5644 27.1611 35.8905L24.0797 35.8905C23.9347 34.9734 23.7548 34.1839 23.5317 33.3428L24.9735 31.4968C25.3041 31.0734 25.2306 30.461 24.8094 30.1287C24.388 29.7963 23.7787 29.8702 23.4483 30.2936L18.7855 36.2631C18.2876 36.9007 18.7396 37.8394 19.548 37.8394L28.0886 37.8394C28.6233 37.8394 29.0571 37.4033 29.0581 36.8658C29.0611 35.2318 29.5426 32.0311 30.9969 31.2813C30.9969 40.9608 31.0833 40.4293 30.7953 40.7214C30.4951 41.0206 31.6793 40.9309 15.6217 40.9309C13.3041 40.9309 12.0614 38.2287 13.4791 36.4505L21.3406 26.5687C23.3195 25.1482 25.6486 24.3981 28.0826 24.3981C35.9673 24.3981 38.8489 23.8998 42.5512 26.5162L43.6564 27.9067C43.9907 28.3272 44.6007 28.3957 45.0188 28.0597C45.4371 27.7237 45.5053 27.1105 45.1711 26.6901C43.9071 25.0999 43.9429 25.1208 43.7902 25.0105C41.6463 23.459 39.1036 22.5777 36.4719 22.463C37.2747 21.5808 37.4883 20.8633 38.2986 19.0156C39.1497 17.067 39.6214 14.9381 39.6214 12.7321C39.6214 10.441 38.4378 8.24424 36.2789 6.87769C36.2789 4.8697 36.5 3.37282 35.0156 1.87496C32.3189 -0.824766 27.6534 1.06507 27.6534 4.94303L27.6534 6.87769C25.6363 8.15459 24.3109 10.2785 24.3109 12.7321C24.3109 14.892 24.756 17.0061 25.6343 19.017C26.5096 21.0128 26.6961 21.6235 27.4619 22.4645C24.6925 22.5897 22.1303 23.5585 20.088 25.0741C19.9303 25.1915 20.4366 24.584 11.9652 35.2324C9.49651 38.3294 11.7357 42.8797 15.6215 42.8797L22.608 42.8797C22.6255 43.8429 22.6355 44.9453 22.6383 46.2142C11.1425 49.5933 11.8737 49.3734 11.7819 49.4142C7.23665 51.4418 6.11332 57.5364 9.81788 61.0435L1.91386 61.0435C1.37849 61.0435 0.944427 61.4798 0.944427 62.018C0.944427 62.5561 1.37849 62.9924 1.91386 62.9924L62.0186 62.9924C62.554 62.9924 62.9881 62.5561 62.9881 62.018C62.9881 61.4798 62.554 61.0435 62.0186 61.0435ZM41.929 35.2993L42.3908 35.8905L41.818 35.8905C41.8529 35.6884 41.8898 35.4921 41.929 35.2993ZM22.0034 35.2993C22.0427 35.4921 22.0795 35.6885 22.1144 35.8905L21.5416 35.8905L22.0034 35.2993ZM29.5924 4.94303C29.5924 2.827 32.1534 1.7601 33.6447 3.25308C34.4591 4.07504 34.34 4.91624 34.34 5.99557C32.7988 5.53258 31.1361 5.53185 29.5922 5.99557L29.5922 4.94303L29.5924 4.94303ZM27.8902 9.13258C30.7846 6.48791 35.7502 7.39768 37.2758 10.8262C34.6412 10.2818 32.9795 11.357 31.5993 12.2517C30.0017 13.2878 28.8215 14.0519 26.2504 12.7655C26.2502 11.3161 26.8713 10.0635 27.8902 9.13258ZM26.4353 14.964C29.0251 15.9072 30.6298 15.1995 32.6502 13.8895C34.0777 12.9639 35.3258 12.1567 37.6797 12.9518C37.628 16.1266 36.5585 18.1519 35.6628 20.1942C34.3514 23.1918 29.5798 23.1887 28.2693 20.1935C27.3721 18.1478 26.7706 16.9744 26.4353 14.964ZM24.1743 58.1047C22.99 58.6999 21.5912 59.1918 21.0977 61.024L19.5641 61.024L19.5641 56.9462L24.1743 58.1047ZM23.2022 61.024C23.542 60.5172 23.5618 60.5915 27.3854 58.6697C27.4064 58.6591 27.4531 58.6329 27.4855 58.6114C29.3049 57.3922 29.5601 57.0926 30.4943 57.0926C31.4575 57.0926 32.3089 57.7096 32.6126 58.6281L32.7177 58.9457C32.8776 59.4292 33.3811 59.707 33.8728 59.5836L44.3683 56.9462L44.3683 61.0241L23.2022 61.0241L23.2022 61.024ZM9.53602 55.8886C9.53602 53.8638 10.7168 52.0483 12.5121 51.2212L23.7474 47.9188L34.2783 47.9188C34.8137 47.9188 35.2478 47.4825 35.2478 46.9444C35.2478 46.4062 34.8137 45.9699 34.2783 45.9699L24.5765 45.9699C24.5732 44.8057 24.5634 43.7838 24.5471 42.8797L30.2951 42.8797C30.9079 42.8797 31.4905 42.6698 31.9656 42.2804C32.4379 42.6684 33.0224 42.8797 33.6372 42.8797L39.3851 42.8797C39.3611 44.2178 39.3547 45.6107 39.3547 46.9492C39.3555 47.1385 39.4115 47.3282 39.5213 47.491C39.803 47.9092 39.085 47.5955 51.42 51.2212C54.6425 52.7087 55.4195 56.9878 52.9002 59.5202C51.9353 60.49 50.6523 61.0241 49.2875 61.0241L46.3071 61.0241L46.3071 56.4591L47.2441 56.2236C47.7635 56.093 48.0794 55.564 47.9494 55.0418C47.8197 54.5199 47.2941 54.2025 46.7738 54.3328L34.2363 57.4833C33.0836 55.1255 30.1514 54.4823 28.098 55.8589L26.7707 56.7483L17.1582 54.3328C16.6392 54.2027 16.1124 54.5198 15.9826 55.0418C15.8527 55.564 16.1685 56.093 16.6879 56.2236L17.625 56.4591L17.625 61.0241L14.6448 61.0241C11.8278 61.024 9.53602 58.7204 9.53602 55.8886Z" fill="#592F72"/>
<path d="M46.9838 31.5019C47.7871 31.5019 48.2517 30.5591 47.7391 29.9173L47.5863 29.726C47.2512 29.3063 46.641 29.2393 46.2234 29.5762C45.806 29.9131 45.7393 30.5264 46.0745 30.9462C46.2758 31.1982 46.4866 31.5019 46.9838 31.5019Z" fill="#592F72"/>
</g>
<defs>
<clipPath id="clip0_1_96">
<rect width="62.0632" height="62.3847" fill="white" transform="translate(0.932526 0.608154)"/>
</clipPath>
</defs>
</svg>
