<svg width="84" height="66" viewBox="0 0 84 66" fill="none" xmlns="http://www.w3.org/2000/svg">
<path d="M11.0792 62.7865L42.389 9.27623L80.9249 11.3072L81.6457 13.4438L56.1437 64.4077L11.0792 62.7865Z" fill="#592F72" stroke="#592F72" stroke-width="1.32201"/>
<path d="M78.384 15.6795L54.6707 60.9972L9.18377 57.7947L19.3301 35.9989L62.5174 17.2669L78.384 15.6795Z" fill="#FFD2DB" stroke="#592F72" stroke-width="1.32201"/>
<path d="M52.5433 35.6351L52.5432 35.6352C49.4809 37.3345 46.8961 40.6618 45.3041 44.3855C43.8353 47.8213 43.1699 51.6919 43.8158 55.0776L2.08773 54.2694C0.690055 49.6283 0.943578 43.9375 2.56934 38.8292C4.2499 33.5486 7.3552 29.0136 11.4538 26.8905C14.0483 25.5539 16.8718 24.8804 19.7944 24.2323C19.9859 24.1899 20.1779 24.1475 20.3702 24.1051C23.0886 23.5053 25.8847 22.8884 28.5155 21.7226C34.6788 18.9922 38.7999 14.4848 40.8014 7.68136L62.8411 8.73335L62.8467 8.73357L79.9254 9.40464C80 12.6775 78.6457 16.2328 76.4118 19.5482C74.0497 23.0537 70.7486 26.2227 67.2876 28.4109C65.4708 29.5591 62.7791 30.8196 60.0209 32.0744C59.6554 32.2407 59.2888 32.4069 58.9231 32.5726C56.5556 33.6456 54.2309 34.6992 52.5433 35.6351Z" fill="#FFD2DB" stroke="#592F72" stroke-width="1.32201"/>
<mask id="path-4-inside-1_1_40" fill="white">
<path d="M1.60019 54.9243C1.60019 54.9243 1.55787 54.8113 1.49439 54.5855C1.42386 54.3423 1.32511 54.0036 1.19815 53.5607C1.05003 53.1177 0.958335 52.5271 0.831375 51.841C0.676201 51.1549 0.626828 50.3471 0.535134 49.4265C0.429334 47.5939 0.443438 45.3011 0.873693 42.6868C1.311 40.0899 2.1433 37.1543 3.63156 34.2708C4.0195 33.5673 4.38627 32.8117 4.87295 32.143C5.10571 31.7955 5.32437 31.4308 5.57829 31.0921C5.83927 30.762 6.1073 30.432 6.37533 30.1019C6.6363 29.7545 6.93254 29.4505 7.23584 29.1466C7.53913 28.8426 7.83537 28.5212 8.15983 28.2346C8.83695 27.7135 9.48586 27.1055 10.2547 26.6973C13.2383 24.8474 16.8002 24.0657 20.5103 23.2406C22.3724 22.8237 24.2838 22.3895 26.2094 21.7381C28.1279 21.0693 30.0535 20.1747 31.8803 18.9241C32.7973 18.3074 33.686 17.5952 34.5324 16.7875C35.3788 15.9885 36.1688 15.0765 36.8812 14.0517C38.3271 12.0367 39.4204 9.58748 40.1539 6.94718L40.1962 6.80824L40.3161 6.8169C46.3115 7.09483 52.5961 7.39014 59.1204 7.70281C65.6377 8.01548 72.3878 8.23258 79.3001 8.5192C79.7233 8.53657 80.1465 8.55396 80.5627 8.57133L80.7179 8.58L80.732 8.77107C80.8519 10.4473 80.605 12.1236 80.1606 13.6695C79.9631 14.4599 79.6528 15.1895 79.3707 15.9277C79.0391 16.6312 78.7288 17.3521 78.3409 18.0121C76.8738 20.7132 74.9905 22.9714 73.0085 24.9516C71.0054 26.9232 68.8329 28.556 66.5758 29.8501C64.3047 31.1094 62.0053 32.1343 59.7552 33.1591C57.5052 34.184 55.2764 35.1567 53.1603 36.2858C52.1235 36.8764 51.129 37.5625 50.2614 38.4484C49.8029 38.8479 49.4221 39.3604 49.0059 39.812C48.6391 40.3244 48.23 40.7847 47.8985 41.3319C46.509 43.4337 45.4651 45.8135 44.8867 48.2974C44.2801 50.764 44.2096 53.3783 44.7809 55.7146L44.8374 55.9491L44.6399 55.9491C31.5982 55.6625 20.8418 55.428 13.337 55.263C9.59166 55.1674 6.66451 55.0979 4.6543 55.0458C3.65978 55.0111 2.90507 54.9937 2.37606 54.9764C1.86117 54.9503 1.60019 54.9243 1.60019 54.9243C1.60019 54.9243 1.86822 54.9156 2.38311 54.9156C2.90506 54.9156 3.66682 54.9242 4.66135 54.9329C6.67156 54.959 9.59871 55.0024 13.344 55.0545C20.8559 55.1848 31.6123 55.3672 44.654 55.5843L44.5129 55.8188C43.9134 53.4043 43.9839 50.7119 44.6046 48.1932C45.19 45.6485 46.248 43.2253 47.6587 41.0887C47.9902 40.5329 48.4064 40.0552 48.7802 39.5341C49.2034 39.0738 49.5913 38.5526 50.0639 38.1444C50.9456 37.2325 51.9683 36.529 53.0263 35.921C55.1564 34.7746 57.3853 33.8018 59.6353 32.7683C61.8854 31.7434 64.1777 30.7099 66.4277 29.4679C68.6637 28.1912 70.8079 26.5671 72.7899 24.6216C74.7507 22.6587 76.6057 20.4266 78.0517 17.769C78.4326 17.1263 78.7359 16.4141 79.0603 15.7279C79.3354 15.0071 79.6316 14.2949 79.8291 13.5306C80.2523 12.028 80.4921 10.4126 80.3793 8.81452L80.5486 9.00559C80.1395 8.98822 79.7092 8.97083 79.286 8.95346C72.3737 8.66684 65.6236 8.44973 59.1063 8.12838C52.589 7.81571 46.2974 7.51172 40.302 7.22511L40.4643 7.08614C39.7166 9.76987 38.6022 12.2712 37.121 14.3209C36.3945 15.3545 35.5833 16.2838 34.7228 17.1002C33.8694 17.9253 32.9665 18.6462 32.0284 19.2628C30.1734 20.5222 28.2196 21.4167 26.287 22.0942C24.3473 22.7456 22.4217 23.1798 20.5597 23.588C16.8496 24.4044 13.3017 25.1687 10.3605 26.9839C9.60577 27.3835 8.95686 27.9828 8.29384 28.4865C7.97644 28.7731 7.68019 29.0858 7.38395 29.3811C7.08066 29.6764 6.78442 29.9717 6.5305 30.3191C6.26247 30.6491 6.00149 30.9704 5.74052 31.2918C5.48659 31.6218 5.275 31.9866 5.04224 32.3253C4.56261 32.9941 4.19583 33.7324 3.8079 34.4272C2.31964 37.2672 1.48028 40.1681 1.02887 42.7476C0.584506 45.3358 0.549237 47.6113 0.640931 49.4352C0.725571 50.3471 0.767895 51.1549 0.908962 51.841C1.02887 52.5271 1.10645 53.109 1.24752 53.5607C1.36037 54.0036 1.45207 54.351 1.51555 54.5942C1.57903 54.8027 1.60019 54.9243 1.60019 54.9243Z"/>
</mask>
<path d="M1.60019 54.9243C1.60019 54.9243 1.55787 54.8113 1.49439 54.5855C1.42386 54.3423 1.32511 54.0036 1.19815 53.5607C1.05003 53.1177 0.958335 52.5271 0.831375 51.841C0.676201 51.1549 0.626828 50.3471 0.535134 49.4265C0.429334 47.5939 0.443438 45.3011 0.873693 42.6868C1.311 40.0899 2.1433 37.1543 3.63156 34.2708C4.0195 33.5673 4.38627 32.8117 4.87295 32.143C5.10571 31.7955 5.32437 31.4308 5.57829 31.0921C5.83927 30.762 6.1073 30.432 6.37533 30.1019C6.6363 29.7545 6.93254 29.4505 7.23584 29.1466C7.53913 28.8426 7.83537 28.5212 8.15983 28.2346C8.83695 27.7135 9.48586 27.1055 10.2547 26.6973C13.2383 24.8474 16.8002 24.0657 20.5103 23.2406C22.3724 22.8237 24.2838 22.3895 26.2094 21.7381C28.1279 21.0693 30.0535 20.1747 31.8803 18.9241C32.7973 18.3074 33.686 17.5952 34.5324 16.7875C35.3788 15.9885 36.1688 15.0765 36.8812 14.0517C38.3271 12.0367 39.4204 9.58748 40.1539 6.94718L40.1962 6.80824L40.3161 6.8169C46.3115 7.09483 52.5961 7.39014 59.1204 7.70281C65.6377 8.01548 72.3878 8.23258 79.3001 8.5192C79.7233 8.53657 80.1465 8.55396 80.5627 8.57133L80.7179 8.58L80.732 8.77107C80.8519 10.4473 80.605 12.1236 80.1606 13.6695C79.9631 14.4599 79.6528 15.1895 79.3707 15.9277C79.0391 16.6312 78.7288 17.3521 78.3409 18.0121C76.8738 20.7132 74.9905 22.9714 73.0085 24.9516C71.0054 26.9232 68.8329 28.556 66.5758 29.8501C64.3047 31.1094 62.0053 32.1343 59.7552 33.1591C57.5052 34.184 55.2764 35.1567 53.1603 36.2858C52.1235 36.8764 51.129 37.5625 50.2614 38.4484C49.8029 38.8479 49.4221 39.3604 49.0059 39.812C48.6391 40.3244 48.23 40.7847 47.8985 41.3319C46.509 43.4337 45.4651 45.8135 44.8867 48.2974C44.2801 50.764 44.2096 53.3783 44.7809 55.7146L44.8374 55.9491L44.6399 55.9491C31.5982 55.6625 20.8418 55.428 13.337 55.263C9.59166 55.1674 6.66451 55.0979 4.6543 55.0458C3.65978 55.0111 2.90507 54.9937 2.37606 54.9764C1.86117 54.9503 1.60019 54.9243 1.60019 54.9243C1.60019 54.9243 1.86822 54.9156 2.38311 54.9156C2.90506 54.9156 3.66682 54.9242 4.66135 54.9329C6.67156 54.959 9.59871 55.0024 13.344 55.0545C20.8559 55.1848 31.6123 55.3672 44.654 55.5843L44.5129 55.8188C43.9134 53.4043 43.9839 50.7119 44.6046 48.1932C45.19 45.6485 46.248 43.2253 47.6587 41.0887C47.9902 40.5329 48.4064 40.0552 48.7802 39.5341C49.2034 39.0738 49.5913 38.5526 50.0639 38.1444C50.9456 37.2325 51.9683 36.529 53.0263 35.921C55.1564 34.7746 57.3853 33.8018 59.6353 32.7683C61.8854 31.7434 64.1777 30.7099 66.4277 29.4679C68.6637 28.1912 70.8079 26.5671 72.7899 24.6216C74.7507 22.6587 76.6057 20.4266 78.0517 17.769C78.4326 17.1263 78.7359 16.4141 79.0603 15.7279C79.3354 15.0071 79.6316 14.2949 79.8291 13.5306C80.2523 12.028 80.4921 10.4126 80.3793 8.81452L80.5486 9.00559C80.1395 8.98822 79.7092 8.97083 79.286 8.95346C72.3737 8.66684 65.6236 8.44973 59.1063 8.12838C52.589 7.81571 46.2974 7.51172 40.302 7.22511L40.4643 7.08614C39.7166 9.76987 38.6022 12.2712 37.121 14.3209C36.3945 15.3545 35.5833 16.2838 34.7228 17.1002C33.8694 17.9253 32.9665 18.6462 32.0284 19.2628C30.1734 20.5222 28.2196 21.4167 26.287 22.0942C24.3473 22.7456 22.4217 23.1798 20.5597 23.588C16.8496 24.4044 13.3017 25.1687 10.3605 26.9839C9.60577 27.3835 8.95686 27.9828 8.29384 28.4865C7.97644 28.7731 7.68019 29.0858 7.38395 29.3811C7.08066 29.6764 6.78442 29.9717 6.5305 30.3191C6.26247 30.6491 6.00149 30.9704 5.74052 31.2918C5.48659 31.6218 5.275 31.9866 5.04224 32.3253C4.56261 32.9941 4.19583 33.7324 3.8079 34.4272C2.31964 37.2672 1.48028 40.1681 1.02887 42.7476C0.584506 45.3358 0.549237 47.6113 0.640931 49.4352C0.725571 50.3471 0.767895 51.1549 0.908962 51.841C1.02887 52.5271 1.10645 53.109 1.24752 53.5607C1.36037 54.0036 1.45207 54.351 1.51555 54.5942C1.57903 54.8027 1.60019 54.9243 1.60019 54.9243Z" fill="#592F72"/>
<path d="M1.60019 54.9243L0.362247 55.3882L0.650757 56.1581L1.46887 56.2397L1.60019 54.9243ZM1.49439 54.5855L2.76712 54.2277L2.76408 54.2173L1.49439 54.5855ZM1.19815 53.5607L2.46899 53.1964L2.46105 53.1687L2.45192 53.1414L1.19815 53.5607ZM0.831375 51.841L2.13132 51.6004L2.12657 51.5748L2.12082 51.5494L0.831375 51.841ZM0.535134 49.4265L-0.784679 49.5027L-0.783093 49.5302L-0.780368 49.5575L0.535134 49.4265ZM0.873693 42.6868L-0.429971 42.4673L-0.430769 42.4721L0.873693 42.6868ZM3.63156 34.2708L2.4739 33.6325L2.46513 33.6484L2.4568 33.6645L3.63156 34.2708ZM4.87295 32.143L5.94187 32.9209L5.95697 32.9001L5.97124 32.8788L4.87295 32.143ZM5.57829 31.0921L4.54131 30.2721L4.53073 30.2854L4.5205 30.2991L5.57829 31.0921ZM6.37533 30.1019L7.40155 30.9353L7.41731 30.9159L7.43232 30.896L6.37533 30.1019ZM8.15983 28.2346L7.35354 27.1869L7.31811 27.2142L7.28459 27.2438L8.15983 28.2346ZM10.2547 26.6973L10.8746 27.865L10.9137 27.8442L10.9513 27.8209L10.2547 26.6973ZM20.5103 23.2406L20.7973 24.5311L20.7991 24.5307L20.5103 23.2406ZM26.2094 21.7381L26.6331 22.9904L26.6446 22.9864L26.2094 21.7381ZM31.8803 18.9241L31.1425 17.827L31.1335 17.8332L31.8803 18.9241ZM34.5324 16.7875L33.6249 15.8262L33.6197 15.8311L34.5324 16.7875ZM36.8812 14.0517L35.8071 13.2809L35.8013 13.289L35.7956 13.2971L36.8812 14.0517ZM40.1539 6.94718L38.8893 6.56199L38.8845 6.57758L38.8802 6.59329L40.1539 6.94718ZM40.1962 6.80824L40.2915 5.48966L39.239 5.41359L38.9316 6.42305L40.1962 6.80824ZM40.3161 6.8169L40.2208 8.13547L40.2379 8.1367L40.2549 8.1375L40.3161 6.8169ZM59.1204 7.70281L59.1838 6.38232L59.1837 6.38232L59.1204 7.70281ZM79.3001 8.5192L79.2454 9.84007L79.2459 9.84009L79.3001 8.5192ZM80.5627 8.57133L80.6364 7.25138L80.6271 7.25086L80.6178 7.25047L80.5627 8.57133ZM80.7179 8.58L82.0363 8.48264L81.9508 7.32479L80.7916 7.26004L80.7179 8.58ZM80.732 8.77107L82.0506 8.67675L82.0504 8.67372L80.732 8.77107ZM80.1606 13.6695L78.8901 13.3043L78.8837 13.3266L78.8781 13.349L80.1606 13.6695ZM79.3707 15.9277L80.5665 16.4912L80.5878 16.4462L80.6056 16.3996L79.3707 15.9277ZM78.3409 18.0121L77.2011 17.3423L77.1898 17.3615L77.1792 17.3812L78.3409 18.0121ZM73.0085 24.9516L73.9359 25.8938L73.9429 25.8868L73.0085 24.9516ZM66.5758 29.8501L67.2169 31.0062L67.2252 31.0017L67.2334 30.997L66.5758 29.8501ZM53.1603 36.2858L52.538 35.1194L52.5219 35.128L52.506 35.1371L53.1603 36.2858ZM50.2614 38.4484L51.1299 39.4451L51.1693 39.4108L51.2059 39.3734L50.2614 38.4484ZM49.0059 39.812L48.0337 38.9162L47.9784 38.9762L47.9309 39.0426L49.0059 39.812ZM47.8985 41.3319L49.0013 42.061L49.0157 42.0392L49.0292 42.017L47.8985 41.3319ZM44.8867 48.2974L46.1705 48.6131L46.1724 48.6052L46.1743 48.5972L44.8867 48.2974ZM44.7809 55.7146L46.0663 55.4053L46.0651 55.4006L44.7809 55.7146ZM44.8374 55.9491L44.8374 57.2711L46.5152 57.2711L46.1227 55.6398L44.8374 55.9491ZM44.6399 55.9491L44.6108 57.2708L44.6253 57.2711L44.6399 57.2711L44.6399 55.9491ZM13.337 55.263L13.3033 56.5845L13.3079 56.5847L13.337 55.263ZM4.6543 55.0458L4.60815 56.3671L4.62004 56.3674L4.6543 55.0458ZM2.37606 54.9764L2.30925 56.2967L2.32096 56.2973L2.33268 56.2977L2.37606 54.9764ZM4.66135 54.9329L4.67848 53.611L4.67289 53.611L4.66135 54.9329ZM13.344 55.0545L13.367 53.7327L13.3624 53.7326L13.344 55.0545ZM44.654 55.5843L45.7868 56.2657L46.9688 54.3007L44.676 54.2625L44.654 55.5843ZM44.5129 55.8188L43.2298 56.1374L43.9995 59.2371L45.6458 56.5003L44.5129 55.8188ZM44.6046 48.1932L45.8882 48.5095L45.8907 48.4996L45.893 48.4896L44.6046 48.1932ZM47.6587 41.0887L48.7619 41.8171L48.7786 41.7919L48.7941 41.7659L47.6587 41.0887ZM48.7802 39.5341L47.807 38.6393L47.7527 38.6983L47.706 38.7635L48.7802 39.5341ZM50.0639 38.1444L50.9281 39.1449L50.9731 39.106L51.0144 39.0633L50.0639 38.1444ZM53.0263 35.921L52.3998 34.7569L52.3836 34.7656L52.3677 34.7748L53.0263 35.921ZM59.6353 32.7683L59.0873 31.5652L59.0835 31.567L59.6353 32.7683ZM66.4277 29.4679L67.0666 30.6253L67.075 30.6207L67.0833 30.616L66.4277 29.4679ZM72.7899 24.6216L73.716 25.5651L73.7252 25.5559L72.7899 24.6216ZM78.0517 17.769L76.9144 17.095L76.902 17.1158L76.8904 17.1372L78.0517 17.769ZM79.0603 15.7279L80.2554 16.2931L80.2773 16.2469L80.2955 16.1993L79.0603 15.7279ZM79.8291 13.5306L78.5566 13.1722L78.5527 13.186L78.5492 13.1998L79.8291 13.5306ZM80.3793 8.81452L81.3688 7.93784L78.7862 5.02281L79.0606 8.90764L80.3793 8.81452ZM80.5486 9.00559L80.4925 10.3264L83.602 10.4584L81.5381 8.12892L80.5486 9.00559ZM79.286 8.95346L79.2313 10.2743L79.2318 10.2744L79.286 8.95346ZM59.1063 8.12838L59.1714 6.80797L59.1697 6.80789L59.1063 8.12838ZM40.302 7.22511L39.442 6.22108L36.9138 8.38665L40.2389 8.54561L40.302 7.22511ZM40.4643 7.08614L41.7378 7.44093L42.9037 3.2559L39.6042 6.08211L40.4643 7.08614ZM37.121 14.3209L36.0495 13.5466L36.0444 13.5536L36.0394 13.5607L37.121 14.3209ZM34.7228 17.1002L33.8129 16.1411L33.8039 16.1497L34.7228 17.1002ZM32.0284 19.2628L31.3023 18.1581L31.294 18.1635L31.2859 18.169L32.0284 19.2628ZM26.287 22.0942L26.7079 23.3474L26.7161 23.3446L26.7243 23.3418L26.287 22.0942ZM20.5597 23.588L20.2766 22.2967L20.2755 22.2969L20.5597 23.588ZM10.3605 26.9839L10.979 28.1523L11.0176 28.1319L11.0548 28.109L10.3605 26.9839ZM8.29384 28.4865L7.49407 27.4338L7.44944 27.4678L7.40784 27.5053L8.29384 28.4865ZM7.38395 29.3811L8.30618 30.3283L8.31175 30.3229L8.31726 30.3174L7.38395 29.3811ZM6.5305 30.3191L7.55673 31.1525L7.57795 31.1263L7.59781 31.0992L6.5305 30.3191ZM5.74052 31.2918L4.71429 30.4584L4.70333 30.4719L4.69273 30.4857L5.74052 31.2918ZM5.04224 32.3253L6.11652 33.0958L6.12427 33.085L6.1318 33.0741L5.04224 32.3253ZM3.8079 34.4272L2.65361 33.7827L2.64506 33.798L2.63692 33.8135L3.8079 34.4272ZM1.02887 42.7476L-0.273359 42.5197L-0.274078 42.5239L1.02887 42.7476ZM0.640931 49.4352L-0.679413 49.5016L-0.678008 49.5295L-0.675422 49.5574L0.640931 49.4352ZM0.908962 51.841L2.21124 51.6134L2.20785 51.594L2.20389 51.5748L0.908962 51.841ZM1.24752 53.5607L2.52861 53.2343L2.51991 53.2001L2.50941 53.1665L1.24752 53.5607ZM1.51555 54.5942L0.236404 54.9281L0.24313 54.9539L0.250888 54.9794L1.51555 54.5942ZM1.60019 54.9243C2.83813 54.4603 2.83817 54.4604 2.83821 54.4605C2.83822 54.4606 2.83825 54.4607 2.83828 54.4607C2.83833 54.4609 2.83837 54.461 2.83842 54.4611C2.83852 54.4614 2.83861 54.4616 2.8387 54.4618C2.83887 54.4623 2.83904 54.4628 2.8392 54.4632C2.83951 54.464 2.83978 54.4648 2.84001 54.4654C2.84047 54.4666 2.84077 54.4674 2.8409 54.4678C2.84118 54.4686 2.84081 54.4676 2.83986 54.4649C2.83794 54.4594 2.83364 54.447 2.82729 54.4276C2.81458 54.3889 2.79364 54.3222 2.76707 54.2277L0.221714 54.9433C0.25863 55.0746 0.290587 55.1773 0.314906 55.2515C0.327065 55.2886 0.337313 55.3185 0.345316 55.3413C0.349317 55.3527 0.352756 55.3623 0.355592 55.3701C0.35701 55.374 0.358277 55.3775 0.359388 55.3805C0.359943 55.382 0.36046 55.3834 0.360937 55.3847C0.361175 55.3853 0.361403 55.3859 0.361622 55.3865C0.361731 55.3868 0.361838 55.3871 0.361942 55.3873C0.361994 55.3875 0.362046 55.3876 0.362096 55.3878C0.362122 55.3878 0.362159 55.3879 0.362172 55.388C0.36221 55.3881 0.362247 55.3882 1.60019 54.9243ZM2.76408 54.2173C2.69309 53.9725 2.5952 53.6367 2.46899 53.1964L-0.0726847 53.9249C0.0550231 54.3705 0.154633 54.7122 0.224709 54.9538L2.76408 54.2173ZM2.45192 53.1414C2.34225 52.8134 2.27281 52.3651 2.13132 51.6004L-0.468569 52.0815C-0.356138 52.6891 -0.242186 53.422 -0.0556149 53.9799L2.45192 53.1414ZM2.12082 51.5494C1.98944 50.9684 1.95053 50.2985 1.85064 49.2955L-0.780368 49.5575C-0.696877 50.3958 -0.637035 51.3413 -0.458071 52.1326L2.12082 51.5494ZM1.85495 49.3503C1.75327 47.5892 1.76742 45.3971 2.17816 42.9015L-0.430769 42.4721C-0.880543 45.205 -0.894606 47.5986 -0.784679 49.5027L1.85495 49.3503ZM2.17735 42.9063C2.59672 40.416 3.3927 37.6161 4.80633 34.8772L2.4568 33.6645C0.893901 36.6926 0.0252848 39.7639 -0.429962 42.4673L2.17735 42.9063ZM4.78923 34.9092C5.22248 34.1235 5.51999 33.5006 5.94187 32.9209L3.80403 31.3651C3.25255 32.1229 2.81651 33.0112 2.4739 33.6325L4.78923 34.9092ZM5.97124 32.8788C6.25631 32.4533 6.40727 32.1902 6.63608 31.885L4.5205 30.2991C4.24147 30.6713 3.95512 31.1378 3.77466 31.4071L5.97124 32.8788ZM6.61527 31.912C6.87001 31.5899 7.13259 31.2665 7.40155 30.9353L5.3491 29.2685C5.08201 29.5974 4.80852 29.9341 4.54131 30.2721L6.61527 31.912ZM7.43232 30.896C7.63202 30.6301 7.86887 30.3838 8.1717 30.0803L6.29998 28.2128C5.99621 28.5173 5.64058 28.8789 5.31833 29.3079L7.43232 30.896ZM8.1717 30.0803C8.52498 29.7262 8.75185 29.4756 9.03506 29.2254L7.28459 27.2438C6.91889 27.5669 6.55328 27.9589 6.29998 28.2128L8.1717 30.0803ZM8.96611 29.2823C9.78259 28.6539 10.2362 28.2039 10.8746 27.865L9.63472 25.5297C8.73551 26.0072 7.89131 26.7731 7.35354 27.1869L8.96611 29.2823ZM10.9513 27.8209C13.7089 26.1111 17.0355 25.3677 20.7973 24.5311L20.2233 21.9501C16.5649 22.7637 12.7676 23.5837 9.55802 25.5738L10.9513 27.8209ZM20.7991 24.5307C22.656 24.115 24.6322 23.6672 26.633 22.9904L25.7858 20.4858C23.9355 21.1117 22.0887 21.5325 20.2215 21.9505L20.7991 24.5307ZM26.6446 22.9864C28.6493 22.2876 30.6848 21.3447 32.6271 20.0149L31.1335 17.8332C29.4222 19.0048 27.6066 19.851 25.7743 20.4897L26.6446 22.9864ZM32.6181 20.0211C33.5979 19.3621 34.5451 18.6028 35.4451 17.7439L33.6197 15.8311C32.8269 16.5877 31.9966 17.2527 31.1426 17.8271L32.6181 20.0211ZM35.4399 17.7488C36.353 16.8869 37.2025 15.9056 37.9667 14.8063L35.7956 13.2971C35.135 14.2475 34.4046 15.0901 33.6249 15.8262L35.4399 17.7488ZM37.9552 14.8225C39.5096 12.6564 40.6617 10.0582 41.4277 7.30106L38.8802 6.59329C38.1791 9.11672 37.1446 11.417 35.8071 13.2809L37.9552 14.8225ZM41.4186 7.33236L41.4609 7.19342L38.9316 6.42305L38.8893 6.56199L41.4186 7.33236ZM40.1009 8.12681L40.2208 8.13547L40.4115 5.49833L40.2915 5.48966L40.1009 8.12681ZM40.2549 8.1375C46.2497 8.41539 52.5336 8.71068 59.0572 9.02331L59.1837 6.38232C52.6586 6.06961 46.3733 5.77426 40.3774 5.49631L40.2549 8.1375ZM59.0571 9.0233C65.5775 9.33612 72.3522 9.55425 79.2454 9.84007L79.3549 7.19832C72.4234 6.91091 65.698 6.69483 59.1838 6.38232L59.0571 9.0233ZM79.2459 9.84009C79.6691 9.85746 80.0919 9.87484 80.5075 9.89219L80.6178 7.25047C80.2012 7.23308 79.7775 7.21567 79.3543 7.1983L79.2459 9.84009ZM80.489 9.89128L80.6441 9.89995L80.7916 7.26004L80.6364 7.25138L80.489 9.89128ZM79.3994 8.67736L79.4135 8.86843L82.0504 8.67372L82.0363 8.48264L79.3994 8.67736ZM79.4133 8.8654C79.5198 10.3538 79.3018 11.872 78.8901 13.3043L81.4312 14.0347C81.9082 12.3751 82.1839 10.5408 82.0506 8.67675L79.4133 8.8654ZM78.8781 13.349C78.7058 14.0386 78.4412 14.6565 78.1358 15.4558L80.6056 16.3996C80.8644 15.7224 81.2205 14.8812 81.4432 13.99L78.8781 13.349ZM78.1748 15.3642C77.8168 16.1239 77.5487 16.7509 77.2011 17.3423L79.4806 18.682C79.9089 17.9532 80.2615 17.1385 80.5665 16.4912L78.1748 15.3642ZM77.1792 17.3812C75.7912 19.9366 73.9981 22.0941 72.0741 24.0164L73.9429 25.8868C75.9829 23.8487 77.9564 21.4899 79.5026 18.6431L77.1792 17.3812ZM72.0812 24.0094C70.1585 25.9017 68.0767 27.4657 65.9183 28.7032L67.2334 30.997C69.5891 29.6463 71.8522 27.9446 73.9359 25.8938L72.0812 24.0094ZM65.9348 28.6939C63.7193 29.9224 61.4739 30.9236 59.2072 31.956L60.3032 34.3622C62.5366 33.3449 64.8901 32.2965 67.2169 31.0062L65.9348 28.6939ZM59.2072 31.956C56.9849 32.9683 54.7014 33.9651 52.538 35.1194L53.7827 37.4521C55.8513 36.3484 58.0255 35.3997 60.3032 34.3622L59.2072 31.956ZM52.506 35.1371C51.4049 35.7643 50.2988 36.5208 49.3169 37.5234L51.2059 39.3734C51.9591 38.6043 52.8421 37.9885 53.8147 37.4345L52.506 35.1371ZM49.3929 37.4517C49.0942 37.712 48.8371 37.9946 48.6215 38.2417C48.3841 38.5138 48.2274 38.706 48.0337 38.9162L49.9781 40.7078C50.2006 40.4664 50.4423 40.1765 50.614 39.9797C50.8076 39.7578 50.9701 39.5844 51.1299 39.4451L49.3929 37.4517ZM47.9309 39.0426C47.764 39.2757 47.6 39.4802 47.3894 39.7551C47.1917 40.0133 46.9715 40.3107 46.7678 40.6469L49.0292 42.017C49.157 41.806 49.3071 41.5996 49.4886 41.3627C49.6571 41.1426 49.881 40.8607 50.0809 40.5815L47.9309 39.0426ZM46.7957 40.6029C45.3226 42.8311 44.2143 45.3555 43.5992 47.9976L46.1743 48.5972C46.7159 46.2714 47.6954 44.0363 49.0013 42.061L46.7957 40.6029ZM43.603 47.9817C42.9531 50.6243 42.8678 53.4566 43.4968 56.0286L46.0651 55.4006C45.5514 53.2999 45.6072 50.9038 46.1705 48.6131L43.603 47.9817ZM43.4956 56.0239L43.552 56.2584L46.1227 55.6398L46.0662 55.4053L43.4956 56.0239ZM44.8374 54.6271L44.6399 54.6271L44.6399 57.2711L44.8374 57.2711L44.8374 54.6271ZM44.6689 54.6274C31.6258 54.3408 20.872 54.1063 13.3661 53.9413L13.3079 56.5847C20.8116 56.7496 31.5706 56.9842 44.6108 57.2708L44.6689 54.6274ZM13.3707 53.9414C9.61925 53.8457 6.70127 53.7764 4.68856 53.7243L4.62004 56.3674C6.62775 56.4194 9.56407 56.4892 13.3033 56.5845L13.3707 53.9414ZM4.70045 53.7246C3.71895 53.6903 2.91693 53.6714 2.41945 53.6551L2.33268 56.2977C2.89321 56.3161 3.6006 56.3318 4.60815 56.367L4.70045 53.7246ZM2.44288 53.656C2.19638 53.6436 2.01327 53.6312 1.89442 53.6223C1.83499 53.6178 1.79163 53.6142 1.76444 53.6118C1.75085 53.6106 1.7413 53.6097 1.73581 53.6092C1.73306 53.6089 1.73133 53.6088 1.73061 53.6087C1.73025 53.6087 1.73015 53.6086 1.7303 53.6087C1.73037 53.6087 1.73051 53.6087 1.73072 53.6087C1.73082 53.6087 1.73093 53.6087 1.73107 53.6087C1.73113 53.6087 1.7312 53.6087 1.73128 53.6088C1.73131 53.6088 1.73137 53.6088 1.73139 53.6088C1.73145 53.6088 1.73151 53.6088 1.60019 54.9243C1.46887 56.2397 1.46893 56.2397 1.46899 56.2397C1.46902 56.2397 1.46908 56.2397 1.46913 56.2397C1.46922 56.2398 1.46931 56.2398 1.46941 56.2398C1.4696 56.2398 1.46982 56.2398 1.47005 56.2398C1.4705 56.2399 1.47102 56.2399 1.47161 56.24C1.47278 56.2401 1.4742 56.2402 1.47588 56.2404C1.47924 56.2407 1.48362 56.2412 1.48901 56.2417C1.4998 56.2427 1.51466 56.244 1.53358 56.2457C1.57142 56.249 1.62548 56.2535 1.69566 56.2588C1.83603 56.2694 2.04085 56.2831 2.30925 56.2967L2.44288 53.656ZM1.60019 54.9243C1.64305 56.2456 1.64301 56.2456 1.64297 56.2456C1.64296 56.2456 1.64292 56.2456 1.6429 56.2456C1.64285 56.2456 1.64281 56.2456 1.64277 56.2456C1.6427 56.2456 1.64264 56.2456 1.6426 56.2456C1.64252 56.2456 1.6425 56.2456 1.64255 56.2456C1.64264 56.2456 1.64299 56.2456 1.64361 56.2456C1.64483 56.2455 1.6471 56.2454 1.6504 56.2454C1.65701 56.2452 1.66775 56.2449 1.68259 56.2445C1.71226 56.2438 1.75832 56.2428 1.82043 56.2417C1.94466 56.2397 2.1331 56.2376 2.38311 56.2376L2.38311 53.5935C2.11823 53.5935 1.91521 53.5958 1.7767 53.5981C1.70744 53.5992 1.65431 53.6004 1.61764 53.6013C1.59931 53.6017 1.58509 53.6021 1.57502 53.6024C1.56999 53.6026 1.56599 53.6027 1.56304 53.6028C1.56157 53.6028 1.56036 53.6028 1.5594 53.6029C1.55893 53.6029 1.55852 53.6029 1.55817 53.6029C1.558 53.6029 1.55784 53.6029 1.5577 53.6029C1.55763 53.6029 1.55757 53.6029 1.5575 53.6029C1.55747 53.6029 1.55743 53.6029 1.55742 53.6029C1.55737 53.6029 1.55733 53.6029 1.60019 54.9243ZM2.38311 56.2376C2.89737 56.2376 3.64817 56.2461 4.64981 56.2549L4.67289 53.611C3.68548 53.6023 2.91275 53.5935 2.38311 53.5935L2.38311 56.2376ZM4.64422 56.2548C6.65376 56.2809 9.57824 56.3243 13.3257 56.3764L13.3624 53.7326C9.61917 53.6806 6.68936 53.6371 4.67848 53.611L4.64422 56.2548ZM13.3211 56.3763C20.8334 56.5066 31.5901 56.689 44.632 56.9061L44.676 54.2625C31.6345 54.0454 20.8784 53.863 13.367 53.7327L13.3211 56.3763ZM43.5211 54.9029L43.38 55.1374L45.6458 56.5003L45.7868 56.2657L43.5211 54.9029ZM45.7959 55.5002C45.2552 53.3225 45.3114 50.85 45.8882 48.5095L43.321 47.8769C42.6564 50.5739 42.5715 53.4862 43.2298 56.1374L45.7959 55.5002ZM45.893 48.4896C46.4419 46.1033 47.4357 43.8258 48.7619 41.8171L46.5555 40.3603C45.0604 42.6247 43.9381 45.1936 43.3162 47.8968L45.893 48.4896ZM48.7941 41.7659C49.0944 41.2624 49.377 40.9701 49.8544 40.3047L47.706 38.7635C47.4357 39.1403 46.8861 39.8033 46.5233 40.4115L48.7941 41.7659ZM49.7534 40.4288C49.9766 40.186 50.2255 39.8879 50.3985 39.6902C50.5953 39.4653 50.7624 39.288 50.9281 39.1449L49.1997 37.144C48.8929 37.4091 48.6297 37.6965 48.4086 37.9492C48.1636 38.2292 48.007 38.4218 47.807 38.6393L49.7534 40.4288ZM51.0144 39.0633C51.7783 38.2732 52.6861 37.6413 53.685 37.0673L52.3677 34.7748C51.2505 35.4167 50.1129 36.1918 49.1135 37.2255L51.0144 39.0633ZM53.6529 37.0851C55.7349 35.9646 57.9052 35.0178 60.1872 33.9696L59.0835 31.567C56.8654 32.5859 54.578 33.5846 52.3998 34.7569L53.6529 37.0851ZM60.1833 33.9714C62.4219 32.9517 64.7635 31.8966 67.0666 30.6253L65.7889 28.3105C63.5919 29.5232 61.3488 30.5351 59.0873 31.5652L60.1833 33.9714ZM67.0833 30.616C69.4221 29.2805 71.6566 27.5865 73.7159 25.565L71.8638 23.6781C69.9592 25.5476 67.9052 27.1019 65.7722 28.3199L67.0833 30.616ZM73.7252 25.5559C75.7442 23.5347 77.6886 21.2026 79.2129 18.4008L76.8904 17.1372C75.5229 19.6506 73.7572 21.7827 71.8546 23.6872L73.7252 25.5559ZM79.189 18.4429C79.6117 17.7296 79.9618 16.9141 80.2554 16.2931L77.8652 15.1628C77.51 15.914 77.2534 16.5229 76.9144 17.095L79.189 18.4429ZM80.2955 16.1993C80.5515 15.5283 80.8877 14.7182 81.1091 13.8613L78.5492 13.1998C78.3756 13.8716 78.1193 14.4859 77.8252 15.2566L80.2955 16.1993ZM81.1016 13.889C81.5548 12.2802 81.8242 10.5085 81.698 8.72139L79.0606 8.90764C79.1601 10.3167 78.9499 11.7759 78.5566 13.1722L81.1016 13.889ZM79.3898 9.69119L79.5591 9.88227L81.5381 8.12892L81.3688 7.93784L79.3898 9.69119ZM80.6047 7.68477C80.1943 7.66735 79.7623 7.64988 79.3402 7.63256L79.2318 10.2744C79.6562 10.2918 80.0846 10.3091 80.4925 10.3264L80.6047 7.68477ZM79.3408 7.63258C72.4102 7.34521 65.6836 7.12907 59.1714 6.80797L59.0412 9.44878C65.5637 9.77039 72.3373 9.98848 79.2313 10.2743L79.3408 7.63258ZM59.1697 6.80789C52.6531 6.49526 46.3605 6.19122 40.3652 5.90461L40.2389 8.54561C46.2343 8.83222 52.5249 9.13616 59.043 9.44887L59.1697 6.80789ZM41.1621 8.22914L41.3243 8.09017L39.6042 6.08211L39.442 6.22108L41.1621 8.22914ZM39.1908 6.73135C38.4753 9.2996 37.4198 11.6503 36.0495 13.5466L38.1925 15.0953C39.7845 12.8922 40.958 10.2401 41.7378 7.44093L39.1908 6.73135ZM36.0394 13.5607C35.3646 14.5207 34.6113 15.3837 33.8129 16.1411L35.6327 18.0592C36.5554 17.1838 37.4244 16.1882 38.2025 15.0812L36.0394 13.5607ZM33.8039 16.1497C33.0089 16.9184 32.1704 17.5874 31.3023 18.1581L32.7546 20.3675C33.7626 19.7049 34.7299 18.9322 35.6417 18.0506L33.8039 16.1497ZM31.2859 18.169C29.5474 19.3493 27.7026 20.1971 25.8497 20.8466L26.7243 23.3418C28.7367 22.6364 30.7994 21.6951 32.771 20.3566L31.2859 18.169ZM25.8661 20.8409C24.002 21.4669 22.1404 21.8881 20.2766 22.2967L20.8427 24.8794C22.7031 24.4715 24.6926 24.0242 26.7079 23.3474L25.8661 20.8409ZM20.2755 22.2969C16.6214 23.101 12.835 23.9033 9.66617 25.8589L11.0548 28.109C13.7685 26.4342 17.0778 25.7079 20.8438 24.8791L20.2755 22.2969ZM9.74196 25.8155C8.86089 26.282 8.0167 27.0368 7.49407 27.4338L9.09362 29.5391C9.89702 28.9287 10.3506 28.485 10.979 28.1523L9.74196 25.8155ZM7.40784 27.5053C7.05828 27.821 6.71085 28.1854 6.45064 28.4448L8.31726 30.3174C8.64954 29.9861 8.89461 29.7252 9.17984 29.4677L7.40784 27.5053ZM6.46172 28.4339C6.15974 28.7279 5.78986 29.092 5.46319 29.539L7.59781 31.0992C7.77899 30.8513 8.00157 30.6249 8.30618 30.3283L6.46172 28.4339ZM5.50428 29.4856C5.37027 29.6507 5.23802 29.8135 5.10665 29.9753C4.97528 30.137 4.84478 30.2977 4.71429 30.4584L6.76674 32.1252C6.89722 31.9645 7.02771 31.8039 7.15908 31.6421C7.29045 31.4803 7.42271 31.3175 7.55673 31.1525L5.50428 29.4856ZM4.69273 30.4857C4.42265 30.8367 4.0965 31.3673 3.95268 31.5766L6.1318 33.0741C6.45349 32.6059 6.55054 32.407 6.7883 32.0979L4.69273 30.4857ZM3.96795 31.5549C3.4304 32.3044 2.99993 33.1624 2.65361 33.7827L4.96218 35.0716C5.39173 34.3023 5.69482 33.6838 6.11652 33.0958L3.96795 31.5549ZM2.63692 33.8135C1.07265 36.7987 0.196432 39.8352 -0.273352 42.5197L2.33109 42.9755C2.76414 40.5009 3.56662 37.7358 4.97887 35.0408L2.63692 33.8135ZM-0.274078 42.5239C-0.738479 45.2288 -0.774787 47.6045 -0.679413 49.5016L1.96127 49.3688C1.87326 47.6181 1.90749 45.4428 2.33182 42.9713L-0.274078 42.5239ZM-0.675422 49.5574C-0.598574 50.3854 -0.546569 51.3261 -0.385963 52.1072L2.20389 51.5748C2.08236 50.9837 2.04972 50.3089 1.95728 49.313L-0.675422 49.5574ZM-0.393312 52.0686C-0.289639 52.6618 -0.189432 53.3943 -0.0143652 53.9548L2.50941 53.1665C2.40234 52.8237 2.34738 52.3924 2.21124 51.6134L-0.393312 52.0686ZM-0.0335638 53.8871C0.0805473 54.3349 0.173796 54.6883 0.236404 54.9281L2.7947 54.2603C2.73035 54.0138 2.6402 53.6723 2.52861 53.2343L-0.0335638 53.8871ZM0.250888 54.9794C0.273698 55.0543 0.287451 55.1088 0.294507 55.1389C0.29803 55.1539 0.299863 55.1628 0.300307 55.165C0.300528 55.1661 0.3004 55.1655 0.299961 55.1632C0.299742 55.162 0.299444 55.1604 0.299074 55.1584C0.298888 55.1573 0.298684 55.1562 0.298463 55.1549C0.298352 55.1543 0.298237 55.1537 0.298118 55.153C0.298058 55.1526 0.297997 55.1523 0.297935 55.1519C0.297904 55.1518 0.297873 55.1516 0.297841 55.1514C0.297825 55.1513 0.297802 55.1512 0.297794 55.1511C0.29777 55.151 0.297746 55.1509 1.60019 54.9243C2.90263 54.6976 2.90261 54.6975 2.90258 54.6974C2.90258 54.6973 2.90255 54.6972 2.90254 54.6971C2.9025 54.6969 2.90247 54.6967 2.90244 54.6965C2.90237 54.6961 2.9023 54.6957 2.90223 54.6953C2.90209 54.6945 2.90194 54.6937 2.90179 54.6928C2.90149 54.6911 2.90116 54.6893 2.9008 54.6873C2.90009 54.6834 2.89927 54.679 2.89835 54.6741C2.89651 54.6643 2.89423 54.6526 2.89148 54.639C2.88597 54.6119 2.87855 54.5773 2.86884 54.5359C2.84945 54.4531 2.82089 54.3426 2.78022 54.2091L0.250888 54.9794Z" fill="#592F72" mask="url(#path-4-inside-1_1_40)"/>
<mask id="path-6-inside-2_1_40" fill="white">
<path d="M52.3952 7.86156C52.367 7.85287 52.4516 7.52284 52.4939 6.91488C52.5292 6.3156 52.501 5.41236 52.1554 4.41356C51.8239 3.43213 51.1609 2.33777 50.124 1.72981C49.0942 1.12184 47.74 0.991572 46.4986 1.57348C45.2501 2.13802 44.3473 3.3887 43.8747 4.6828C43.388 5.97689 43.3175 7.31441 43.4586 8.37401C43.5997 9.44229 43.9312 10.25 44.1921 10.7624C44.4602 11.2749 44.6577 11.518 44.6365 11.5441C44.6224 11.5615 44.3896 11.353 44.0793 10.858C43.7689 10.3629 43.3951 9.54651 43.2117 8.42612C43.0354 7.3231 43.0706 5.89872 43.5785 4.51778C44.0581 3.14551 45.0174 1.78193 46.3716 1.17397C47.7047 0.557319 49.1648 0.704959 50.2651 1.3824C51.3866 2.05985 52.0707 3.2584 52.3881 4.30931C52.7196 5.37759 52.7126 6.32428 52.635 6.94093C52.5927 7.2536 52.5433 7.4881 52.4939 7.64443C52.4375 7.79208 52.4093 7.87024 52.3952 7.86156Z"/>
</mask>
<path d="M52.3952 7.86156C52.367 7.85287 52.4516 7.52284 52.4939 6.91488C52.5292 6.3156 52.501 5.41236 52.1554 4.41356C51.8239 3.43213 51.1609 2.33777 50.124 1.72981C49.0942 1.12184 47.74 0.991572 46.4986 1.57348C45.2501 2.13802 44.3473 3.3887 43.8747 4.6828C43.388 5.97689 43.3175 7.31441 43.4586 8.37401C43.5997 9.44229 43.9312 10.25 44.1921 10.7624C44.4602 11.2749 44.6577 11.518 44.6365 11.5441C44.6224 11.5615 44.3896 11.353 44.0793 10.858C43.7689 10.3629 43.3951 9.54651 43.2117 8.42612C43.0354 7.3231 43.0706 5.89872 43.5785 4.51778C44.0581 3.14551 45.0174 1.78193 46.3716 1.17397C47.7047 0.557319 49.1648 0.704959 50.2651 1.3824C51.3866 2.05985 52.0707 3.2584 52.3881 4.30931C52.7196 5.37759 52.7126 6.32428 52.635 6.94093C52.5927 7.2536 52.5433 7.4881 52.4939 7.64443C52.4375 7.79208 52.4093 7.87024 52.3952 7.86156Z" fill="#592F72"/>
<path d="M52.3952 7.86156L53.0883 6.73581L52.945 6.64757L52.7842 6.59806L52.3952 7.86156ZM52.4939 6.91488L53.8128 7.00668L53.8133 6.99961L53.8137 6.99254L52.4939 6.91488ZM52.1554 4.41356L50.9029 4.83664L50.9061 4.84587L52.1554 4.41356ZM50.124 1.72981L49.4519 2.86823L49.4553 2.87023L50.124 1.72981ZM46.4986 1.57348L47.0433 2.77806L47.0515 2.77434L47.0597 2.7705L46.4986 1.57348ZM43.8747 4.6828L45.1122 5.14818L45.1165 5.13628L43.8747 4.6828ZM43.4586 8.37401L44.7692 8.20094L44.769 8.19954L43.4586 8.37401ZM44.1921 10.7624L43.0141 11.3624L43.0174 11.3688L43.0207 11.3752L44.1921 10.7624ZM44.6365 11.5441L43.6103 10.7107L44.6365 11.5441ZM43.2117 8.42612L41.9063 8.63481L41.9071 8.63967L43.2117 8.42612ZM43.5785 4.51778L44.8193 4.97407L44.8229 4.96405L44.8265 4.95397L43.5785 4.51778ZM46.3716 1.17397L46.9131 2.38002L46.9199 2.37696L46.9266 2.37383L46.3716 1.17397ZM50.2651 1.3824L49.572 2.5082L49.5815 2.51399L50.2651 1.3824ZM52.3881 4.30931L51.1226 4.69155L51.1255 4.70113L52.3881 4.30931ZM52.635 6.94093L53.9451 7.11826L53.9467 7.10596L52.635 6.94093ZM52.4939 7.64443L53.7288 8.11637L53.7428 8.07985L53.7546 8.04256L52.4939 7.64443ZM52.7842 6.59806C53.1071 6.69747 53.325 6.89743 53.4546 7.07214C53.575 7.23441 53.6307 7.38773 53.6567 7.47373C53.7066 7.63893 53.7102 7.77301 53.7111 7.80705C53.7126 7.85935 53.7102 7.89827 53.7092 7.91245C53.708 7.92958 53.7068 7.94046 53.7067 7.94145C53.7066 7.94207 53.7076 7.93338 53.7118 7.90445C53.7162 7.87327 53.7198 7.84897 53.7267 7.80091C53.7518 7.62651 53.7884 7.35639 53.8128 7.00668L51.1751 6.82307C51.1572 7.08133 51.1303 7.2802 51.1095 7.42498C51.1013 7.48211 51.0866 7.57991 51.0789 7.64949C51.0759 7.67645 51.0651 7.77035 51.0681 7.87959C51.0693 7.92468 51.0739 8.06734 51.1257 8.23862C51.1594 8.35013 51.3463 8.9219 52.0062 9.12506L52.7842 6.59806ZM53.8137 6.99254C53.8557 6.27789 53.8232 5.19068 53.4047 3.98125L50.9061 4.84587C51.1788 5.63404 51.2027 6.3533 51.1742 6.83721L53.8137 6.99254ZM53.4079 3.99049C53.016 2.83041 52.1986 1.41372 50.7927 0.589388L49.4553 2.87023C50.1232 3.26183 50.6317 4.03385 50.9029 4.83663L53.4079 3.99049ZM50.7961 0.591388C49.4075 -0.228409 47.5923 -0.399232 45.9375 0.376456L47.0597 2.7705C47.8877 2.38238 48.7809 2.4721 49.4519 2.86823L50.7961 0.591388ZM45.9539 0.368901C44.2727 1.1291 43.1793 2.73323 42.6329 4.22932L45.1165 5.13628C45.5153 4.04417 46.2275 3.14693 47.0433 2.77806L45.9539 0.368901ZM42.6373 4.21744C42.0633 5.74378 41.9826 7.30489 42.1481 8.54847L44.769 8.19954C44.6525 7.32394 44.7128 6.21 45.1121 5.14816L42.6373 4.21744ZM42.148 8.54708C42.3132 9.7983 42.7026 10.7508 43.0141 11.3624L45.3702 10.1625C45.1597 9.7492 44.8861 9.08628 44.7692 8.20094L42.148 8.54708ZM43.0207 11.3752C43.1775 11.675 43.3142 11.8966 43.4024 12.0374C43.4257 12.0746 43.4392 12.0961 43.4532 12.1185C43.467 12.1407 43.4691 12.1445 43.4663 12.1397C43.4645 12.1366 43.4575 12.1243 43.4481 12.1058C43.4399 12.0897 43.4208 12.0513 43.4005 11.9983C43.3848 11.9577 43.3402 11.8379 43.3231 11.6744C43.3088 11.5377 43.2859 11.1102 43.6103 10.7107L45.6627 12.3775C45.9898 11.9748 45.9678 11.5423 45.9528 11.3989C45.9349 11.2288 45.888 11.1006 45.8685 11.0498C45.8261 10.9396 45.7761 10.8526 45.7611 10.8264C45.7242 10.7619 45.6706 10.6777 45.6432 10.6339C45.5708 10.5185 45.4748 10.3623 45.3636 10.1497L43.0207 11.3752ZM43.6103 10.7107C43.8776 10.3815 44.2287 10.2612 44.4826 10.2318C44.7116 10.2053 44.8917 10.2455 44.9775 10.2688C45.1503 10.3157 45.27 10.3874 45.3026 10.407C45.3901 10.4596 45.4452 10.5081 45.453 10.5148C45.4831 10.5409 45.4854 10.547 45.4599 10.5181C45.4148 10.4671 45.3214 10.3504 45.1994 10.1558L42.9592 11.5602C43.1475 11.8606 43.3256 12.0957 43.478 12.2683C43.5513 12.3512 43.6339 12.4371 43.7213 12.5129C43.7577 12.5444 43.8357 12.6102 43.9399 12.6728C43.9808 12.6974 44.1072 12.7723 44.2851 12.8206C44.3356 12.8343 45.1124 13.0552 45.6627 12.3775L43.6103 10.7107ZM45.1994 10.1558C44.9786 9.80364 44.6702 9.1525 44.5164 8.21257L41.9071 8.63967C42.12 9.94052 42.5592 10.9222 42.9592 11.5602L45.1994 10.1558ZM44.5171 8.21743C44.3701 7.29732 44.4026 6.10701 44.8193 4.97407L42.3377 4.06148C41.7387 5.69044 41.7007 7.34888 41.9063 8.63481L44.5171 8.21743ZM44.8265 4.95397C45.2339 3.7884 46.0019 2.78908 46.9131 2.38002L45.8302 -0.0320833C44.0329 0.774786 42.8824 2.50263 42.3305 4.08159L44.8265 4.95397ZM46.9266 2.37383C47.8447 1.94914 48.8368 2.05552 49.572 2.50816L50.9582 0.256651C49.4927 -0.645602 47.5647 -0.834506 45.8166 -0.0258911L46.9266 2.37383ZM49.5815 2.51399C50.3297 2.96595 50.8627 3.83098 51.1226 4.69154L53.6537 3.92709C53.2788 2.68583 52.4434 1.15375 50.9486 0.250822L49.5815 2.51399ZM51.1255 4.70113C51.3905 5.55508 51.3823 6.30695 51.3233 6.7759L53.9467 7.10596C54.0429 6.34162 54.0488 5.20011 53.6508 3.9175L51.1255 4.70113ZM51.3249 6.76361C51.2875 7.04036 51.2505 7.19172 51.2333 7.24629L53.7546 8.04256C53.8361 7.78447 53.8979 7.46683 53.9451 7.11825L51.3249 6.76361ZM51.259 7.17249C51.243 7.21457 51.2332 7.2403 51.2235 7.26544C51.2136 7.29111 51.2118 7.29507 51.2142 7.28945C51.2157 7.28601 51.222 7.27132 51.2324 7.25028C51.2408 7.23327 51.2645 7.18617 51.3027 7.12775C51.3241 7.09516 51.4302 6.92974 51.6326 6.78512C51.7444 6.70528 51.9453 6.58847 52.2249 6.55155C52.5338 6.51075 52.8377 6.58148 53.0883 6.73581L51.7021 8.98731C51.9545 9.14272 52.2603 9.21386 52.5711 9.1728C52.8527 9.13561 53.0558 9.01787 53.1697 8.93644C53.3766 8.78863 53.4877 8.61737 53.5146 8.57637C53.5888 8.46311 53.6337 8.356 53.6432 8.33379C53.6731 8.26419 53.7092 8.16788 53.7288 8.11637L51.259 7.17249Z" fill="#592F72" mask="url(#path-6-inside-2_1_40)"/>
<mask id="path-8-inside-3_1_40" fill="white">
<path d="M59.1481 7.86156C59.1199 7.85287 59.2045 7.52284 59.2468 6.91488C59.2821 6.3156 59.2539 5.41236 58.9083 4.41356C58.5768 3.43213 57.9138 2.33777 56.8769 1.72981C55.8471 1.12184 54.4929 0.991572 53.2515 1.57348C52.003 2.13802 51.1002 3.3887 50.6276 4.6828C50.1409 5.97689 50.0704 7.31441 50.2115 8.37401C50.3525 9.44229 50.6841 10.25 50.945 10.7624C51.2131 11.2749 51.4105 11.518 51.3894 11.5441C51.3753 11.5615 51.1425 11.353 50.8322 10.858C50.5218 10.3629 50.148 9.54651 49.9646 8.42612C49.7883 7.3231 49.8235 5.89872 50.3314 4.51778C50.811 3.14551 51.7703 1.78193 53.1245 1.17397C54.4576 0.557319 55.9177 0.704959 57.018 1.3824C58.1395 2.05985 58.8236 3.2584 59.141 4.30931C59.4726 5.37759 59.4655 6.32428 59.3879 6.94093C59.3456 7.2536 59.2962 7.4881 59.2468 7.64443C59.1834 7.79208 59.1551 7.87024 59.1481 7.86156Z"/>
</mask>
<path d="M59.1481 7.86156C59.1199 7.85287 59.2045 7.52284 59.2468 6.91488C59.2821 6.3156 59.2539 5.41236 58.9083 4.41356C58.5768 3.43213 57.9138 2.33777 56.8769 1.72981C55.8471 1.12184 54.4929 0.991572 53.2515 1.57348C52.003 2.13802 51.1002 3.3887 50.6276 4.6828C50.1409 5.97689 50.0704 7.31441 50.2115 8.37401C50.3525 9.44229 50.6841 10.25 50.945 10.7624C51.2131 11.2749 51.4105 11.518 51.3894 11.5441C51.3753 11.5615 51.1425 11.353 50.8322 10.858C50.5218 10.3629 50.148 9.54651 49.9646 8.42612C49.7883 7.3231 49.8235 5.89872 50.3314 4.51778C50.811 3.14551 51.7703 1.78193 53.1245 1.17397C54.4576 0.557319 55.9177 0.704959 57.018 1.3824C58.1395 2.05985 58.8236 3.2584 59.141 4.30931C59.4726 5.37759 59.4655 6.32428 59.3879 6.94093C59.3456 7.2536 59.2962 7.4881 59.2468 7.64443C59.1834 7.79208 59.1551 7.87024 59.1481 7.86156Z" fill="#592F72"/>
<path d="M59.1481 7.86156L60.1743 7.02815L59.921 6.71627L59.537 6.59806L59.1481 7.86156ZM59.2468 6.91488L60.5657 7.00668L60.5662 6.99961L60.5666 6.99254L59.2468 6.91488ZM58.9083 4.41356L57.6558 4.83664L57.659 4.84587L58.9083 4.41356ZM56.8769 1.72981L56.2048 2.86823L56.2082 2.87023L56.8769 1.72981ZM53.2515 1.57348L53.7962 2.77806L53.8044 2.77434L53.8126 2.7705L53.2515 1.57348ZM50.6276 4.6828L51.8651 5.14818L51.8694 5.13628L50.6276 4.6828ZM50.2115 8.37401L51.5221 8.20094L51.5219 8.19954L50.2115 8.37401ZM50.945 10.7624L49.767 11.3624L49.7703 11.3688L49.7736 11.3752L50.945 10.7624ZM51.3894 11.5441L50.3632 10.7107L51.3894 11.5441ZM49.9646 8.42612L48.6592 8.63481L48.66 8.63967L49.9646 8.42612ZM50.3314 4.51778L51.5722 4.97407L51.5758 4.96405L51.5794 4.95397L50.3314 4.51778ZM53.1245 1.17397L53.666 2.38002L53.6728 2.37696L53.6795 2.37383L53.1245 1.17397ZM57.018 1.3824L56.3249 2.5082L56.3344 2.51399L57.018 1.3824ZM59.141 4.30931L57.8755 4.69155L57.8784 4.70113L59.141 4.30931ZM59.3879 6.94093L60.698 7.11826L60.6996 7.10596L59.3879 6.94093ZM59.2468 7.64443L60.4614 8.1666L60.4875 8.10574L60.5075 8.04256L59.2468 7.64443ZM59.537 6.59806C59.86 6.69747 60.0779 6.89743 60.2075 7.07214C60.3279 7.23441 60.3836 7.38773 60.4096 7.47373C60.4595 7.63893 60.4631 7.77301 60.464 7.80705C60.4654 7.85935 60.463 7.89827 60.4621 7.91245C60.4609 7.92958 60.4597 7.94046 60.4596 7.94145C60.4595 7.94207 60.4605 7.93338 60.4646 7.90445C60.4691 7.87327 60.4727 7.84897 60.4796 7.80091C60.5046 7.62651 60.5413 7.35639 60.5657 7.00668L57.928 6.82307C57.91 7.08133 57.8832 7.2802 57.8624 7.42498C57.8542 7.48211 57.8395 7.57991 57.8317 7.64949C57.8287 7.67645 57.818 7.77035 57.821 7.87959C57.8222 7.92468 57.8268 8.06734 57.8786 8.23862C57.9123 8.35013 58.0992 8.9219 58.7591 9.12506L59.537 6.59806ZM60.5666 6.99254C60.6086 6.27789 60.5761 5.19068 60.1576 3.98125L57.659 4.84587C57.9317 5.63404 57.9556 6.3533 57.9271 6.83721L60.5666 6.99254ZM60.1608 3.99049C59.7689 2.83041 58.9514 1.41372 57.5456 0.589388L56.2082 2.87023C56.8761 3.26183 57.3846 4.03385 57.6558 4.83663L60.1608 3.99049ZM57.549 0.591388C56.1604 -0.228409 54.3451 -0.399232 52.6904 0.376456L53.8126 2.7705C54.6406 2.38238 55.5338 2.4721 56.2048 2.86823L57.549 0.591388ZM52.7068 0.368901C51.0256 1.1291 49.9322 2.73323 49.3858 4.22932L51.8694 5.13628C52.2682 4.04417 52.9804 3.14693 53.7962 2.77806L52.7068 0.368901ZM49.3902 4.21744C48.8162 5.74378 48.7355 7.30489 48.901 8.54847L51.5219 8.19954C51.4054 7.32394 51.4657 6.21 51.865 5.14816L49.3902 4.21744ZM48.9008 8.54708C49.0661 9.79831 49.4555 10.7508 49.767 11.3624L52.1231 10.1625C51.9126 9.74919 51.639 9.08627 51.5221 8.20094L48.9008 8.54708ZM49.7736 11.3752C49.9304 11.675 50.0671 11.8966 50.1552 12.0374C50.1786 12.0746 50.1921 12.0961 50.206 12.1185C50.2199 12.1407 50.2219 12.1445 50.2192 12.1397C50.2174 12.1366 50.2104 12.1243 50.201 12.1058C50.1928 12.0897 50.1737 12.0512 50.1533 11.9983C50.1377 11.9576 50.0931 11.8378 50.076 11.6744C50.0617 11.5377 50.0388 11.1101 50.3632 10.7107L52.4156 12.3775C52.7427 11.9748 52.7207 11.5423 52.7056 11.399C52.6878 11.2288 52.6409 11.1006 52.6214 11.0498C52.579 10.9396 52.529 10.8526 52.514 10.8264C52.4771 10.7619 52.4235 10.6778 52.3961 10.634C52.3237 10.5185 52.2277 10.3623 52.1165 10.1497L49.7736 11.3752ZM50.3632 10.7107C50.6305 10.3815 50.9815 10.2612 51.2355 10.2318C51.4645 10.2053 51.6446 10.2455 51.7304 10.2688C51.9033 10.3157 52.0229 10.3874 52.0555 10.407C52.143 10.4597 52.1981 10.5081 52.2059 10.5148C52.236 10.5409 52.2383 10.547 52.2128 10.5181C52.1677 10.4671 52.0743 10.3504 51.9523 10.1558L49.7121 11.5602C49.9004 11.8606 50.0785 12.0957 50.2309 12.2683C50.3042 12.3512 50.3867 12.4371 50.4742 12.5128C50.5106 12.5444 50.5886 12.6102 50.6928 12.6728C50.7337 12.6974 50.8601 12.7723 51.038 12.8206C51.0885 12.8343 51.8652 13.0552 52.4156 12.3775L50.3632 10.7107ZM51.9523 10.1558C51.7315 9.80364 51.4231 9.1525 51.2693 8.21257L48.66 8.63967C48.8729 9.94052 49.3121 10.9222 49.7121 11.5602L51.9523 10.1558ZM51.27 8.21743C51.123 7.29731 51.1555 6.107 51.5722 4.97407L49.0906 4.06148C48.4916 5.69045 48.4536 7.34889 48.6592 8.63481L51.27 8.21743ZM51.5794 4.95397C51.9867 3.7884 52.7548 2.78908 53.666 2.38002L52.5831 -0.0320833C50.7858 0.774784 49.6353 2.50263 49.0834 4.08159L51.5794 4.95397ZM53.6795 2.37383C54.5976 1.94914 55.5897 2.05552 56.3249 2.50816L57.7111 0.256651C56.2456 -0.645602 54.3176 -0.834506 52.5695 -0.025891L53.6795 2.37383ZM56.3344 2.51399C57.0826 2.96595 57.6156 3.83098 57.8755 4.69154L60.4066 3.92709C60.0317 2.68583 59.1963 1.15375 57.7015 0.250822L56.3344 2.51399ZM57.8784 4.70113C58.1434 5.55508 58.1352 6.30695 58.0762 6.7759L60.6996 7.10596C60.7958 6.34162 60.8017 5.20011 60.4037 3.9175L57.8784 4.70113ZM58.0779 6.76361C58.0404 7.04032 58.0034 7.19169 57.9862 7.24629L60.5075 8.04256C60.589 7.7845 60.6508 7.46688 60.698 7.11825L58.0779 6.76361ZM58.0323 7.12226C58.0138 7.16535 57.9981 7.20277 57.9858 7.23214C57.972 7.26526 57.9662 7.27911 57.9618 7.28945C57.9515 7.3134 57.9687 7.27049 57.9993 7.21484C58.0009 7.21184 58.0726 7.07247 58.2099 6.93312C58.2625 6.87972 58.487 6.65267 58.871 6.56987C59.095 6.52156 59.3616 6.52604 59.6294 6.63056C59.8881 6.73151 60.0646 6.89308 60.1743 7.02815L58.1219 8.69497C58.232 8.83058 58.409 8.99252 58.6682 9.09368C58.9366 9.19841 59.2037 9.20292 59.4284 9.15447C59.8135 9.07141 60.0395 8.84343 60.0936 8.78844C60.234 8.64589 60.3096 8.50069 60.3159 8.48928C60.3557 8.4168 60.3853 8.34675 60.3908 8.33379C60.4022 8.30722 60.4159 8.27438 60.4254 8.2516C60.4365 8.22506 60.4481 8.19733 60.4614 8.1666L58.0323 7.12226Z" fill="#592F72" mask="url(#path-8-inside-3_1_40)"/>
<mask id="path-10-inside-4_1_40" fill="white">
<path d="M64.2672 8.29834C64.2319 8.28966 64.3095 7.95096 64.3236 7.34299C64.3307 6.73503 64.2601 5.84045 63.8722 4.86771C63.4984 3.90365 62.786 2.86141 61.7139 2.33161C60.6629 1.79313 59.2946 1.7584 58.0884 2.42717C56.8682 3.07856 56.0218 4.39002 55.6127 5.71017C55.1825 7.03901 55.1825 8.37653 55.3658 9.42744C55.5563 10.487 55.9231 11.2687 56.2123 11.7551C56.5014 12.2501 56.713 12.4846 56.6919 12.5107C56.6778 12.528 56.438 12.337 56.1064 11.8593C55.7749 11.3816 55.3588 10.5999 55.126 9.49691C54.8933 8.40257 54.8721 6.98689 55.3094 5.5712C55.7256 4.1642 56.6213 2.73982 57.9403 2.03632C59.2452 1.32413 60.7052 1.36755 61.8338 1.97552C62.9835 2.5748 63.7241 3.72125 64.0909 4.75479C64.4718 5.79702 64.507 6.74371 64.4576 7.36905C64.4294 7.68171 64.3871 7.92488 64.3448 8.08121C64.3025 8.22018 64.2813 8.29834 64.2672 8.29834Z"/>
</mask>
<path d="M64.2672 8.29834C64.2319 8.28966 64.3095 7.95096 64.3236 7.34299C64.3307 6.73503 64.2601 5.84045 63.8722 4.86771C63.4984 3.90365 62.786 2.86141 61.7139 2.33161C60.6629 1.79313 59.2946 1.7584 58.0884 2.42717C56.8682 3.07856 56.0218 4.39002 55.6127 5.71017C55.1825 7.03901 55.1825 8.37653 55.3658 9.42744C55.5563 10.487 55.9231 11.2687 56.2123 11.7551C56.5014 12.2501 56.713 12.4846 56.6919 12.5107C56.6778 12.528 56.438 12.337 56.1064 11.8593C55.7749 11.3816 55.3588 10.5999 55.126 9.49691C54.8933 8.40257 54.8721 6.98689 55.3094 5.5712C55.7256 4.1642 56.6213 2.73982 57.9403 2.03632C59.2452 1.32413 60.7052 1.36755 61.8338 1.97552C62.9835 2.5748 63.7241 3.72125 64.0909 4.75479C64.4718 5.79702 64.507 6.74371 64.4576 7.36905C64.4294 7.68171 64.3871 7.92488 64.3448 8.08121C64.3025 8.22018 64.2813 8.29834 64.2672 8.29834Z" fill="#592F72"/>
<path d="M64.2672 8.29834L63.9511 9.582L64.1068 9.62035L64.2672 9.62035L64.2672 8.29834ZM64.3236 7.34299L65.6453 7.37366L65.6455 7.366L65.6456 7.35833L64.3236 7.34299ZM63.8722 4.86771L62.6396 5.34568L62.6442 5.35742L63.8722 4.86771ZM61.7139 2.33161L61.111 3.50818L61.1196 3.51256L61.1282 3.51681L61.7139 2.33161ZM58.0884 2.42717L58.711 3.59341L58.7203 3.58845L58.7295 3.58334L58.0884 2.42717ZM55.6127 5.71017L56.8704 6.1174L56.873 6.10946L56.8755 6.10148L55.6127 5.71017ZM55.3658 9.42744L54.0635 9.6547L54.0647 9.66129L55.3658 9.42744ZM56.2123 11.7551L57.3538 11.0882L57.3486 11.0794L56.2123 11.7551ZM56.6919 12.5107L57.7181 13.3441L56.6919 12.5107ZM55.126 9.49691L56.4196 9.22394L56.4191 9.22187L55.126 9.49691ZM55.3094 5.5712L56.5725 5.96138L56.5749 5.95379L56.5771 5.94616L55.3094 5.5712ZM57.9403 2.03632L58.5625 3.20284L58.5737 3.19674L57.9403 2.03632ZM61.8338 1.97552L61.2068 3.13939L61.2147 3.14366L61.2227 3.14783L61.8338 1.97552ZM64.0909 4.75479L62.8449 5.19694L62.8492 5.20857L64.0909 4.75479ZM64.4576 7.36905L65.7743 7.48786L65.775 7.48048L65.7755 7.4731L64.4576 7.36905ZM64.3448 8.08121L65.6095 8.46636L65.6155 8.4466L65.6209 8.42665L64.3448 8.08121ZM64.5833 7.01469C65.1529 7.15495 65.3966 7.58899 65.4721 7.76083C65.5507 7.93972 65.5682 8.0912 65.5732 8.13689C65.5801 8.20023 65.5802 8.24835 65.5801 8.26772C65.5799 8.29044 65.5791 8.30585 65.5788 8.30966C65.5785 8.31569 65.5786 8.31098 65.5814 8.28311C65.5841 8.25582 65.5871 8.22742 65.5919 8.18158C65.61 8.00635 65.637 7.72942 65.6453 7.37366L63.002 7.31233C62.9961 7.56453 62.9773 7.76093 62.9619 7.90921C62.956 7.96615 62.9443 8.07206 62.9395 8.15214C62.9377 8.18273 62.9306 8.29338 62.9447 8.42259C62.9508 8.47955 62.9703 8.63979 63.0516 8.8249C63.1299 9.00295 63.3771 9.44065 63.9511 9.582L64.5833 7.01469ZM65.6456 7.35833C65.6539 6.63602 65.5708 5.55797 65.1002 4.37799L62.6442 5.35742C62.9495 6.12293 63.0074 6.83404 63.0017 7.32766L65.6456 7.35833ZM65.1048 4.38975C64.6593 3.24094 63.7688 1.87245 62.2996 1.14642L61.1282 3.51681C61.8032 3.85037 62.3374 4.56635 62.6396 5.34566L65.1048 4.38975ZM62.3167 1.15505C60.8811 0.419501 59.0462 0.384514 57.4474 1.27099L58.7295 3.58334C59.543 3.1323 60.4447 3.16676 61.111 3.50818L62.3167 1.15505ZM57.4659 1.26092C55.8388 2.12951 54.8229 3.79259 54.3499 5.31886L56.8755 6.10148C57.2207 4.98745 57.8977 4.0276 58.711 3.59341L57.4659 1.26092ZM54.355 5.30294C53.847 6.87184 53.8501 8.43171 54.0635 9.6547L56.6682 9.20017C56.5148 8.32134 56.5179 7.20618 56.8704 6.1174L54.355 5.30294ZM54.0647 9.66129C54.2877 10.902 54.72 11.832 55.0759 12.4307L57.3486 11.0794C57.1262 10.7054 56.8249 10.0721 56.667 9.19358L54.0647 9.66129ZM55.0707 12.4219C55.2412 12.7136 55.3892 12.929 55.4845 13.0655C55.5099 13.1019 55.5242 13.1222 55.5394 13.1441C55.5544 13.1658 55.5565 13.1692 55.5533 13.1642C55.5512 13.161 55.5434 13.1487 55.5327 13.1301C55.5235 13.114 55.5019 13.0753 55.4783 13.0216C55.4605 12.9809 55.4078 12.8575 55.3839 12.6867C55.3632 12.5391 55.3282 12.0928 55.6657 11.6773L57.7181 13.3441C58.0582 12.9253 58.024 12.4741 58.0024 12.3199C57.9776 12.1427 57.9222 12.011 57.9001 11.9605C57.8516 11.8497 57.7959 11.7633 57.7798 11.7383C57.7397 11.6756 57.6814 11.5935 57.6524 11.552C57.5749 11.441 57.4725 11.2916 57.3538 11.0882L55.0707 12.4219ZM55.6657 11.6773C55.9239 11.3593 56.2576 11.2402 56.4913 11.2047C56.7069 11.1719 56.8792 11.2007 56.9646 11.219C57.1354 11.2558 57.2561 11.3185 57.2912 11.337C57.3823 11.3848 57.4406 11.4305 57.45 11.4377C57.4835 11.4637 57.4879 11.4714 57.4626 11.4455C57.4182 11.4002 57.3219 11.2919 57.1925 11.1055L55.0204 12.613C55.2225 12.9043 55.4119 13.1305 55.5738 13.2957C55.6516 13.3752 55.7394 13.4573 55.8322 13.529C55.8712 13.5593 55.9532 13.6207 56.0613 13.6775C56.105 13.7005 56.2326 13.7661 56.4086 13.8039C56.4627 13.8155 57.1976 13.985 57.7181 13.3441L55.6657 11.6773ZM57.1925 11.1055C56.9503 10.7565 56.6121 10.1362 56.4196 9.22394L53.8325 9.76987C54.1055 11.0637 54.5996 12.0067 55.0204 12.613L57.1925 11.1055ZM56.4191 9.22187C56.2276 8.32136 56.2095 7.13674 56.5725 5.96138L54.0463 5.18102C53.5347 6.83704 53.559 8.48378 53.8329 9.77194L56.4191 9.22187ZM56.5771 5.94616C56.9314 4.74837 57.6585 3.68493 58.5625 3.20278L57.3182 0.869857C55.5842 1.79472 54.5197 3.58004 54.0417 5.19625L56.5771 5.94616ZM58.5737 3.19674C59.487 2.69828 60.4728 2.74398 61.2068 3.13939L62.4608 0.81165C60.9377 -0.00887555 59.0034 -0.0500159 57.307 0.875897L58.5737 3.19674ZM61.2227 3.14783C61.9782 3.54161 62.5465 4.35583 62.845 5.19692L65.3368 4.31266C64.9017 3.08668 63.9888 1.60799 62.4448 0.803207L61.2227 3.14783ZM62.8492 5.20857C63.1512 6.03501 63.1777 6.78464 63.1397 7.26499L65.7755 7.4731C65.8364 6.70278 65.7923 5.55902 65.3326 4.30102L62.8492 5.20857ZM63.141 7.25024C63.1169 7.51746 63.0842 7.67873 63.0687 7.73577L65.6209 8.42665C65.6901 8.17103 65.742 7.84597 65.7743 7.48786L63.141 7.25024ZM63.0801 7.69607C63.0709 7.72629 63.0563 7.77484 63.0518 7.78981C63.0438 7.8162 63.0414 7.82338 63.0417 7.82263C63.042 7.82152 63.0454 7.81147 63.0512 7.79608C63.0562 7.78312 63.0694 7.74896 63.0909 7.70487C63.1058 7.67426 63.1587 7.56637 63.2581 7.44739C63.3097 7.38563 63.4059 7.28159 63.5534 7.18647C63.7066 7.0876 63.9514 6.97633 64.2672 6.97633L64.2672 9.62035C64.8853 9.62035 65.2271 9.21458 65.2876 9.14204C65.391 9.01823 65.4482 8.90316 65.4678 8.86305C65.513 8.77021 65.541 8.6857 65.5492 8.66115C65.5691 8.60165 65.5962 8.50978 65.6095 8.46636L63.0801 7.69607Z" fill="#592F72" mask="url(#path-10-inside-4_1_40)"/>
<mask id="path-12-inside-5_1_40" fill="white">
<path d="M69.7643 8.67667C69.7291 8.66798 69.7926 8.32928 69.7784 7.72132C69.7643 7.11335 69.6515 6.22746 69.2212 5.28078C68.8051 4.34277 68.0504 3.34397 66.9571 2.88365C65.885 2.41465 64.5237 2.47545 63.3387 3.21369C62.1467 3.94325 61.3638 5.31551 61.0111 6.65303C60.6373 8.00792 60.6937 9.34545 60.9265 10.379C61.1592 11.4212 61.5613 12.1768 61.8716 12.6545C62.182 13.1322 62.4006 13.3493 62.3795 13.3754C62.3724 13.3927 62.1185 13.219 61.7658 12.7674C61.4131 12.3158 60.9688 11.5602 60.6867 10.4745C60.4116 9.39755 60.3269 7.98186 60.7008 6.54011C61.0534 5.11574 61.8857 3.63056 63.1765 2.84021C64.4532 2.04117 65.9061 1.99775 67.0629 2.51886C68.2408 3.03997 69.0237 4.14301 69.4328 5.14181C69.856 6.15798 69.9336 7.10465 69.9125 7.72998C69.8984 8.04265 69.8701 8.28584 69.8349 8.44218C69.7996 8.59851 69.7784 8.68535 69.7643 8.67667Z"/>
</mask>
<path d="M69.7643 8.67667C69.7291 8.66798 69.7926 8.32928 69.7784 7.72132C69.7643 7.11335 69.6515 6.22746 69.2212 5.28078C68.8051 4.34277 68.0504 3.34397 66.9571 2.88365C65.885 2.41465 64.5237 2.47545 63.3387 3.21369C62.1467 3.94325 61.3638 5.31551 61.0111 6.65303C60.6373 8.00792 60.6937 9.34545 60.9265 10.379C61.1592 11.4212 61.5613 12.1768 61.8716 12.6545C62.182 13.1322 62.4006 13.3493 62.3795 13.3754C62.3724 13.3927 62.1185 13.219 61.7658 12.7674C61.4131 12.3158 60.9688 11.5602 60.6867 10.4745C60.4116 9.39755 60.3269 7.98186 60.7008 6.54011C61.0534 5.11574 61.8857 3.63056 63.1765 2.84021C64.4532 2.04117 65.9061 1.99775 67.0629 2.51886C68.2408 3.03997 69.0237 4.14301 69.4328 5.14181C69.856 6.15798 69.9336 7.10465 69.9125 7.72998C69.8984 8.04265 69.8701 8.28584 69.8349 8.44218C69.7996 8.59851 69.7784 8.68535 69.7643 8.67667Z" fill="#592F72"/>
<path d="M69.7643 8.67667L70.4574 7.55091L70.2813 7.44247L70.0805 7.39301L69.7643 8.67667ZM69.2212 5.28078L68.0128 5.81692L68.0177 5.82777L69.2212 5.28078ZM66.9571 2.88365L66.4273 4.09484L66.4356 4.09851L66.4441 4.10207L66.9571 2.88365ZM63.3387 3.21369L64.0289 4.34131L64.0378 4.33576L63.3387 3.21369ZM61.0111 6.65303L62.2855 7.00464L62.2875 6.99738L62.2894 6.99009L61.0111 6.65303ZM60.9265 10.379L62.2167 10.0908L62.2162 10.0885L60.9265 10.379ZM62.3795 13.3754L61.3532 12.542L61.2288 12.6951L61.1546 12.878L62.3795 13.3754ZM60.6867 10.4745L59.4058 10.8017L59.4071 10.807L60.6867 10.4745ZM60.7008 6.54011L61.9804 6.87192L61.9823 6.86489L61.984 6.85784L60.7008 6.54011ZM63.1765 2.84021L63.8669 3.96771L63.8779 3.96083L63.1765 2.84021ZM67.0629 2.51886L66.5199 3.72423L66.528 3.72784L67.0629 2.51886ZM69.4328 5.14181L68.2094 5.6429L68.2124 5.65007L69.4328 5.14181ZM69.9125 7.72998L71.2331 7.78957L71.2335 7.78213L71.2337 7.77469L69.9125 7.72998ZM70.0805 7.39301C70.6339 7.52931 70.8773 7.94464 70.9529 8.10388C71.0339 8.2743 71.0565 8.41963 71.0632 8.46481C71.0723 8.52642 71.0743 8.5734 71.075 8.59241C71.0758 8.61462 71.0755 8.62966 71.0754 8.63324C71.0753 8.63876 71.0753 8.63373 71.0769 8.60548C71.0785 8.57715 71.0803 8.54974 71.0831 8.50285C71.0937 8.32593 71.1084 8.04776 71.1001 7.69065L68.4568 7.75198C68.4626 8.00284 68.4526 8.198 68.4438 8.34459C68.4405 8.40033 68.4333 8.50646 68.4319 8.58521C68.4313 8.61586 68.4289 8.72489 68.4476 8.85131C68.4559 8.90777 68.4808 9.06186 68.5647 9.23849C68.6433 9.40395 68.8904 9.82294 69.4482 9.96032L70.0805 7.39301ZM71.1001 7.69065C71.083 6.95432 70.947 5.88288 70.4248 4.73378L68.0177 5.82777C68.3559 6.57205 68.4457 7.27238 68.4568 7.75198L71.1001 7.69065ZM70.4296 4.74465C69.9339 3.62735 68.9825 2.30201 67.4701 1.66524L66.4441 4.10207C67.1183 4.38592 67.6762 5.0582 68.0128 5.8169L70.4296 4.74465ZM67.4869 1.67246C66.0048 1.02408 64.1844 1.12922 62.6397 2.09163L64.0378 4.33576C64.8629 3.82169 65.7652 3.80522 66.4273 4.09484L67.4869 1.67246ZM62.6486 2.08611C61.0682 3.05339 60.1379 4.77966 59.7328 6.31597L62.2894 6.99009C62.5897 5.85135 63.2252 4.83311 64.0288 4.34128L62.6486 2.08611ZM59.7367 6.30141C59.2966 7.89666 59.3638 9.45746 59.6368 10.6694L62.2162 10.0885C62.0236 9.23344 61.978 8.11918 62.2855 7.00464L59.7367 6.30141ZM59.6362 10.6671C59.9108 11.8965 60.3878 12.7972 60.763 13.3747L62.9802 11.9343C62.7347 11.5565 62.4077 10.9459 62.2167 10.0908L59.6362 10.6671ZM60.763 13.3747C60.9467 13.6574 61.1038 13.8636 61.2047 13.9938C61.2317 14.0288 61.2463 14.0473 61.2623 14.0681C61.278 14.0885 61.2794 14.0908 61.275 14.0847C61.2724 14.081 61.2632 14.068 61.2509 14.0485C61.2402 14.0317 61.2152 13.9914 61.1879 13.9353C61.1672 13.8929 61.1058 13.7635 61.0761 13.5823C61.0483 13.4132 61.0127 12.9612 61.3532 12.542L63.4057 14.2088C63.7488 13.7862 63.714 13.3295 63.6852 13.1542C63.6545 12.9667 63.5902 12.8294 63.565 12.7777C63.5096 12.664 63.4472 12.5769 63.4303 12.5531C63.3871 12.4924 63.3245 12.4128 63.295 12.3748C63.2143 12.2705 63.1069 12.1293 62.9802 11.9343L60.763 13.3747ZM61.1546 12.878C61.3519 12.392 61.7619 12.1645 62.0705 12.0907C62.3276 12.0292 62.5356 12.0617 62.6139 12.0761C62.7858 12.1076 62.9085 12.167 62.9355 12.1799C63.019 12.2198 63.0731 12.2576 63.0806 12.2628C63.1107 12.2836 63.1129 12.2883 63.0871 12.2651C63.0411 12.2236 62.9413 12.1248 62.8078 11.9538L60.7239 13.5811C60.943 13.8617 61.1465 14.0755 61.3173 14.2294C61.4 14.3039 61.489 14.377 61.5797 14.4396C61.6176 14.4657 61.6954 14.5177 61.7956 14.5656C61.8309 14.5825 61.96 14.6442 62.1366 14.6767C62.2173 14.6915 62.4271 14.724 62.6857 14.6622C62.9956 14.588 63.4066 14.3598 63.6043 13.8727L61.1546 12.878ZM62.8078 11.9538C62.5609 11.6376 62.2007 11.0444 61.9662 10.142L59.4071 10.807C59.7369 12.0759 60.2654 12.9939 60.7239 13.5811L62.8078 11.9538ZM61.9675 10.1473C61.7407 9.2594 61.6693 8.07198 61.9804 6.87192L59.4211 6.2083C58.9846 7.89174 59.0824 9.5357 59.4058 10.8017L61.9675 10.1473ZM61.984 6.85784C62.2848 5.64297 62.9685 4.51773 63.8668 3.96765L62.4861 1.71276C60.803 2.7434 59.822 4.58851 59.4175 6.22238L61.984 6.85784ZM63.8779 3.96083C64.7803 3.39598 65.7664 3.38478 66.5199 3.72421L67.6059 1.31351C66.0458 0.610717 64.126 0.686359 62.4751 1.71959L63.8779 3.96083ZM66.528 3.72784C67.2837 4.06217 67.8757 4.82802 68.2095 5.64289L70.6562 4.64073C70.1718 3.45801 69.1979 2.01778 67.5978 1.30988L66.528 3.72784ZM68.2124 5.65007C68.547 6.45345 68.6075 7.20362 68.5912 7.68527L71.2337 7.77469C71.2597 7.00568 71.1651 5.86251 70.6532 4.63355L68.2124 5.65007ZM68.5918 7.6704C68.5858 7.80353 68.5771 7.91333 68.5676 7.99919C68.5577 8.08849 68.5486 8.1365 68.5453 8.15126L71.1245 8.73309C71.1847 8.46593 71.2176 8.13376 71.2331 7.78957L68.5918 7.6704ZM68.5453 8.15126C68.5254 8.23919 68.5197 8.26111 68.5204 8.25851C68.5216 8.2544 68.5259 8.23934 68.5334 8.21763C68.5394 8.20019 68.5563 8.15207 68.5858 8.09104C68.5995 8.06249 68.6846 7.87865 68.872 7.70523C68.9746 7.61031 69.1818 7.44926 69.4953 7.3834C69.8506 7.30878 70.1925 7.38782 70.4574 7.55091L69.0712 9.80242C69.3379 9.9666 69.6817 10.046 70.0388 9.97096C70.3542 9.90471 70.5633 9.74253 70.6679 9.64577C70.8593 9.46864 70.9486 9.27823 70.9669 9.24031C71.0247 9.12065 71.0553 9.01093 71.0629 8.9841C71.0866 8.90116 71.109 8.8015 71.1245 8.73309L68.5453 8.15126Z" fill="#592F72" mask="url(#path-12-inside-5_1_40)"/>
<mask id="path-14-inside-6_1_40" fill="white">
<path d="M75.2625 8.51471C75.2272 8.50603 75.2837 8.1673 75.2554 7.55934C75.2272 6.96006 75.0932 6.0655 74.6418 5.13618C74.2045 4.21555 73.4286 3.2428 72.3283 2.81722C71.2421 2.38296 69.8808 2.48718 68.717 3.26884C67.5391 4.04183 66.7914 5.43148 66.4669 6.78637C66.1284 8.14994 66.213 9.48747 66.4669 10.5123C66.7279 11.5459 67.1441 12.2928 67.4615 12.7531C67.7859 13.2221 68.0046 13.4305 67.9905 13.4566C67.9834 13.474 67.7295 13.309 67.3627 12.866C67.003 12.4231 66.5375 11.6848 66.2342 10.6079C65.9309 9.53957 65.818 8.13257 66.1566 6.67345C66.481 5.23171 67.2781 3.7205 68.5477 2.88672C69.8032 2.04425 71.2632 1.9487 72.427 2.43507C73.612 2.92144 74.4231 3.98972 74.8534 4.97983C75.2978 5.97863 75.4036 6.92533 75.3894 7.55067C75.3824 7.86334 75.3612 8.10651 75.326 8.27153C75.2978 8.43655 75.2766 8.51471 75.2625 8.51471Z"/>
</mask>
<path d="M75.2625 8.51471C75.2272 8.50603 75.2837 8.1673 75.2554 7.55934C75.2272 6.96006 75.0932 6.0655 74.6418 5.13618C74.2045 4.21555 73.4286 3.2428 72.3283 2.81722C71.2421 2.38296 69.8808 2.48718 68.717 3.26884C67.5391 4.04183 66.7914 5.43148 66.4669 6.78637C66.1284 8.14994 66.213 9.48747 66.4669 10.5123C66.7279 11.5459 67.1441 12.2928 67.4615 12.7531C67.7859 13.2221 68.0046 13.4305 67.9905 13.4566C67.9834 13.474 67.7295 13.309 67.3627 12.866C67.003 12.4231 66.5375 11.6848 66.2342 10.6079C65.9309 9.53957 65.818 8.13257 66.1566 6.67345C66.481 5.23171 67.2781 3.7205 68.5477 2.88672C69.8032 2.04425 71.2632 1.9487 72.427 2.43507C73.612 2.92144 74.4231 3.98972 74.8534 4.97983C75.2978 5.97863 75.4036 6.92533 75.3894 7.55067C75.3824 7.86334 75.3612 8.10651 75.326 8.27153C75.2978 8.43655 75.2766 8.51471 75.2625 8.51471Z" fill="#592F72"/>
<path d="M75.2625 8.51471L74.9464 9.79837L75.1021 9.83672L75.2625 9.83672L75.2625 8.51471ZM75.2554 7.55934L76.576 7.49805L76.576 7.49717L75.2554 7.55934ZM74.6418 5.13618L73.4476 5.70343L73.4527 5.71381L74.6418 5.13618ZM72.3283 2.81722L71.8375 4.04477L71.8444 4.04753L71.8514 4.05022L72.3283 2.81722ZM68.717 3.26884L69.4423 4.37412L69.4482 4.37024L69.4541 4.36629L68.717 3.26884ZM66.4669 6.78637L67.75 7.10495L67.7526 7.09424L66.4669 6.78637ZM66.4669 10.5123L65.1837 10.8303L65.1852 10.836L66.4669 10.5123ZM67.4615 12.7531L66.3731 13.5036L66.3743 13.5052L67.4615 12.7531ZM67.9905 13.4566L66.8279 12.8272L66.7931 12.8915L66.7656 12.9592L67.9905 13.4566ZM67.3627 12.866L66.3365 13.6995L66.3445 13.7092L67.3627 12.866ZM66.2342 10.6079L67.5067 10.2495L67.5059 10.2468L66.2342 10.6079ZM66.1566 6.67345L67.4444 6.97227L67.4463 6.96371L66.1566 6.67345ZM68.5477 2.88672L69.2734 3.9918L69.2843 3.98449L68.5477 2.88672ZM72.427 2.43507L71.9173 3.65487L71.9251 3.65807L72.427 2.43507ZM74.8534 4.97983L73.6409 5.50673L73.6455 5.51721L74.8534 4.97983ZM75.326 8.27153L74.0332 7.99524L74.0275 8.02188L74.0229 8.04874L75.326 8.27153ZM75.5786 7.23106C76.1243 7.36543 76.3673 7.77181 76.4428 7.92485C76.5246 8.09102 76.5496 8.23318 76.5571 8.27797C76.5673 8.33862 76.5702 8.38493 76.5712 8.4037C76.5724 8.4256 76.5725 8.44041 76.5725 8.44385C76.5725 8.44906 76.5724 8.44383 76.5734 8.41537C76.5744 8.38636 76.5756 8.35972 76.5774 8.31216C76.5842 8.13441 76.5926 7.8557 76.576 7.49805L73.9349 7.62062C73.9465 7.87093 73.9408 8.06557 73.9353 8.21134C73.9332 8.26651 73.9283 8.3727 73.9285 8.45069C73.9286 8.48133 73.9284 8.58939 73.9493 8.71424C73.9587 8.77031 73.9861 8.92123 74.0711 9.09361C74.1496 9.25287 74.3963 9.66291 74.9464 9.79837L75.5786 7.23106ZM76.576 7.49717C76.5419 6.77261 76.3811 5.69118 75.8309 4.55856L73.4527 5.71381C73.8053 6.43982 73.9126 7.14751 73.9349 7.62151L76.576 7.49717ZM75.8359 4.56896C75.3144 3.47103 74.3322 2.17485 72.8052 1.58422L71.8514 4.05022C72.525 4.31075 73.0946 4.96008 73.4477 5.70341L75.8359 4.56896ZM72.8191 1.58968C71.3166 0.989008 69.4967 1.15259 67.9799 2.17139L69.4541 4.36629C70.2648 3.82177 71.1676 3.77692 71.8375 4.04477L72.8191 1.58968ZM67.9917 2.16357C66.4388 3.1826 65.5535 4.92396 65.1813 6.47849L67.7526 7.09424C68.0292 5.93899 68.6393 4.90105 69.4423 4.37412L67.9917 2.16357ZM65.1839 6.4678C64.7863 8.06924 64.8857 9.62731 65.1837 10.8303L67.7502 10.1944C67.5404 9.34763 67.4705 8.23065 67.75 7.10494L65.1839 6.4678ZM65.1852 10.836C65.4912 12.0481 65.9829 12.9377 66.3731 13.5036L68.5498 12.0026C68.3052 11.6479 67.9646 11.0436 67.7487 10.1887L65.1852 10.836ZM66.3743 13.5052C66.5645 13.7803 66.7248 13.9801 66.8306 14.1091C66.8433 14.1247 66.8552 14.1391 66.8656 14.1517C66.8763 14.1647 66.8849 14.1751 66.8928 14.1847C66.9101 14.2059 66.9143 14.2112 66.9131 14.2098C66.9121 14.2084 66.9052 14.1995 66.8952 14.1853C66.8866 14.1732 66.8653 14.1426 66.8404 14.0994C66.8219 14.0674 66.7646 13.9667 66.7224 13.8234C66.7003 13.7484 66.6705 13.6231 66.6692 13.4648C66.6678 13.3025 66.6966 13.0698 66.8279 12.8272L69.153 14.086C69.4088 13.6136 69.2889 13.179 69.2585 13.0757C69.2144 12.9262 69.1536 12.8179 69.1298 12.7768C69.0773 12.6859 69.0221 12.6148 69.0056 12.5935C68.9664 12.5427 68.9051 12.4692 68.8753 12.4328C68.7942 12.3338 68.6828 12.1949 68.5487 12.001L66.3743 13.5052ZM66.7656 12.9592C66.9587 12.4836 67.3555 12.2573 67.6529 12.1791C67.904 12.1131 68.1091 12.1389 68.189 12.1513C68.362 12.1782 68.4865 12.2343 68.5147 12.2469C68.6004 12.2851 68.6562 12.322 68.6641 12.3272C68.6954 12.3477 68.6982 12.3528 68.6718 12.3301C68.6247 12.2897 68.5217 12.1928 68.381 12.0229L66.3445 13.7092C66.5706 13.9822 66.7779 14.1892 66.9512 14.3377C67.035 14.4095 67.1255 14.4803 67.2178 14.5406C67.2563 14.5658 67.336 14.6163 67.4383 14.6619C67.4749 14.6782 67.6059 14.7365 67.7836 14.7641C67.8658 14.7768 68.0728 14.8026 68.3253 14.7362C68.624 14.6577 69.0218 14.4307 69.2154 13.954L66.7656 12.9592ZM68.3889 12.0326C68.1305 11.7143 67.7561 11.135 67.5067 10.2495L64.9617 10.9662C65.3189 12.2346 65.8755 13.1318 66.3365 13.6994L68.3889 12.0326ZM67.5059 10.2468C67.2579 9.37331 67.1609 8.19397 67.4444 6.97227L64.8688 6.37464C64.4751 8.07117 64.6038 9.70583 64.9624 10.9689L67.5059 10.2468ZM67.4463 6.96371C67.7243 5.72878 68.3837 4.57604 69.2734 3.99174L67.822 1.78169C66.1725 2.86496 65.2378 4.73464 64.8668 6.3832L67.4463 6.96371ZM69.2843 3.98449C70.1788 3.38428 71.1714 3.34315 71.9173 3.65485L72.9368 1.2153C71.355 0.554252 69.4276 0.704225 67.8111 1.78895L69.2843 3.98449ZM71.9251 3.65807C72.6865 3.97059 73.2947 4.7099 73.6409 5.50671L76.0659 4.45294C75.5516 3.26953 74.5376 1.8723 72.929 1.21207L71.9251 3.65807ZM73.6455 5.51721C73.9982 6.30985 74.0782 7.05775 74.0678 7.52085L76.7111 7.58048C76.7289 6.79291 76.5973 5.64741 76.0613 4.44245L73.6455 5.51721ZM74.0678 7.52085C74.0613 7.80982 74.042 7.95375 74.0332 7.99524L76.6188 8.54782C76.6805 8.25927 76.7035 7.91686 76.7111 7.58048L74.0678 7.52085ZM74.0229 8.04874C74.0105 8.12114 74.0059 8.13582 74.0105 8.1183C74.0124 8.11132 74.0167 8.09549 74.0237 8.0737C74.03 8.05436 74.0437 8.01379 74.0666 7.96247C74.0833 7.92488 74.136 7.80884 74.2391 7.68111C74.3024 7.60262 74.6411 7.1927 75.2625 7.1927L75.2625 9.83672C75.8874 9.83672 76.2299 9.42436 76.2972 9.34095C76.4041 9.2083 76.4611 9.08487 76.4822 9.03738C76.5306 8.92877 76.5568 8.83183 76.5674 8.7917C76.5931 8.69385 76.6132 8.58694 76.6291 8.49432L74.0229 8.04874Z" fill="#592F72" mask="url(#path-14-inside-6_1_40)"/>
<mask id="path-16-inside-7_1_40" fill="white">
<path d="M79.9091 9.29521C79.8738 9.28653 79.9373 8.9478 79.9303 8.33984C79.9232 7.73187 79.8174 6.83729 79.3942 5.8906C78.9851 4.9526 78.2445 3.94514 77.1583 3.46745C76.0862 2.98108 74.7249 3.02448 73.5329 3.74536C72.3338 4.45754 71.5368 5.81245 71.17 7.14997C70.7891 8.49617 70.8244 9.8337 71.0501 10.8759C71.2758 11.9268 71.6637 12.6825 71.9741 13.1601C72.2774 13.6378 72.496 13.8636 72.4749 13.8897C72.4678 13.9071 72.2139 13.7333 71.8683 13.273C71.5226 12.8127 71.0783 12.0484 70.8103 10.9628C70.5422 9.88582 70.4717 8.47013 70.8596 7.02839C71.2264 5.60401 72.0728 4.13621 73.3706 3.36323C74.6543 2.58156 76.1073 2.55549 77.2641 3.10266C78.435 3.64114 79.2108 4.75285 79.6058 5.76033C80.022 6.78518 80.0925 7.73189 80.0572 8.35722C80.0431 8.66989 80.0079 8.91306 79.9726 9.06939C79.9444 9.21704 79.9162 9.29521 79.9091 9.29521Z"/>
</mask>
<path d="M79.9091 9.29521C79.8738 9.28653 79.9373 8.9478 79.9303 8.33984C79.9232 7.73187 79.8174 6.83729 79.3942 5.8906C78.9851 4.9526 78.2445 3.94514 77.1583 3.46745C76.0862 2.98108 74.7249 3.02448 73.5329 3.74536C72.3338 4.45754 71.5368 5.81245 71.17 7.14997C70.7891 8.49617 70.8244 9.8337 71.0501 10.8759C71.2758 11.9268 71.6637 12.6825 71.9741 13.1601C72.2774 13.6378 72.496 13.8636 72.4749 13.8897C72.4678 13.9071 72.2139 13.7333 71.8683 13.273C71.5226 12.8127 71.0783 12.0484 70.8103 10.9628C70.5422 9.88582 70.4717 8.47013 70.8596 7.02839C71.2264 5.60401 72.0728 4.13621 73.3706 3.36323C74.6543 2.58156 76.1073 2.55549 77.2641 3.10266C78.435 3.64114 79.2108 4.75285 79.6058 5.76033C80.022 6.78518 80.0925 7.73189 80.0572 8.35722C80.0431 8.66989 80.0079 8.91306 79.9726 9.06939C79.9444 9.21704 79.9162 9.29521 79.9091 9.29521Z" fill="#592F72"/>
<path d="M79.9091 9.29521L79.593 10.5789L79.7487 10.6172L79.9091 10.6172L79.9091 9.29521ZM79.3942 5.8906L78.1824 6.41912L78.1873 6.43013L79.3942 5.8906ZM77.1583 3.46745L76.6121 4.67137L76.6191 4.67453L76.6261 4.67761L77.1583 3.46745ZM73.5329 3.74536L74.208 4.88203L74.217 4.87659L73.5329 3.74536ZM71.17 7.14997L72.4421 7.50989L72.4449 7.49958L71.17 7.14997ZM71.0501 10.8759L72.3426 10.5983L72.3421 10.5961L71.0501 10.8759ZM71.9741 13.1601L73.0902 12.4515L73.0827 12.4399L71.9741 13.1601ZM72.4749 13.8897L71.4486 13.0563L71.3242 13.2095L71.25 13.3923L72.4749 13.8897ZM70.8103 10.9628L72.0937 10.6459L72.0931 10.6435L70.8103 10.9628ZM70.8596 7.02839L72.1362 7.37189L72.1381 7.36498L72.1399 7.35805L70.8596 7.02839ZM73.3706 3.36323L74.0472 4.4991L74.0582 4.49238L73.3706 3.36323ZM77.2641 3.10266L76.6988 4.29772L76.7052 4.30076L76.7117 4.30374L77.2641 3.10266ZM79.6058 5.76033L78.375 6.24287L78.3779 6.2503L78.3809 6.2577L79.6058 5.76033ZM80.0572 8.35722L78.7373 8.28278L78.7369 8.29021L78.7366 8.29764L80.0572 8.35722ZM79.9726 9.06939L78.683 8.77847L78.6782 8.79979L78.6741 8.82126L79.9726 9.06939ZM80.2252 8.01156C80.7788 8.14788 81.0222 8.56332 81.098 8.72299C81.179 8.89377 81.2016 9.0394 81.2082 9.08491C81.2173 9.14687 81.2193 9.19413 81.2199 9.21345C81.2206 9.23598 81.2203 9.2513 81.2203 9.2552C81.2201 9.2614 81.2201 9.25683 81.2218 9.22927C81.2234 9.20259 81.2253 9.17376 81.2283 9.12853C81.2397 8.95436 81.2563 8.6786 81.2522 8.3245L78.6083 8.35517C78.6113 8.60903 78.5997 8.80662 78.5899 8.95597C78.5861 9.01385 78.5785 9.11953 78.5768 9.20033C78.5762 9.23167 78.5735 9.34115 78.5921 9.46829C78.6005 9.52509 78.6253 9.67948 78.7092 9.85648C78.788 10.0224 79.035 10.4415 79.593 10.5789L80.2252 8.01156ZM81.2522 8.3245C81.2436 7.5862 81.1162 6.50333 80.6011 5.35107L78.1873 6.43013C78.5186 7.17125 78.6028 7.87754 78.6083 8.35517L81.2522 8.3245ZM80.606 5.3621C80.121 4.25019 79.1901 2.91676 77.6905 2.25729L76.6261 4.67761C77.299 4.97351 77.8492 5.65501 78.1824 6.4191L80.606 5.3621ZM77.7045 2.26353C76.2257 1.59269 74.4046 1.67319 72.8487 2.61412L74.217 4.87659C75.0451 4.37578 75.9466 4.36946 76.6121 4.67137L77.7045 2.26353ZM72.8578 2.60872C71.2666 3.55379 70.317 5.2617 69.895 6.80035L72.4449 7.49958C72.7566 6.36319 73.401 5.3613 74.208 4.88199L72.8578 2.60872ZM69.8979 6.79006C69.4511 8.36928 69.4922 9.92837 69.758 11.1557L72.3421 10.5961C72.1565 9.73903 72.1271 8.62307 72.4421 7.50988L69.8979 6.79006ZM69.7575 11.1535C70.022 12.3849 70.4811 13.2887 70.8655 13.8804L73.0827 12.4399C72.8463 12.0762 72.5296 11.4688 72.3426 10.5983L69.7575 11.1535ZM70.858 13.8688C71.037 14.1507 71.1914 14.3586 71.2901 14.4895C71.3161 14.5241 71.3314 14.5442 71.3466 14.5646C71.362 14.5852 71.3636 14.5879 71.3597 14.5821C71.3572 14.5786 71.3486 14.5659 71.3368 14.5469C71.3267 14.5305 71.303 14.491 71.277 14.4362C71.2574 14.3949 71.199 14.2683 71.1707 14.0916C71.1453 13.9331 71.1057 13.4786 71.4486 13.0563L73.5011 14.7231C73.8467 14.2975 73.8078 13.8382 73.7814 13.6733C73.7521 13.4902 73.6908 13.3556 73.6667 13.3047C73.6136 13.1926 73.5536 13.1062 73.5367 13.0816C73.4938 13.0194 73.4326 12.9393 73.4022 12.899C73.321 12.7912 73.2144 12.6473 73.0901 12.4515L70.858 13.8688ZM71.25 13.3923C71.4473 12.9063 71.8574 12.6787 72.1664 12.6049C72.4239 12.5434 72.6321 12.5761 72.7108 12.5907C72.8833 12.6225 73.0063 12.6824 73.0337 12.6956C73.1183 12.7362 73.1729 12.7748 73.1814 12.7806C73.2132 12.8028 73.2168 12.8089 73.1928 12.7869C73.1503 12.7478 73.0541 12.6507 72.9255 12.4793L70.8111 14.0668C71.028 14.3557 71.2316 14.5756 71.4042 14.7341C71.4878 14.8109 71.5778 14.8859 71.67 14.9501C71.7087 14.9771 71.787 15.0299 71.8881 15.0785C71.9239 15.0957 72.0534 15.158 72.2306 15.1907C72.3115 15.2057 72.5217 15.2384 72.7806 15.1766C73.0909 15.1025 73.502 14.8742 73.6997 14.3871L71.25 13.3923ZM72.9255 12.4793C72.6738 12.1441 72.3143 11.5395 72.0937 10.6459L69.5268 11.2797C69.8422 12.5574 70.3715 13.4813 70.8111 14.0668L72.9255 12.4793ZM72.0931 10.6435C71.8733 9.7601 71.8128 8.57384 72.1362 7.37189L69.583 6.68489C69.1306 8.36642 69.2112 10.0115 69.5274 11.2821L72.0931 10.6435ZM72.1399 7.35805C72.4522 6.14518 73.1451 5.0363 74.0471 4.49904L72.6941 2.22742C71.0006 3.23612 70.0006 5.06285 69.5794 6.69872L72.1399 7.35805ZM74.0582 4.49238C74.9637 3.94101 75.946 3.94161 76.6988 4.29772L77.8294 1.9076C76.2687 1.16937 74.345 1.22211 72.6831 2.23408L74.0582 4.49238ZM76.7117 4.30374C77.468 4.65156 78.0556 5.42806 78.375 6.24287L80.8366 5.27779C80.3661 4.07763 79.4019 2.63072 77.8165 1.90158L76.7117 4.30374ZM78.3809 6.2577C78.7115 7.07172 78.7635 7.8181 78.7373 8.28278L81.3771 8.43166C81.4215 7.64568 81.3325 6.49865 80.8307 5.26296L78.3809 6.2577ZM78.7366 8.29764C78.7252 8.54842 78.6979 8.71235 78.683 8.77847L81.2622 9.36031C81.3178 9.11376 81.361 8.79136 81.3779 8.41681L78.7366 8.29764ZM78.6741 8.82126C78.6665 8.86098 78.6626 8.8714 78.6672 8.85593C78.6682 8.8526 78.6787 8.81705 78.7005 8.7655C78.7086 8.74635 78.7376 8.67819 78.7886 8.59581C78.8111 8.55943 78.8707 8.46599 78.97 8.36543C79.0207 8.31407 79.1115 8.23024 79.2433 8.15328C79.3732 8.07745 79.6037 7.9732 79.9091 7.9732L79.9091 10.6172C80.4754 10.6172 80.8079 10.2672 80.8514 10.2232C80.9519 10.1214 81.0128 10.0261 81.0368 9.98732C81.0908 9.90009 81.1234 9.82467 81.1355 9.79588C81.1655 9.72506 81.1861 9.66074 81.1986 9.61941C81.2262 9.52794 81.2505 9.42545 81.2711 9.31752L78.6741 8.82126Z" fill="#592F72" mask="url(#path-16-inside-7_1_40)"/>
<path d="M80.4883 18.5456L80.9873 20.7417C81.9194 24.8436 79.2386 29.4237 74.8853 30.9236L36.0267 44.3117L32.119 27.1148L70.9776 13.7266C75.3146 12.2324 79.556 14.4429 80.4883 18.5456Z" fill="#592F72" stroke="#592F72" stroke-width="1.32201"/>
<path d="M30.9598 27.946L34.682 44.3269L17.2618 41.5042L30.9598 27.946Z" fill="#FFF0D9" stroke="#592F72" stroke-width="1.32201"/>
<path d="M17.2603 41.4875L22.0556 36.7466C23.0876 37.3897 23.6644 38.0605 23.9705 38.6794C24.3095 39.3645 24.3405 40.0339 24.2336 40.6336C24.1248 41.2445 23.8707 41.7907 23.6337 42.1933C23.5646 42.3107 23.4982 42.4137 23.4392 42.5003L17.2603 41.4875Z" fill="#592F72" stroke="#592F72" stroke-width="1.32201"/>
<path opacity="0.3" d="M34.9239 42.4237L34.0216 38.4527" stroke="#592F72" stroke-width="1.32201"/>
<mask id="path-22-inside-8_1_40" fill="white">
<path d="M68.8407 13.4737C69.0589 13.3986 70.1873 17.5512 71.3665 22.7405C72.5456 27.9299 73.3313 32.2006 73.1131 32.2757C72.895 32.3509 71.7666 28.1983 70.5874 23.0089C69.4082 17.8196 68.6226 13.5489 68.8407 13.4737Z"/>
</mask>
<path d="M68.8407 13.4737C69.0589 13.3986 70.1873 17.5512 71.3665 22.7405C72.5456 27.9299 73.3313 32.2006 73.1131 32.2757C72.895 32.3509 71.7666 28.1983 70.5874 23.0089C69.4082 17.8196 68.6226 13.5489 68.8407 13.4737Z" fill="#592F72"/>
<path d="M69.1337 14.7629C68.6149 14.9416 68.2339 14.732 68.103 14.6432C67.9604 14.5465 67.88 14.4407 67.8564 14.4091C67.8022 14.3363 67.7841 14.2886 67.8007 14.3244C67.8251 14.3769 67.874 14.5001 67.9476 14.7186C68.0902 15.1421 68.2806 15.7871 68.5069 16.6179C68.9573 18.2721 69.5297 20.5885 70.1165 23.1712L72.6164 22.3099C72.024 19.7032 71.4426 17.3486 70.9795 15.6479C70.749 14.8013 70.5427 14.098 70.3756 13.6018C70.2943 13.3605 70.21 13.1311 70.1263 12.9506C70.0889 12.8699 70.0231 12.7356 69.9277 12.6077C69.8836 12.5485 69.7843 12.423 69.6246 12.3147C69.4766 12.2143 69.0801 12.0012 68.5478 12.1846L69.1337 14.7629ZM70.1165 23.1712C70.7034 25.7538 71.1904 28.0996 71.5026 29.8014C71.6593 30.6562 71.7684 31.3293 71.825 31.7824C71.8542 32.0162 71.8643 32.1527 71.8656 32.2132C71.8665 32.2544 71.8618 32.2021 71.8775 32.1052C71.8843 32.0631 71.9085 31.9212 71.9896 31.7475C72.0641 31.5879 72.3015 31.1653 72.8202 30.9866L73.406 33.5649C73.9384 33.3815 74.1874 32.9459 74.2717 32.7655C74.3625 32.5708 74.3945 32.4001 74.4073 32.3214C74.4349 32.1511 74.4345 31.9942 74.4325 31.9013C74.428 31.6936 74.4033 31.4436 74.3711 31.1854C74.3049 30.6545 74.1848 29.9215 74.025 29.0504C73.7041 27.3008 73.2087 24.9165 72.6164 22.3099L70.1165 23.1712ZM72.8202 30.9866C73.3389 30.8079 73.7199 31.0174 73.8508 31.1062C73.9934 31.2029 74.0738 31.3087 74.0974 31.3403C74.1517 31.4132 74.1697 31.4609 74.1531 31.4251C74.1287 31.3726 74.0799 31.2493 74.0063 31.0309C73.8636 30.6074 73.6732 29.9623 73.447 29.1315C72.9965 27.4773 72.4241 25.161 71.8373 22.5783L69.3375 23.4396C69.9298 26.0462 70.5112 28.4008 70.9743 30.1015C71.2048 30.9481 71.4111 31.6515 71.5782 32.1476C71.6595 32.389 71.7438 32.6184 71.8275 32.7988C71.8649 32.8795 71.9308 33.0138 72.0261 33.1418C72.0702 33.2009 72.1695 33.3264 72.3292 33.4347C72.4772 33.5351 72.8737 33.7483 73.406 33.5649L72.8202 30.9866ZM71.8373 22.5783C71.2504 19.9956 70.7634 17.6498 70.4513 15.948C70.2945 15.0933 70.1854 14.4202 70.1288 13.967C70.0997 13.7333 70.0895 13.5967 70.0882 13.5362C70.0873 13.495 70.092 13.5473 70.0763 13.6443C70.0695 13.6863 70.0453 13.8282 69.9642 14.002C69.8897 14.1615 69.6524 14.5842 69.1337 14.7629L68.5478 12.1846C68.0154 12.368 67.7664 12.8035 67.6822 12.9839C67.5913 13.1786 67.5593 13.3494 67.5466 13.4281C67.519 13.5984 67.5193 13.7552 67.5213 13.8481C67.5258 14.0559 67.5505 14.3058 67.5827 14.5641C67.649 15.095 67.7691 15.828 67.9288 16.699C68.2498 18.4487 68.7452 20.8329 69.3375 23.4396L71.8373 22.5783Z" fill="#592F72" mask="url(#path-22-inside-8_1_40)"/>
<mask id="path-24-inside-9_1_40" fill="white">
<path d="M65.9557 14.6808C66.1739 14.6056 67.2818 18.668 68.437 23.752C69.5923 28.8361 70.3574 33.0165 70.1393 33.0917C69.9211 33.1668 68.8132 29.1045 67.658 24.0204C66.5027 18.9364 65.7376 14.7559 65.9557 14.6808Z"/>
</mask>
<path d="M65.9557 14.6808C66.1739 14.6056 67.2818 18.668 68.437 23.752C69.5923 28.8361 70.3574 33.0165 70.1393 33.0917C69.9211 33.1668 68.8132 29.1045 67.658 24.0204C66.5027 18.9364 65.7376 14.7559 65.9557 14.6808Z" fill="#592F72"/>
<path d="M66.2487 15.9699C65.7411 16.1448 65.3648 15.9472 65.2291 15.8575C65.0843 15.7618 65.002 15.6558 64.9772 15.6231C64.9207 15.5486 64.9013 15.4985 64.9172 15.5325C64.9401 15.5812 64.9876 15.6994 65.0599 15.9126C65.1999 16.3252 65.3868 16.9551 65.6089 17.7678C66.0511 19.3858 66.6123 21.6529 67.1871 24.1827L69.6869 23.3214C69.1065 20.7671 68.5361 18.461 68.081 16.7955C67.8545 15.9666 67.6513 15.2772 67.4861 14.7904C67.4058 14.5539 67.322 14.3274 67.238 14.1484C67.2005 14.0685 67.1338 13.934 67.0365 13.8057C66.9913 13.7461 66.8903 13.621 66.7285 13.514C66.5757 13.413 66.184 13.212 65.6628 13.3916L66.2487 15.9699ZM67.1871 24.1827C67.762 26.7124 68.2378 29.0089 68.5417 30.6745C68.6944 31.5112 68.8001 32.1691 68.8544 32.6112C68.8824 32.8396 68.8916 32.9711 68.8926 33.0273C68.8933 33.0665 68.8888 33.0113 68.9057 32.9115C68.9131 32.8677 68.9387 32.7246 69.0222 32.5502C69.1004 32.3868 69.3388 31.9774 69.8463 31.8025L70.4322 34.3808C70.9534 34.2013 71.2035 33.7792 71.2915 33.5952C71.3848 33.4003 71.4184 33.2288 71.4319 33.149C71.461 32.9772 71.4613 32.8196 71.4597 32.7273C71.4561 32.5207 71.4323 32.2735 71.4012 32.02C71.3372 31.4983 71.2203 30.7792 71.0646 29.9259C70.7517 28.2114 70.2673 25.8756 69.6869 23.3214L67.1871 24.1827ZM69.8463 31.8025C70.3539 31.6277 70.7302 31.8253 70.8659 31.915C71.0107 32.0107 71.093 32.1166 71.1178 32.1494C71.1743 32.2239 71.1937 32.2739 71.1778 32.24C71.1549 32.1913 71.1074 32.073 71.0351 31.8599C70.8951 31.4473 70.7082 30.8174 70.4861 30.0046C70.0439 28.3867 69.4827 26.1196 68.9079 23.5898L66.4081 24.4511C66.9885 27.0053 67.5589 29.3115 68.014 30.9769C68.2405 31.8059 68.4437 32.4952 68.6089 32.982C68.6892 33.2186 68.773 33.4451 68.857 33.624C68.8945 33.7039 68.9612 33.8385 69.0585 33.9667C69.1037 34.0263 69.2047 34.1514 69.3665 34.2584C69.5193 34.3594 69.911 34.5604 70.4322 34.3808L69.8463 31.8025ZM68.9079 23.5898C68.333 21.06 67.8572 18.7635 67.5533 17.0979C67.4006 16.2613 67.2949 15.6034 67.2406 15.1612C67.2126 14.9328 67.2034 14.8014 67.2024 14.7451C67.2017 14.706 67.2062 14.7611 67.1893 14.8609C67.1819 14.9048 67.1563 15.0479 67.0728 15.2222C66.9946 15.3857 66.7562 15.795 66.2487 15.9699L65.6628 13.3916C65.1416 13.5712 64.8915 13.9933 64.8035 14.1773C64.7102 14.3721 64.6766 14.5436 64.6631 14.6235C64.634 14.7952 64.6337 14.9529 64.6353 15.0452C64.6389 15.2518 64.6627 15.499 64.6938 15.7525C64.7578 16.2742 64.8747 16.9932 65.0304 17.8466C65.3433 19.561 65.8276 21.8968 66.4081 24.4511L68.9079 23.5898Z" fill="#592F72" mask="url(#path-24-inside-9_1_40)"/>
<mask id="path-26-inside-10_1_40" fill="white">
<path d="M34.5962 39.6258C34.5483 39.4152 42.1612 36.6138 51.5881 33.366C61.0149 30.1181 68.703 27.6477 68.7508 27.8583C68.7987 28.0688 61.2013 30.8648 51.7589 34.118C42.3321 37.3659 34.644 39.8363 34.5962 39.6258Z"/>
</mask>
<path d="M34.5962 39.6258C34.5483 39.4152 42.1612 36.6138 51.5881 33.366C61.0149 30.1181 68.703 27.6477 68.7508 27.8583C68.7987 28.0688 61.2013 30.8648 51.7589 34.118C42.3321 37.3659 34.644 39.8363 34.5962 39.6258Z" fill="#FFB5C3"/>
<path d="M35.8461 39.1951C35.9686 39.7342 35.7329 40.1632 35.6337 40.3151C35.5256 40.4805 35.4127 40.5814 35.3734 40.6156C35.3222 40.6602 35.2809 40.6893 35.2623 40.702C35.2411 40.7164 35.2264 40.7252 35.2218 40.728C35.2147 40.7322 35.2473 40.7133 35.3479 40.6666C35.5361 40.5792 35.8394 40.4506 36.261 40.2813C37.0972 39.9456 38.3246 39.4795 39.8585 38.9146C42.9227 37.7861 47.1734 36.2771 51.881 34.6551L51.2951 32.0768C46.5759 33.7028 42.3067 35.2183 39.2197 36.3551C37.6781 36.9229 36.422 37.3995 35.5496 37.7498C35.1169 37.9235 34.7597 38.0737 34.5039 38.1925C34.3825 38.2488 34.2473 38.3149 34.1293 38.3849C34.0797 38.4143 33.9694 38.4812 33.8544 38.5814C33.8019 38.6271 33.6793 38.7384 33.5654 38.9129C33.4602 39.0739 33.2223 39.5108 33.3463 40.0564L35.8461 39.1951ZM51.881 34.6551C56.5886 33.0332 60.858 31.6068 63.9529 30.6132C65.5022 30.1158 66.7478 29.7299 67.604 29.4825C68.0358 29.3578 68.3492 29.2739 68.5469 29.2284C68.6527 29.204 68.6885 29.1993 68.6806 29.2002C68.6755 29.2008 68.6592 29.2027 68.635 29.2039C68.6138 29.2049 68.5662 29.2065 68.5036 29.2011C68.4556 29.1969 68.3166 29.1828 68.1546 29.1105C68.0057 29.0441 67.6234 28.8279 67.5009 28.2889L70.0007 27.4276C69.8768 26.882 69.4893 26.6606 69.3315 26.5902C69.1606 26.5139 69.0089 26.4971 68.9447 26.4915C68.8042 26.4794 68.6817 26.4927 68.6269 26.4992C68.4966 26.5148 68.3531 26.5448 68.2256 26.5741C67.9569 26.6361 67.5882 26.736 67.1452 26.864C66.2518 27.1221 64.9773 27.5173 63.4202 28.0172C60.3024 29.0181 56.0143 30.4509 51.2951 32.0768L51.881 34.6551ZM67.5009 28.2889C67.3787 27.7509 67.6132 27.3225 67.7126 27.17C67.8205 27.0045 67.9335 26.9034 67.9729 26.869C68.0241 26.8243 68.0656 26.7952 68.0843 26.7824C68.1055 26.7679 68.1202 26.7591 68.125 26.7562C68.1323 26.7519 68.0999 26.7706 67.9995 26.8173C67.8118 26.9045 67.5091 27.0329 67.0881 27.202C66.2532 27.5373 65.0273 28.0029 63.4943 28.5674C60.4321 29.6952 56.1814 31.2043 51.466 32.8289L52.0519 35.4072C56.7789 33.7786 61.0481 32.263 64.1332 31.1269C65.6738 30.5595 66.9284 30.0833 67.7997 29.7334C68.2317 29.5599 68.5885 29.4099 68.844 29.2912C68.9651 29.2349 69.1003 29.1688 69.2183 29.0988C69.2679 29.0694 69.3783 29.0023 69.4933 28.902C69.546 28.8561 69.6685 28.7446 69.7824 28.57C69.8877 28.4085 70.1245 27.9722 70.0007 27.4276L67.5009 28.2889ZM51.466 32.8289C46.7584 34.4508 42.489 35.8772 39.3941 36.8708C37.8448 37.3682 36.5992 37.7541 35.743 38.0015C35.3112 38.1262 34.9978 38.2101 34.8001 38.2557C34.6943 38.28 34.6585 38.2847 34.6664 38.2838C34.6715 38.2832 34.6878 38.2813 34.712 38.2802C34.7332 38.2791 34.7808 38.2775 34.8434 38.2829C34.8914 38.2871 35.0304 38.3012 35.1924 38.3735C35.3413 38.4399 35.7236 38.6561 35.8461 39.1951L33.3463 40.0564C33.4702 40.602 33.8577 40.8234 34.0155 40.8939C34.1864 40.9701 34.3381 40.9869 34.4023 40.9925C34.5428 41.0046 34.6653 40.9913 34.7201 40.9848C34.8504 40.9692 34.9939 40.9392 35.1214 40.9099C35.3901 40.848 35.7588 40.748 36.2018 40.62C37.0952 40.3619 38.3697 39.9667 39.9268 39.4668C43.0446 38.4659 47.3327 37.0331 52.0519 35.4072L51.466 32.8289Z" fill="#592F72" mask="url(#path-26-inside-10_1_40)"/>
<mask id="path-28-inside-11_1_40" fill="white">
<path d="M32.8928 32.1473C32.8449 31.9367 40.4578 29.1354 49.8847 25.8875C59.3115 22.6396 66.9996 20.1692 67.0474 20.3798C67.0953 20.5904 59.4979 23.3863 50.0555 26.6396C40.6287 29.8874 32.9406 32.3579 32.8928 32.1473Z"/>
</mask>
<path d="M32.8928 32.1473C32.8449 31.9367 40.4578 29.1354 49.8847 25.8875C59.3115 22.6396 66.9996 20.1692 67.0474 20.3798C67.0953 20.5904 59.4979 23.3863 50.0555 26.6396C40.6287 29.8874 32.9406 32.3579 32.8928 32.1473Z" fill="#FFB5C3"/>
<path d="M34.1427 31.7166C34.2652 32.2557 34.0295 32.6847 33.9303 32.8367C33.8222 33.002 33.7093 33.1029 33.67 33.1371C33.6188 33.1817 33.5775 33.2108 33.5589 33.2235C33.5377 33.2379 33.523 33.2467 33.5184 33.2495C33.5113 33.2537 33.5439 33.2349 33.6445 33.1881C33.8327 33.1007 34.136 32.9721 34.5576 32.8028C35.3938 32.4671 36.6212 32.001 38.1551 31.4361C41.2193 30.3076 45.47 28.7986 50.1776 27.1766L49.5917 24.5983C44.8725 26.2243 40.6033 27.7398 37.5163 28.8766C35.9747 29.4444 34.7186 29.9211 33.8462 30.2713C33.4135 30.445 33.0563 30.5952 32.8005 30.714C32.6791 30.7703 32.5439 30.8364 32.4259 30.9064C32.3763 30.9358 32.266 31.0028 32.151 31.1029C32.0985 31.1487 31.9759 31.2599 31.862 31.4344C31.7568 31.5954 31.5189 32.0323 31.6429 32.5779L34.1427 31.7166ZM50.1776 27.1766C54.8852 25.5547 59.1546 24.1283 62.2495 23.1347C63.7988 22.6373 65.0444 22.2514 65.9006 22.0041C66.3324 21.8793 66.6458 21.7954 66.8435 21.7499C66.9493 21.7255 66.9851 21.7208 66.9772 21.7217C66.9721 21.7224 66.9558 21.7242 66.9316 21.7254C66.9104 21.7264 66.8628 21.728 66.8002 21.7226C66.7522 21.7185 66.6132 21.7044 66.4512 21.6321C66.3023 21.5656 65.92 21.3495 65.7975 20.8104L68.2973 19.9491C68.1734 19.4035 67.7859 19.1821 67.6281 19.1117C67.4572 19.0354 67.3055 19.0186 67.2413 19.0131C67.1008 19.0009 66.9783 19.0142 66.9235 19.0208C66.7932 19.0363 66.6497 19.0663 66.5222 19.0957C66.2535 19.1576 65.8848 19.2575 65.4418 19.3855C64.5484 19.6436 63.2739 20.0388 61.7168 20.5387C58.599 21.5397 54.3109 22.9724 49.5917 24.5983L50.1776 27.1766ZM65.7975 20.8104C65.6753 20.2725 65.9098 19.844 66.0092 19.6915C66.1171 19.526 66.2301 19.4249 66.2695 19.3905C66.3207 19.3458 66.3622 19.3167 66.3809 19.3039C66.4021 19.2894 66.4168 19.2806 66.4216 19.2778C66.4289 19.2734 66.3965 19.2922 66.2961 19.3388C66.1084 19.4261 65.8057 19.5545 65.3847 19.7235C64.5498 20.0588 63.3239 20.5244 61.7909 21.089C58.7287 22.2167 54.478 23.7258 49.7626 25.3504L50.3485 27.9287C55.0755 26.3001 59.3447 24.7846 62.4298 23.6484C63.9704 23.081 65.225 22.6048 66.0963 22.2549C66.5283 22.0814 66.8851 21.9314 67.1406 21.8127C67.2617 21.7564 67.3969 21.6904 67.5149 21.6203C67.5645 21.5909 67.6749 21.5238 67.7899 21.4235C67.8426 21.3776 67.9651 21.2662 68.079 21.0915C68.1843 20.93 68.4211 20.4937 68.2973 19.9491L65.7975 20.8104ZM49.7626 25.3504C45.055 26.9724 40.7856 28.3988 37.6907 29.3923C36.1414 29.8897 34.8958 30.2756 34.0396 30.523C33.6078 30.6477 33.2944 30.7316 33.0967 30.7772C32.9909 30.8015 32.9551 30.8063 32.963 30.8053C32.9681 30.8047 32.9844 30.8029 33.0086 30.8017C33.0298 30.8006 33.0774 30.799 33.14 30.8044C33.188 30.8086 33.327 30.8227 33.489 30.895C33.6379 30.9614 34.0202 31.1776 34.1427 31.7166L31.6429 32.5779C31.7668 33.1235 32.1543 33.345 32.3121 33.4154C32.483 33.4917 32.6347 33.5085 32.6989 33.514C32.8394 33.5261 32.9619 33.5128 33.0167 33.5063C33.147 33.4907 33.2905 33.4608 33.418 33.4314C33.6867 33.3695 34.0554 33.2695 34.4984 33.1415C35.3918 32.8834 36.6663 32.4882 38.2234 31.9883C41.3412 30.9874 45.6293 29.5547 50.3485 27.9287L49.7626 25.3504Z" fill="#592F72" mask="url(#path-28-inside-11_1_40)"/>
</svg>
